<svg id="Layer_1" data-name="Layer 1" xmlns="http://www.w3.org/2000/svg" xmlns:xlink="http://www.w3.org/1999/xlink" viewBox="0 0 960 469.2"><defs><style>.cls-1{fill:none;}.cls-2{fill:#53381d;}.cls-11,.cls-13,.cls-14,.cls-15,.cls-16,.cls-17,.cls-18,.cls-19,.cls-2,.cls-20,.cls-21,.cls-22,.cls-23,.cls-24,.cls-25,.cls-26,.cls-27,.cls-28,.cls-29,.cls-3,.cls-30,.cls-31,.cls-32,.cls-33,.cls-35,.cls-36,.cls-4,.cls-5,.cls-6,.cls-7,.cls-8,.cls-9{fill-rule:evenodd;}.cls-3{fill:#963;}.cls-4{fill:#ca9560;}.cls-5{fill:#af753b;}.cls-6{fill:#253f05;}.cls-7{fill:url(#radial-gradient);}.cls-10,.cls-8{fill:#85c938;}.cls-35,.cls-9{fill:#fff;}.cls-9{fill-opacity:0.2;}.cls-11{fill:url(#radial-gradient-2);}.cls-12{clip-path:url(#clip-path);}.cls-13{fill-opacity:0;fill:url(#linear-gradient);}.cls-14{fill-opacity:0.05;fill:url(#linear-gradient-2);}.cls-15{fill-opacity:0.09;fill:url(#linear-gradient-3);}.cls-16{fill-opacity:0.14;fill:url(#linear-gradient-4);}.cls-17{fill-opacity:0.19;fill:url(#linear-gradient-5);}.cls-18{fill-opacity:0.24;fill:url(#linear-gradient-6);}.cls-19{fill-opacity:0.29;fill:url(#linear-gradient-7);}.cls-20{fill-opacity:0.33;fill:url(#linear-gradient-8);}.cls-21{fill-opacity:0.38;fill:url(#linear-gradient-9);}.cls-22{fill-opacity:0.43;fill:url(#linear-gradient-10);}.cls-23{fill-opacity:0.47;fill:url(#linear-gradient-11);}.cls-24{fill-opacity:0.53;fill:url(#linear-gradient-12);}.cls-25{fill-opacity:0.57;fill:url(#linear-gradient-13);}.cls-26{fill-opacity:0.62;fill:url(#linear-gradient-14);}.cls-27{fill-opacity:0.67;fill:url(#linear-gradient-15);}.cls-28{fill-opacity:0.71;fill:url(#linear-gradient-16);}.cls-29{fill-opacity:0.76;fill:url(#linear-gradient-17);}.cls-30{fill-opacity:0.81;fill:url(#linear-gradient-18);}.cls-31{fill-opacity:0.86;fill:url(#linear-gradient-19);}.cls-32{fill-opacity:0.91;fill:url(#linear-gradient-20);}.cls-33{fill-opacity:0.95;fill:url(#linear-gradient-21);}.cls-34{fill:#91aa3f;}.cls-35{fill-opacity:0.3;}.cls-36{fill:#375e06;}</style><radialGradient id="radial-gradient" cx="480" cy="334.93" r="436.98" gradientTransform="matrix(1, 0, 0, -1, 0, 560.61)" gradientUnits="userSpaceOnUse"><stop offset="0" stop-color="#65aa11"/><stop offset="0.85" stop-color="#4e840b"/><stop offset="1" stop-color="#375e06"/></radialGradient><radialGradient id="radial-gradient-2" cx="480" cy="327.31" r="384.95" gradientTransform="matrix(1, 0, 0, -0.39, 0, 346.54)" gradientUnits="userSpaceOnUse"><stop offset="0" stop-color="#90b027"/><stop offset="1" stop-color="#65aa11"/></radialGradient><clipPath id="clip-path" transform="translate(0 -1.48)"><path class="cls-1" d="M160.51,69.39h639c37,0,64.82,27.78,64.82,64.83V307.08c0,33.95-27.78,61.73-64.82,61.73h-639c-37,0-64.82-27.78-64.82-61.73V134.22C95.69,97.17,123.47,69.39,160.51,69.39Z"/></clipPath><linearGradient id="linear-gradient" x1="478.46" y1="248.16" x2="478.46" y2="338.83" gradientTransform="matrix(1, 0, 0, -1, 0, 560.61)" gradientUnits="userSpaceOnUse"><stop offset="0" stop-color="#65aa11"/><stop offset="1" stop-color="#90b027"/></linearGradient><linearGradient id="linear-gradient-2" x1="478.46" y1="246.57" x2="478.46" y2="334.36" gradientTransform="matrix(1, 0, 0, -1, 0, 560.61)" gradientUnits="userSpaceOnUse"><stop offset="0" stop-color="#67aa13"/><stop offset="1" stop-color="#90b028"/></linearGradient><linearGradient id="linear-gradient-3" x1="476.91" y1="244.99" x2="476.91" y2="329.89" gradientTransform="matrix(1, 0, 0, -1, 0, 560.61)" gradientUnits="userSpaceOnUse"><stop offset="0" stop-color="#69aa15"/><stop offset="1" stop-color="#90af29"/></linearGradient><linearGradient id="linear-gradient-4" x1="476.91" y1="243.41" x2="476.91" y2="325.43" gradientTransform="matrix(1, 0, 0, -1, 0, 560.61)" gradientUnits="userSpaceOnUse"><stop offset="0" stop-color="#6baa18"/><stop offset="1" stop-color="#90af2a"/></linearGradient><linearGradient id="linear-gradient-5" x1="476.91" y1="241.83" x2="476.91" y2="320.96" gradientTransform="matrix(1, 0, 0, -1, 0, 560.61)" gradientUnits="userSpaceOnUse"><stop offset="0" stop-color="#6daa1a"/><stop offset="1" stop-color="#90af2c"/></linearGradient><linearGradient id="linear-gradient-6" x1="478.46" y1="240.24" x2="478.46" y2="316.5" gradientTransform="matrix(1, 0, 0, -1, 0, 560.61)" gradientUnits="userSpaceOnUse"><stop offset="0" stop-color="#6faa1c"/><stop offset="1" stop-color="#90af2d"/></linearGradient><linearGradient id="linear-gradient-7" x1="180.08" y1="698.76" x2="180.08" y2="699.21" gradientTransform="matrix(214, 0, 0, -37, -38058, 26174.61)" gradientUnits="userSpaceOnUse"><stop offset="0" stop-color="#72aa1e"/><stop offset="1" stop-color="#90ae2e"/></linearGradient><linearGradient id="linear-gradient-8" x1="476.91" y1="237.07" x2="476.91" y2="307.56" gradientTransform="matrix(1, 0, 0, -1, 0, 560.61)" gradientUnits="userSpaceOnUse"><stop offset="0" stop-color="#74aa20"/><stop offset="1" stop-color="#90ae2f"/></linearGradient><linearGradient id="linear-gradient-9" x1="476.91" y1="235.49" x2="476.91" y2="303.09" gradientTransform="matrix(1, 0, 0, -1, 0, 560.61)" gradientUnits="userSpaceOnUse"><stop offset="0" stop-color="#76aa23"/><stop offset="1" stop-color="#90ae30"/></linearGradient><linearGradient id="linear-gradient-10" x1="476.91" y1="233.9" x2="476.91" y2="298.62" gradientTransform="matrix(1, 0, 0, -1, 0, 560.61)" gradientUnits="userSpaceOnUse"><stop offset="0" stop-color="#78aa25"/><stop offset="1" stop-color="#90ad31"/></linearGradient><linearGradient id="linear-gradient-11" x1="179.43" y1="698.21" x2="179.43" y2="698.66" gradientTransform="matrix(180, 0, 0, -31, -31819, 21971.61)" gradientUnits="userSpaceOnUse"><stop offset="0" stop-color="#7aaa27"/><stop offset="1" stop-color="#90ad32"/></linearGradient><linearGradient id="linear-gradient-12" x1="478.46" y1="230.74" x2="478.46" y2="289.69" gradientTransform="matrix(1, 0, 0, -1, 0, 560.61)" gradientUnits="userSpaceOnUse"><stop offset="0" stop-color="#7caa29"/><stop offset="1" stop-color="#91ad34"/></linearGradient><linearGradient id="linear-gradient-13" x1="476.91" y1="229.15" x2="476.91" y2="285.22" gradientTransform="matrix(1, 0, 0, -1, 0, 560.61)" gradientUnits="userSpaceOnUse"><stop offset="0" stop-color="#7eaa2b"/><stop offset="1" stop-color="#91ad35"/></linearGradient><linearGradient id="linear-gradient-14" x1="476.91" y1="227.57" x2="476.91" y2="280.75" gradientTransform="matrix(1, 0, 0, -1, 0, 560.61)" gradientUnits="userSpaceOnUse"><stop offset="0" stop-color="#80aa2d"/><stop offset="1" stop-color="#91ac36"/></linearGradient><linearGradient id="linear-gradient-15" x1="476.91" y1="225.99" x2="476.91" y2="276.29" gradientTransform="matrix(1, 0, 0, -1, 0, 560.61)" gradientUnits="userSpaceOnUse"><stop offset="0" stop-color="#82aa30"/><stop offset="1" stop-color="#91ac37"/></linearGradient><linearGradient id="linear-gradient-16" x1="478.46" y1="224.4" x2="478.46" y2="271.82" gradientTransform="matrix(1, 0, 0, -1, 0, 560.61)" gradientUnits="userSpaceOnUse"><stop offset="0" stop-color="#84aa32"/><stop offset="1" stop-color="#91ac38"/></linearGradient><linearGradient id="linear-gradient-17" x1="478.46" y1="222.82" x2="478.46" y2="267.35" gradientTransform="matrix(1, 0, 0, -1, 0, 560.61)" gradientUnits="userSpaceOnUse"><stop offset="0" stop-color="#87aa34"/><stop offset="1" stop-color="#91ab39"/></linearGradient><linearGradient id="linear-gradient-18" x1="476.91" y1="221.23" x2="476.91" y2="262.88" gradientTransform="matrix(1, 0, 0, -1, 0, 560.61)" gradientUnits="userSpaceOnUse"><stop offset="0" stop-color="#89aa36"/><stop offset="1" stop-color="#91ab3a"/></linearGradient><linearGradient id="linear-gradient-19" x1="476.91" y1="219.65" x2="476.91" y2="258.42" gradientTransform="matrix(1, 0, 0, -1, 0, 560.61)" gradientUnits="userSpaceOnUse"><stop offset="0" stop-color="#8baa38"/><stop offset="1" stop-color="#91ab3c"/></linearGradient><linearGradient id="linear-gradient-20" x1="476.91" y1="218.07" x2="476.91" y2="253.95" gradientTransform="matrix(1, 0, 0, -1, 0, 560.61)" gradientUnits="userSpaceOnUse"><stop offset="0" stop-color="#8daa3b"/><stop offset="1" stop-color="#91ab3d"/></linearGradient><linearGradient id="linear-gradient-21" x1="478.46" y1="216.49" x2="478.46" y2="249.48" gradientTransform="matrix(1, 0, 0, -1, 0, 560.61)" gradientUnits="userSpaceOnUse"><stop offset="0" stop-color="#8faa3d"/><stop offset="1" stop-color="#91aa3e"/></linearGradient></defs><g id="_894954960" data-name=" 894954960"><path class="cls-2" d="M105,20h750.1c52.47,0,95.69,43.22,95.69,95.69V375c0,52.47-43.22,95.69-95.69,95.69H105c-52.47,0-95.69-43.22-95.69-95.69V115.69C9.26,63.22,52.48,20,105,20Z" transform="translate(0 -1.48)"/><path class="cls-3" d="M105,1.48h750.1c52.47,0,95.69,43.22,95.69,95.69v259.3c0,52.47-43.22,95.69-95.69,95.69H105c-52.47,0-95.69-43.22-95.69-95.69V97.17C9.26,44.7,52.48,1.48,105,1.48Z" transform="translate(0 -1.48)"/><path class="cls-4" d="M108,7.66H852c52.48,0,92.61,43.21,92.61,92.6v250c0,52.48-40.13,92.61-92.61,92.61H108c-52.48,0-92.61-40.13-92.61-92.61v-250C15.43,50.87,55.56,7.66,108,7.66Z" transform="translate(0 -1.48)"/><path class="cls-5" d="M108,10.74H852a89.58,89.58,0,0,1,89.52,89.52v250c0,49.39-40.13,92.61-89.52,92.61H108c-49.39,0-89.52-43.22-89.52-92.61v-250A89.58,89.58,0,0,1,108,10.74Z" transform="translate(0 -1.48)"/><path class="cls-2" d="M117.3,23.09H842.7c49.39,0,86.43,37,86.43,86.43V341c0,49.39-37,86.43-86.43,86.43H117.3c-49.39,0-86.43-37-86.43-86.43V109.52C30.87,60.13,67.91,23.09,117.3,23.09Z" transform="translate(0 -1.48)"/><path class="cls-6" d="M145.08,47.78H814.92c43.22,0,80.26,34,80.26,74.09V328.68c0,40.13-37,74.09-80.26,74.09H145.08c-43.22,0-80.26-34-80.26-74.09V121.87C64.82,81.74,101.86,47.78,145.08,47.78Z" transform="translate(0 -1.48)"/><path class="cls-7" d="M148.17,54H811.83C855.05,54,889,84.83,889,125V325.6c0,40.13-34,74.08-77.17,74.08H148.17C105,399.68,71,365.73,71,325.6V125C71,84.83,105,54,148.17,54Z" transform="translate(0 -1.48)"/><polygon class="cls-8" points="287.07 382.76 333.38 370.42 311.77 358.07 271.64 364.24 240.77 370.42 287.07 382.76"/><path class="cls-9" d="M811.83,54a74.14,74.14,0,0,1,74.09,67.91l-404.38,105L83.34,87.91c-6.17,12.35-9.26,24.7-9.26,40.13l407.46,98.78L98.78,69.39C114.21,60.13,129.65,54,148.17,54L481.54,226.82Z" transform="translate(0 -1.48)"/><path class="cls-10" d="M160.51,66.31h639c18.52,0,37,9.26,49.38,21.6s18.53,27.78,18.53,46.31V307.08q0,27.78-18.53,46.3C836.53,365.73,818,371.9,799.49,371.9h-639c-18.52,0-37-6.17-49.38-18.52S92.6,325.6,92.6,307.08V134.22q0-27.79,18.53-46.31C123.47,75.57,142,66.31,160.51,66.31Zm639,6.17h-639C142,72.48,126.56,78.65,117.3,91c-12.35,9.26-18.52,24.69-18.52,43.22V307.08c0,15.43,6.17,30.87,18.52,43.21,9.26,9.26,24.69,18.52,43.21,18.52h639c18.52,0,34-9.26,43.21-18.52,12.35-12.34,18.52-27.78,18.52-43.21V134.22c0-18.53-6.17-34-18.52-43.22C833.44,78.65,818,72.48,799.49,72.48Z" transform="translate(0 -1.48)"/><path class="cls-11" d="M160.51,69.39h639c37,0,64.82,27.78,64.82,64.83V307.08c0,33.95-27.78,61.73-64.82,61.73h-639c-37,0-64.82-27.78-64.82-61.73V134.22C95.69,97.17,123.47,69.39,160.51,69.39Z" transform="translate(0 -1.48)"/><g class="cls-12"><path id="_1" data-name="1" class="cls-13" d="M478.46,291.64c225.33,0,407.46,30.87,407.46,71,0,37-182.13,71-407.46,71S71,399.68,71,362.64C71,322.51,253.12,291.64,478.46,291.64Z" transform="translate(0 -1.48)"/><path class="cls-14" d="M478.46,294.73c216.07,0,395.11,30.87,395.11,67.91s-179,67.91-395.11,67.91c-219.17,0-395.12-30.87-395.12-67.91S259.29,294.73,478.46,294.73Z" transform="translate(0 -1.48)"/><path class="cls-15" d="M478.46,297.82c209.9,0,379.68,27.78,379.68,64.82s-169.78,64.82-379.68,64.82c-213,0-382.77-27.78-382.77-64.82S265.47,297.82,478.46,297.82Z" transform="translate(0 -1.48)"/><path class="cls-16" d="M478.46,297.82c203.73,0,367.33,30.86,367.33,64.82s-163.6,61.74-367.33,61.74S108,396.59,108,362.64,274.73,297.82,478.46,297.82Z" transform="translate(0 -1.48)"/><path class="cls-17" d="M478.46,300.9c194.47,0,355,27.78,355,61.74s-160.51,61.74-355,61.74c-197.56,0-358.07-27.79-358.07-61.74S280.9,300.9,478.46,300.9Z" transform="translate(0 -1.48)"/><path class="cls-18" d="M478.46,304c188.29,0,342.63,24.69,342.63,58.65,0,30.87-154.34,58.65-342.63,58.65-191.39,0-342.64-27.78-342.64-58.65C135.82,328.68,287.07,304,478.46,304Z" transform="translate(0 -1.48)"/><path class="cls-19" d="M478.46,304c182.12,0,330.29,27.78,330.29,58.65S660.58,418.2,478.46,418.2s-330.29-24.69-330.29-55.56S296.33,304,478.46,304Z" transform="translate(0 -1.48)"/><path class="cls-20" d="M478.46,307.08c172.86,0,314.85,24.69,314.85,55.56s-142,55.56-314.85,55.56c-175.95,0-317.95-24.69-317.95-55.56S302.51,307.08,478.46,307.08Z" transform="translate(0 -1.48)"/><path class="cls-21" d="M478.46,310.16c166.68,0,302.5,24.7,302.5,52.48s-135.82,52.48-302.5,52.48c-169.78,0-305.6-24.7-305.6-52.48S308.68,310.16,478.46,310.16Z" transform="translate(0 -1.48)"/><path class="cls-22" d="M478.46,313.25c160.51,0,290.16,21.61,290.16,49.39S639,412,478.46,412s-293.25-21.61-293.25-49.39S317.94,313.25,478.46,313.25Z" transform="translate(0 -1.48)"/><path class="cls-23" d="M478.46,313.25c151.25,0,277.81,21.61,277.81,49.39,0,24.69-126.56,46.3-277.81,46.3-154.34,0-277.82-21.61-277.82-46.3C200.64,334.86,324.12,313.25,478.46,313.25Z" transform="translate(0 -1.48)"/><path class="cls-24" d="M478.46,316.34c145.08,0,265.46,21.61,265.46,46.3s-120.38,46.3-265.46,46.3c-148.17,0-265.47-21.61-265.47-46.3S330.29,316.34,478.46,316.34Z" transform="translate(0 -1.48)"/><path class="cls-25" d="M478.46,319.42c138.9,0,250,18.53,250,43.22s-111.13,43.21-250,43.21-253.12-18.52-253.12-43.21S339.55,319.42,478.46,319.42Z" transform="translate(0 -1.48)"/><path class="cls-26" d="M478.46,322.51c129.64,0,237.68,18.52,237.68,40.13s-108,40.13-237.68,40.13c-132.74,0-240.78-18.52-240.78-40.13S345.72,322.51,478.46,322.51Z" transform="translate(0 -1.48)"/><path class="cls-27" d="M478.46,322.51c123.47,0,225.33,18.52,225.33,40.13s-101.86,37-225.33,37c-126.56,0-228.43-15.43-228.43-37S351.9,322.51,478.46,322.51Z" transform="translate(0 -1.48)"/><path class="cls-28" d="M478.46,325.6c117.3,0,213,15.43,213,37,0,18.52-95.69,37-213,37-120.39,0-213-18.52-213-37C265.47,341,358.07,325.6,478.46,325.6Z" transform="translate(0 -1.48)"/><path class="cls-29" d="M478.46,328.68c108,0,200.64,15.44,200.64,34s-92.6,33.95-200.64,33.95c-111.13,0-200.65-15.43-200.65-33.95S367.33,328.68,478.46,328.68Z" transform="translate(0 -1.48)"/><path class="cls-30" d="M478.46,328.68c101.86,0,185.21,15.44,185.21,34s-83.35,30.87-185.21,30.87c-105,0-188.3-12.35-188.3-30.87S373.5,328.68,478.46,328.68Z" transform="translate(0 -1.48)"/><path class="cls-31" d="M478.46,331.77c95.69,0,172.86,12.35,172.86,30.87,0,15.43-77.17,30.87-172.86,30.87-98.78,0-175.95-15.44-175.95-30.87C302.51,344.12,379.68,331.77,478.46,331.77Z" transform="translate(0 -1.48)"/><path class="cls-32" d="M478.46,334.86C568,334.86,639,347.21,639,362.64s-71,27.78-160.51,27.78-163.6-12.35-163.6-27.78S388.94,334.86,478.46,334.86Z" transform="translate(0 -1.48)"/><path class="cls-33" d="M478.46,338c80.25,0,148.16,9.26,148.16,24.69,0,12.35-67.91,24.69-148.16,24.69-83.35,0-148.17-12.34-148.17-24.69C330.29,347.21,395.11,338,478.46,338Z" transform="translate(0 -1.48)"/><ellipse class="cls-34" cx="478.46" cy="361.16" rx="135.82" ry="24.69"/></g><path class="cls-1" d="M160.51,69.39h639c37,0,64.82,27.78,64.82,64.83V307.08c0,33.95-27.78,61.73-64.82,61.73h-639c-37,0-64.82-27.78-64.82-61.73V134.22C95.69,97.17,123.47,69.39,160.51,69.39Z" transform="translate(0 -1.48)"/><path class="cls-35" d="M858.14,220.65c-197.56-37.05-379.68-12.35-521.68,6.17-40.13-34-80.25-64.82-123.47-92.6L206.82,128h3.08c24.7-18.52,46.31-37,71-52.47H796.4c34,0,61.74,24.69,61.74,58.65ZM327.2,226.82c-95.69,12.35-172.86,18.52-225.34-6.17v-9.26c30.87-24.7,64.83-52.48,98.78-77.17l9.26,3.08C250,165.08,290.16,196,327.2,226.82ZM101.86,205.21v-71c0-21.61,9.27-40.13,27.79-49.39,21.6,15.43,43.21,27.78,64.82,43.21C163.6,152.74,129.65,177.43,101.86,205.21Zm34-123.47c9.26-6.17,18.52-6.17,27.78-6.17h108l-64.82,46.3L200.64,125C179,109.52,157.43,94.09,135.82,81.74Z" transform="translate(0 -1.48)"/><polygon class="cls-8" points="86.43 145.08 92.61 132.73 98.78 145.08 111.13 145.08 135.82 132.73 117.3 151.25 95.69 154.34 95.69 166.69 86.43 154.34 74.08 154.34 86.43 145.08"/><polygon class="cls-36" points="287.07 379.68 333.38 367.33 311.77 358.07 271.64 361.16 243.86 370.42 287.07 379.68"/><polygon class="cls-36" points="86.43 141.99 92.61 129.65 98.78 141.99 111.13 141.99 135.82 132.73 117.3 148.17 95.69 151.25 95.69 163.6 86.43 151.25 74.08 154.34 86.43 141.99"/><polygon class="cls-2" points="0 271.64 9.26 271.64 9.26 314.86 0 308.68 0 271.64"/><path class="cls-2" d="M24.69,149.65c37.05,0,71,33.95,71,71s-33.95,67.91-71,67.91c-9.26,0-15.43,0-24.69-3.09V155.82C9.26,152.74,15.43,149.65,24.69,149.65Z" transform="translate(0 -1.48)"/><path class="cls-3" d="M24.69,140.39c37.05,0,71,30.87,71,67.91,0,40.13-33.95,71-71,71-9.26,0-15.43-3.09-24.69-6.18V149.65l12.35-9.26H24.69Z" transform="translate(0 -1.48)"/><path class="cls-4" d="M24.69,140.39c37.05,0,71,30.87,71,67.91,0,40.13-33.95,71-71,71-9.26,0-15.43-3.09-24.69-6.18H0c9.26,3.09,15.43,3.09,24.69,3.09,37.05,0,67.91-27.78,67.91-67.91,0-37-30.86-64.82-67.91-64.82H12.35L0,152.74v-3.09l12.35-9.26H24.69Z" transform="translate(0 -1.48)"/><path class="cls-4" d="M15.43,279.3H12.35V140.39h3.08Z" transform="translate(0 -1.48)"/><polygon class="cls-5" points="0 271.64 0 265.47 0 148.17 12.35 138.91 12.35 277.81 0 287.07 0 271.64"/><polygon class="cls-2" points="9.26 280.9 3.09 296.33 15.43 287.07 9.26 280.9"/><polygon class="cls-4" points="0 283.99 0 287.07 12.35 277.81 12.35 274.73 0 283.99"/><polygon class="cls-4" points="0 148.17 0 151.25 12.35 141.99 12.35 138.91 0 148.17"/><polygon class="cls-2" points="960 271.64 950.74 271.64 950.74 314.86 960 308.68 960 271.64"/><path class="cls-2" d="M935.31,149.65c-37,0-67.91,33.95-67.91,71s30.86,67.91,67.91,67.91c9.26,0,15.43,0,24.69-3.09V155.82C950.74,152.74,944.57,149.65,935.31,149.65Z" transform="translate(0 -1.48)"/><path class="cls-3" d="M935.31,140.39c-37,0-67.91,30.87-67.91,67.91,0,40.13,30.86,71,67.91,71,9.26,0,15.43-3.09,24.69-6.18V149.65l-12.35-9.26H935.31Z" transform="translate(0 -1.48)"/><path class="cls-4" d="M935.31,140.39c-37,0-67.91,30.87-67.91,67.91,0,40.13,30.86,71,67.91,71,9.26,0,15.43-3.09,24.69-6.18h0c-6.17,3.09-15.43,3.09-24.69,3.09-37,0-67.91-27.78-67.91-67.91,0-37,30.86-64.82,67.91-64.82h12.34L960,152.74v-3.09l-12.35-9.26H935.31Z" transform="translate(0 -1.48)"/><path class="cls-4" d="M944.57,279.3h3.08V140.39h-3.08Z" transform="translate(0 -1.48)"/><polygon class="cls-5" points="960 271.64 960 265.47 960 148.17 947.65 138.91 947.65 277.81 960 287.07 960 271.64"/><polygon class="cls-2" points="950.74 280.9 956.91 296.33 944.57 287.07 950.74 280.9"/><polygon class="cls-4" points="960 283.99 960 287.07 947.65 277.81 947.65 274.73 960 283.99"/><polygon class="cls-4" points="960 148.17 960 151.25 947.65 141.99 947.65 138.91 960 148.17"/></g></svg>