<svg id="Layer_1" data-name="Layer 1" xmlns="http://www.w3.org/2000/svg" xmlns:xlink="http://www.w3.org/1999/xlink" viewBox="0 0 568.45 362.04"><defs><style>.cls-1{fill:url(#linear-gradient);}.cls-2{fill:#318063;}.cls-3{fill:url(#linear-gradient-2);}.cls-4{fill:url(#linear-gradient-3);}.cls-5{fill:url(#linear-gradient-4);}.cls-6{fill:url(#linear-gradient-5);}.cls-7{fill:url(#linear-gradient-6);}.cls-8{fill:#96440c;opacity:0.49;}.cls-9{font-size:111px;fill:#fff;font-family:RobotoCondensed-Bold, Roboto Condensed;font-weight:700;}</style><linearGradient id="linear-gradient" x1="-1491.32" y1="2034.56" x2="-1212.54" y2="2005.99" gradientTransform="matrix(0.17, 0.99, 0.99, -0.17, -1398.91, 1861.37)" gradientUnits="userSpaceOnUse"><stop offset="0" stop-color="#95d543"/><stop offset="0.26" stop-color="#72b74e"/><stop offset="0.58" stop-color="#4f9959"/><stop offset="0.83" stop-color="#398760"/><stop offset="1" stop-color="#318063"/></linearGradient><linearGradient id="linear-gradient-2" x1="251.53" y1="-36.98" x2="579.09" y2="-199.5" gradientTransform="translate(5.06 411.19) rotate(14.09)" xlink:href="#linear-gradient"/><linearGradient id="linear-gradient-3" x1="383.75" y1="60.72" x2="649.42" y2="555.77" gradientUnits="userSpaceOnUse"><stop offset="0" stop-color="#f8a45b"/><stop offset="0.22" stop-color="#c97f40"/><stop offset="0.47" stop-color="#985825"/><stop offset="0.7" stop-color="#743c11"/><stop offset="0.88" stop-color="#5e2b04"/><stop offset="1" stop-color="#562500"/></linearGradient><linearGradient id="linear-gradient-4" x1="320.17" y1="368.87" x2="321.06" y2="373.67" gradientUnits="userSpaceOnUse"><stop offset="0" stop-color="#f8a45b"/><stop offset="0.39" stop-color="#cc7937"/><stop offset="0.79" stop-color="#a55318"/><stop offset="1" stop-color="#96440c"/></linearGradient><linearGradient id="linear-gradient-5" x1="485.31" y1="203.36" x2="505.71" y2="377.76" xlink:href="#linear-gradient-3"/><linearGradient id="linear-gradient-6" x1="491.96" y1="169.57" x2="491.96" y2="363.86" xlink:href="#linear-gradient-4"/></defs><path class="cls-1" d="M244.68,287.24l.32.17a3.67,3.67,0,0,0,2.94.1L520.59,178.57a3.67,3.67,0,0,0,1.94-1.8,160.92,160.92,0,0,0,6.71-16.45c4.46-13.22,4.25-20.76-.66-23.73l-.38-.22a3.68,3.68,0,0,0-2.89-.21,3.62,3.62,0,0,0-2.14,1.94c-2.93,6.4-9.14,12.72-14.61,17.44a119.79,119.79,0,0,1,19.77-28.36,3.65,3.65,0,0,0,.37-4.5,3.75,3.75,0,0,0-1.16-1.12,3.7,3.7,0,0,0-3.12-.32c-11.1,3.92-18.72,11.82-26.08,19.47-2.72,2.83-5.48,5.69-8.45,8.42a56,56,0,0,0,.42-19.13,3.66,3.66,0,0,0-1.71-2.53,3.6,3.6,0,0,0-1.51-.5,3.65,3.65,0,0,0-3.79,2.28,37.67,37.67,0,0,1-5.71,8.3c2.23-5.09,3.47-8.94,3.59-9.33a3.68,3.68,0,0,0-1.6-4.24l-.25-.13a3.66,3.66,0,0,0-4.61,1.11c-7.11,9.75-18.6,15.16-25.55,17.7,1.93-11.75.16-25.14.07-25.81a3.66,3.66,0,0,0-4.1-3.14A3.68,3.68,0,0,0,442,117.8c0,.39.79,9.49-10.67,17.36,2-8.43,11.44-21.4,19.07-29.57a3.67,3.67,0,0,0,0-5,3.54,3.54,0,0,0-.82-.68,3.68,3.68,0,0,0-4.11.21c-.47.36-11.4,8.64-38.56,32.66-.39-7.54,7.17-15.57,7.26-15.67a3.67,3.67,0,0,0-.06-5.13,3.9,3.9,0,0,0-.69-.54A3.66,3.66,0,0,0,409,112c-.37.35-7.89,7.69-16.34,24.55-3.72-8.55-10.91-18.32-18.68-23-4.23-2.56-8.36-3.48-12.26-2.72A3.66,3.66,0,0,0,360,117.1c5.31,4.79,7.88,10.06,7.87,16.13,0,9.53-6.49,18.75-11.08,24.09-1.34-7-2.64-18.57.7-27.8a3.66,3.66,0,0,0-5.51-4.27c-9.74,6.64-15.16,22.42-17.88,33.51-4.18-11.3-8.13-26.92-3.89-36.23a3.66,3.66,0,0,0-.82-4.18,3.49,3.49,0,0,0-.62-.47,3.64,3.64,0,0,0-3.6-.11c-24.53,12.9-25.59,39.32-23.75,54.9a74.79,74.79,0,0,0-10.78-8c-8.46-5.12-16.4-7-23.58-5.74a3.66,3.66,0,0,0-1.24,6.74c5.93,3.59,10.06,13.56,12.78,23.8a67.54,67.54,0,0,0-11.45-13.67,3.51,3.51,0,0,0-.53-.4,3.69,3.69,0,0,0-4.73.81,10.9,10.9,0,0,0-2,4.48,134.51,134.51,0,0,1-.57-20.7,3.67,3.67,0,0,0-1.77-3.31l-.26-.15a3.66,3.66,0,0,0-4,.47c-18.84,15.69-18.14,50.28-16.46,67.4a120.35,120.35,0,0,0-14.06-10.14c-10-6.06-18.36-8.24-24.78-6.48a3.66,3.66,0,0,0-.93,6.67,3.54,3.54,0,0,0,1,.42,20.83,20.83,0,0,1,5.69,2.44c22.47,13.59,39.16,67.36,39.32,67.9A3.65,3.65,0,0,0,244.68,287.24Z" transform="translate(-195.27 -99.42)"/><path class="cls-2" d="M256.5,237.52s-8.76-48.46,12.43-66.12c-1.88,39.89,14.91,61.78,14.91,61.78s-13-37.49-6.78-45C289.2,198.9,296.47,219,296.47,219s-3-36.85-16.73-45.16c17.13-3.12,35.41,19.08,35.41,19.08s-12.52-40.4,17.54-56.21c-7.12,15.62,7.64,44.85,7.64,44.85S344.25,151.9,357,143.2c-5.05,14,.65,32.63.65,32.63s28.57-25.5,6.88-45.08c12.47-2.41,27.11,22.11,26.11,29.73C399.51,139.6,408.5,131,408.5,131S396.75,143.2,402.82,153c27.26-24.25,38-32.38,38-32.38S419.19,143.88,423,155c17.58-8.71,16-21.58,16-21.58s2.27,16.8-1.34,27.51c0,0,19.68-4.51,30-18.76,0,0-6.35,20.19-16.87,27.9,20.43-13.43,24.94-24.77,24.94-24.77s3.3,19.45-6.88,27.71c17.57-9.52,24.6-27,41.74-33-18.74,20.32-22.59,37.34-22.59,37.34s17.68-11.58,23.36-24c7.08,3.69-6.51,31.82-6.51,31.82L260.84,282.69s-18.12-59.15-42.64-65.19C232.2,213.66,256.5,237.52,256.5,237.52Z" transform="translate(-195.27 -99.42)"/><path class="cls-3" d="M355.79,339.18l.22-.24a3.3,3.3,0,0,1,2.48-.9L622,354.69a3.32,3.32,0,0,1,2.17,1,144.58,144.58,0,0,1,10.34,12.17c7.51,10,9.45,16.54,6.09,20.45l-.27.29a3.29,3.29,0,0,1-4.78-.06c-4.3-4.64-11.38-8.31-17.37-10.8A107.85,107.85,0,0,0,643,396.43a3.3,3.3,0,0,1,1.58,3.74,3.22,3.22,0,0,1-.68,1.28,3.28,3.28,0,0,1-2.58,1.15c-10.58-.23-19.3-4.85-27.73-9.33-3.12-1.65-6.28-3.32-9.58-4.82a50.67,50.67,0,0,1,5.72,16.23,3.3,3.3,0,0,1-5.79,2.6,33.1,33.1,0,0,0-7.19-5.49,87.45,87.45,0,0,1,5.67,7,3.29,3.29,0,0,1-.17,4.06L602,413a3.28,3.28,0,0,1-4.25.34c-8.8-6.34-20.14-7.74-26.78-8,4.93,9.5,7.18,21.43,7.29,22a3.29,3.29,0,0,1-.74,2.74,3.24,3.24,0,0,1-1.89,1.09,3.29,3.29,0,0,1-3.85-2.6c-.07-.35-2-8.33-14-11.84,4.09,6.63,15.77,15.07,24.58,19.92a3.29,3.29,0,0,1,1.42,4.22,3.37,3.37,0,0,1-.51.81,3.29,3.29,0,0,1-3.57,1c-.5-.17-12.16-4.18-42.09-17.09,1.78,6.55,10.49,11.29,10.59,11.35a3.3,3.3,0,0,1,1.39,4.4,3.79,3.79,0,0,1-.44.66,3.31,3.31,0,0,1-3.93.82c-.41-.2-8.89-4.36-20.84-16.4-.78,8.35-4.18,18.72-9.5,24.9-2.9,3.38-6.17,5.32-9.71,5.77a3.3,3.3,0,0,1-3.27-4.91c3.19-5.58,3.91-10.81,2.21-16-2.69-8.14-10.81-14.2-16.22-17.47.82,6.37,2.95,16.6,8.38,23.55a3.29,3.29,0,0,1,.14,3.87,3.55,3.55,0,0,1-.23.31,3.33,3.33,0,0,1-3.42,1c-10.18-2.94-19.23-14.9-24.66-23.62-.41,10.83.6,25.28,6.83,32a3.28,3.28,0,0,1,.47,3.8,2.94,2.94,0,0,1-.39.58,3.31,3.31,0,0,1-3.05,1.1c-24.57-4.14-32.88-26.42-35.68-40.24a68.41,68.41,0,0,1-6.95,9.88c-5.8,6.75-12,10.62-18.54,11.51a3.29,3.29,0,0,1-3-5.41c4.06-4.73,4.8-14.41,4.25-23.91a61.64,61.64,0,0,1-5.95,14.89,4.14,4.14,0,0,1-.34.48,3.31,3.31,0,0,1-4.27.63,9.79,9.79,0,0,1-3-3.26,122.79,122.79,0,0,0,5.32,17.85,3.31,3.31,0,0,1-.58,3.32,1.8,1.8,0,0,1-.19.2,3.29,3.29,0,0,1-3.53.72c-20.49-8.13-29.58-37.87-32.95-53a108.72,108.72,0,0,1-9.16,12.6c-6.87,8-13.38,12.19-19.37,12.48a3.3,3.3,0,0,1-2.66-5.44,3.57,3.57,0,0,1,.75-.64,18.64,18.64,0,0,0,4.19-3.68c15.38-17.91,14.57-68.52,14.56-69A3.31,3.31,0,0,1,355.79,339.18Z" transform="translate(-195.27 -99.42)"/><path class="cls-2" d="M375.24,386.4s6.43,46.26,30.74,55.9c-13.49-35.38-4.82-60.06-4.82-60.06s-.6,37.6,7.19,42.56c7.76-13.26,8.38-33.51,8.38-33.51s8.19,34.09-1.73,45.63c16.35-2.25,26.26-27.65,26.26-27.65s.66,40.09,32.42,45.45c-11-12-6.37-42.66-6.37-42.66s12.3,25.55,26.36,29.62c-8.67-11.07-9.06-29.59-9.06-29.59s33.28,14.53,19.52,38.58c12-1.51,17.89-27.93,14.74-34.5,14.15,16.2,24.8,21.31,24.8,21.31s-14.2-7.54-11.64-18.19c31.73,13.78,43.85,17.93,43.85,17.93s-26.39-14.53-26.22-25.67c18.41,2.65,20.77,14.71,20.77,14.71s-2.92-15.79-9.33-24.38c0,0,19-1.75,32.61,8,0,0-11.69-16.31-23.45-20.15,22.38,6.07,29.8,14.95,29.8,14.95s-2.77-18.5-14.4-22.94c18.65,3.39,30.14,17,47.37,17.41-22.89-12.77-31.38-27-31.38-27s19.34,5.21,28.12,14.7c5.29-5.42-15.27-26.74-15.27-26.74L365.81,344.43s1.15,58.64-19.16,71.33C360.4,415.08,375.24,386.4,375.24,386.4Z" transform="translate(-195.27 -99.42)"/><path class="cls-4" d="M625.82,402.3c-14.28-1.25-27.86-13.11-42.16-13.94s-29,9.37-43.36,8.95-28.5-11.46-42.83-11.46-28.5,11-42.82,11.46-29.06-9.78-43.36-8.95-27.88,12.69-42.16,13.94c-10.17.87-19.86-10.33-29.65-12-10-1.68-22.51,5.74-31.71,1.7s-13-18.69-21.1-24.94-22.47-5.76-28.86-13.92-3.05-22.77-7.29-32.47c-4.11-9.4-16.9-16.32-18.65-27,0-.15-.12-.83-.15-1l-.14-.91c0-.15-.1-.68-.12-.83-1.87-11.34,8.29-22.71,9.91-33.66,1.65-11.1-4.71-25.13.12-35.22,4.74-9.91,19.29-13.06,26.69-21.42,7.15-8.06,8.94-23.55,18.2-29.64,8.84-5.81,22.89-.86,33.34-4.41,9.86-3.36,18.35-16.16,29.38-17.12,16.41-1.44,33.54,8.18,50,7.22s32.45-12.51,48.9-13,33,10.12,49.5,10.12,33.06-10.59,49.51-10.12,32.47,12,48.9,13,33.56-8.66,50-7.22c11,1,19.52,13.76,29.38,17.12,10.45,3.55,24.5-1.4,33.34,4.41,9.26,6.09,11,21.58,18.19,29.64,7.41,8.36,22,11.51,26.7,21.42,4.83,10.1-1.53,24.12.12,35.22s11.77,22.32,9.91,33.66c0,.15-.1.68-.13.83l-.13.92c0,.15-.13.83-.15,1-1.75,10.66-14.54,17.58-18.65,27-4.24,9.69-1,24.36-7.3,32.46s-20.77,7.65-28.85,13.92-11.8,20.85-21.1,24.94-21.71-3.38-31.71-1.7C645.68,392,636,403.17,625.82,402.3Z" transform="translate(-195.27 -99.42)"/><path class="cls-5" d="M336,370.81c-9.7-1.55-21.79,5.28-30.69,1.57" transform="translate(-195.27 -99.42)"/><path class="cls-6" d="M708.2,256.46a92.8,92.8,0,0,1-1.06,12c-7.75,49.89-48.41,84.47-93.25,84.47-2.78,0-5.58-.14-8.38-.4a1168.26,1168.26,0,0,0-227.94,0c-48,4.63-93.38-31.09-101.61-84.07a92.79,92.79,0,0,1-1.06-12A96.37,96.37,0,0,1,362,164.08a1328.55,1328.55,0,0,1,259.07,0A96.39,96.39,0,0,1,708.2,256.46Z" transform="translate(-195.27 -99.42)"/><path class="cls-7" d="M701.75,250.34a73,73,0,0,1-1.09,12.46c-7.48,43.76-46.85,74.05-90.26,74.05-2.7,0-5.4-.1-8.1-.34a1248.89,1248.89,0,0,0-220.65,0c-36.93,3.22-72.25-15.88-89.21-47.12a86.22,86.22,0,0,1-9.18-26.59,75.47,75.47,0,0,1-1.08-12.56c0-41.67,35.18-79.23,84.39-83.6a1423.17,1423.17,0,0,1,250.79,0C666.64,171,701.8,208.65,701.75,250.34Z" transform="translate(-195.27 -99.42)"/><path class="cls-8" d="M292.44,289.39c133,36.76,376-.17,409.31-39" transform="translate(-195.27 -99.42)"/><text class="cls-9" transform="translate(156.41 192.62)">IGRAJ</text></svg>