<svg xmlns="http://www.w3.org/2000/svg" xmlns:xlink="http://www.w3.org/1999/xlink" viewBox="0 0 398.93 388.83"><defs><style>.cls-1{isolation:isolate;}.cls-2{fill:url(#linear-gradient);}.cls-3{fill:#318063;}.cls-4{fill:url(#linear-gradient-2);}.cls-5{fill:url(#linear-gradient-3);}.cls-6{fill:url(#linear-gradient-4);}.cls-7{fill:url(#linear-gradient-5);}.cls-8{fill:url(#linear-gradient-6);}.cls-9{fill:url(#linear-gradient-7);}.cls-10{fill:url(#linear-gradient-8);}.cls-11{fill:#562500;}.cls-12{mix-blend-mode:hard-light;}.cls-13,.cls-14{font-size:200px;font-family:RobotoCondensed-Bold, Roboto Condensed;font-weight:700;}.cls-13{fill:#38240f;}.cls-14{fill:#fff;}</style><linearGradient id="linear-gradient" x1="569.13" y1="483.91" x2="576.43" y2="239.65" gradientUnits="userSpaceOnUse"><stop offset="0" stop-color="#95d543"/><stop offset="0.26" stop-color="#72b74e"/><stop offset="0.58" stop-color="#4f9959"/><stop offset="0.83" stop-color="#398760"/><stop offset="1" stop-color="#318063"/></linearGradient><linearGradient id="linear-gradient-2" x1="382.91" y1="478.34" x2="390.21" y2="234.09" xlink:href="#linear-gradient"/><linearGradient id="linear-gradient-3" x1="444.21" y1="170.59" x2="551.03" y2="413.28" gradientUnits="userSpaceOnUse"><stop offset="0" stop-color="#f8a45b"/><stop offset="0.22" stop-color="#c97f40"/><stop offset="0.47" stop-color="#985825"/><stop offset="0.7" stop-color="#743c11"/><stop offset="0.88" stop-color="#5e2b04"/><stop offset="1" stop-color="#562500"/></linearGradient><linearGradient id="linear-gradient-4" x1="432.41" y1="148.72" x2="553.81" y2="393.38" gradientUnits="userSpaceOnUse"><stop offset="0" stop-color="#f8a45b"/><stop offset="0.39" stop-color="#cc7937"/><stop offset="0.79" stop-color="#a55318"/><stop offset="1" stop-color="#96440c"/></linearGradient><linearGradient id="linear-gradient-5" x1="358.52" y1="198.82" x2="360.4" y2="223.65" gradientUnits="userSpaceOnUse"><stop offset="0.38" stop-color="#96440c"/><stop offset="0.4" stop-color="#9a4810"/><stop offset="0.5" stop-color="#b76427"/></linearGradient><linearGradient id="linear-gradient-6" x1="483.22" y1="255.1" x2="487.9" y2="290.24" xlink:href="#linear-gradient-5"/><linearGradient id="linear-gradient-7" x1="566.56" y1="318.23" x2="572.22" y2="343.01" xlink:href="#linear-gradient-5"/><linearGradient id="linear-gradient-8" x1="537.58" y1="138.87" x2="544.61" y2="172.6" xlink:href="#linear-gradient-5"/></defs><g class="cls-1"><g id="Layer_1" data-name="Layer 1"><path class="cls-2" d="M601.85,198.82l-.31.05a3.19,3.19,0,0,0-2.07,1.51L470.93,421.72a3.19,3.19,0,0,0-.36,2.28,140,140,0,0,0,4.24,14.9c4,11.47,8.24,16.53,13.2,15.93l.38-.06a3.2,3.2,0,0,0,2.53-3.89c-1.43-6-.57-13.64.65-19.82a104.22,104.22,0,0,1,1.67,30.09,3.19,3.19,0,0,0,3.57,3.43,3.16,3.16,0,0,0,2.31-1.46c5.52-8.65,6.49-18.17,7.43-27.38.35-3.4.7-6.85,1.28-10.32a48.86,48.86,0,0,0,10,13.36,3.2,3.2,0,0,0,2.54.81,3.24,3.24,0,0,0,1.31-.47,3.2,3.2,0,0,0,1.37-3.61,31.73,31.73,0,0,1-.55-8.75,83.58,83.58,0,0,0,2.56,8.33,3.19,3.19,0,0,0,3.37,2l.24,0a3.18,3.18,0,0,0,2.57-3.24c-.37-10.51,4.62-20.41,8-25.88,5,9.1,13.41,17.34,13.83,17.75a3.21,3.21,0,0,0,2.62.88,3.15,3.15,0,0,0,1.89-.93,3.2,3.2,0,0,0,0-4.51c-.24-.25-5.64-6.08-2-17.65,3.14,6.87,3.65,20.84,2.81,30.55a3.19,3.19,0,0,0,2.63,3.42,3.3,3.3,0,0,0,.94,0,3.2,3.2,0,0,0,2.7-2.35c.13-.5,3.17-12,8.9-43.14,4.32,5,3.45,14.54,3.44,14.66a3.19,3.19,0,0,0,2.8,3.48,3.3,3.3,0,0,0,.77,0,3.2,3.2,0,0,0,2.78-2.72c.06-.44,1.28-9.51-2-25.63,7.15,3.87,17.34,6.71,25.19,5.76,4.29-.52,7.61-2.11,9.88-4.72a3.19,3.19,0,0,0-2.19-5.28c-6.22-.44-10.83-2.67-14.08-6.84-5.11-6.55-5.63-16.36-5.34-22.49,4.69,4.1,11.79,11.32,14.46,19.45a3.19,3.19,0,0,0,3,2.2,2.31,2.31,0,0,0,.37,0,3.18,3.18,0,0,0,2.66-2.2c3.11-9.79-1.65-23.53-5.75-32.61,8.94,5.51,20,14.11,22.14,22.77a3.18,3.18,0,0,0,2.81,2.43,2.57,2.57,0,0,0,.68,0,3.16,3.16,0,0,0,2.53-1.86c9.9-22-3.58-40.74-13.21-50.44a65.75,65.75,0,0,0,11.71-.28c8.56-1,15-4,19.28-8.74a3.19,3.19,0,0,0-2.78-5.29c-6,.72-14.2-3.9-21.56-9.47a59,59,0,0,0,15.2,3.23,2.82,2.82,0,0,0,.58,0,3.19,3.19,0,0,0,2.81-3.09,9.43,9.43,0,0,0-1-4.16A117.83,117.83,0,0,1,660.26,294a3.22,3.22,0,0,0,3,1.33l.26,0a3.18,3.18,0,0,0,2.48-2.46c4.5-20.9-14.58-44.25-24.94-55.1a104.39,104.39,0,0,0,15.1-.6c10.14-1.22,17-4.21,20.5-8.88a3.19,3.19,0,0,0-2.95-5.07,2.81,2.81,0,0,0-.93.26,18,18,0,0,1-5.22,1.38c-22.73,2.75-63.08-25.17-63.49-25.45A3.15,3.15,0,0,0,601.85,198.82Z" transform="translate(-278.35 -75.78)"/><path class="cls-3" d="M490.77,410.32s-6.33,18.7-3.37,31.08" transform="translate(-278.35 -75.78)"/><path class="cls-4" d="M497.67,398.19a3.16,3.16,0,0,1-1.21,1.93c-.4.3-39.6,29.85-44.13,52.27a17.63,17.63,0,0,0-.32,5.39,3.42,3.42,0,0,1-.05,1,3.2,3.2,0,0,1-5.75,1.2c-3.34-4.75-4-12.24-2-22.25a104.86,104.86,0,0,1,4.18-14.52c-13.56,6.43-41.72,17.19-60.15,6.36a3.21,3.21,0,0,1-1.56-3.13c0-.09,0-.18,0-.26a3.2,3.2,0,0,1,2.2-2.42,119.51,119.51,0,0,0,16.82-6.57,9.37,9.37,0,0,1-4.27-.34,3.17,3.17,0,0,1-1.83-1.69,3.12,3.12,0,0,1-.22-1.95,2.66,2.66,0,0,1,.16-.55,59.52,59.52,0,0,1,7.83-13.4c-7.59,5.24-14.55,11.57-15.75,17.48a3.19,3.19,0,0,1-5.89,1c-3.2-5.51-4-12.59-2.24-21A66.43,66.43,0,0,1,387,385.42c-12.23,6.09-34.22,13-52-3.32a3.19,3.19,0,0,1-1-3,3.08,3.08,0,0,1,.21-.65,3.2,3.2,0,0,1,3.19-1.91c8.88.74,20.54-7.1,28.57-13.85-9.9,1-24.44,1.23-32.76-4.8a3.19,3.19,0,0,1-1.25-3.22,2.37,2.37,0,0,1,.09-.36,3.18,3.18,0,0,1,3.05-2.2c8.55,0,17.64-4.45,23-7.62-5.73-2.19-15.21-4.79-23-2-5,1.78-8.55,5.45-10.92,11.22a3.2,3.2,0,0,1-5.7.42c-1.77-3-2.23-6.63-1.38-10.86,1.57-7.76,7.47-16.54,13.39-22.11-16.33-2-24.56-6-25-6.17a3.2,3.2,0,0,1-1.71-3.49,2.94,2.94,0,0,1,.25-.74,3.19,3.19,0,0,1,4.19-1.55c.1,0,8.92,3.88,15,1.34-27.71-15.21-37.72-21.73-38.16-22a3.19,3.19,0,0,1-1.06-4.19A3.19,3.19,0,0,1,288,283c8.95,3.84,22.37,7.75,29.88,6.93-10-7.22-17.31-3.68-17.39-3.64a3.2,3.2,0,0,1-4.29-1.4,3.26,3.26,0,0,1-.29-2.09,3.21,3.21,0,0,1,1.66-2.2c.53-.27,11-5.66,21.19-7.54-4.14-5-12-12.81-22-15.75a3.2,3.2,0,0,1-2.27-3.46,2,2,0,0,1,0-.24,3.2,3.2,0,0,1,3-2.56c.35,0,3.88-.14,8.71.2a31.88,31.88,0,0,0-8.51-2.24,3.2,3.2,0,0,1-3-3.84A3.15,3.15,0,0,1,296.3,243a49,49,0,0,1,15.82-5.28c-3.11-1.64-6.28-3.06-9.39-4.46-8.45-3.79-17.18-7.71-23.66-15.66a3.19,3.19,0,0,1,3.72-5,104.55,104.55,0,0,0,29.09,7.87c-5.48-3.1-12.5-6.33-18.61-6.85a3.24,3.24,0,0,1-2.23-1.19,3.17,3.17,0,0,1-.67-2.43c0-.13,0-.25.07-.38,1-4.9,7.11-7.29,19.27-7.53a140.31,140.31,0,0,1,15.47.66,3.23,3.23,0,0,1,2.06,1.06L496.93,395.44a3.19,3.19,0,0,1,.79,2.45C497.71,398,497.69,398.09,497.67,398.19Z" transform="translate(-278.35 -75.78)"/><path class="cls-3" d="M301.08,210.11c12.69,1.08,28.45,13,28.45,13s-16.17,2-39.95-8.07c10.73,13.16,28.27,13.84,42.19,26.28-10.48-6.35-26.53,2.69-26.53,2.69s11.39.39,29.65,14.11c-10.1-6.81-29.85-6-29.85-6,15.79,4.62,26,20.49,26,20.49-10.56.21-24.6,7.5-24.6,7.5s10.8-5.46,24,7.24c-8.56,6.88-35.82-4.84-35.82-4.84s10.55,6.91,40.47,23.22c-6.73,8.44-21.18,2-21.18,2s10.42,5.18,31.57,6.37c-7,1.53-23.95,22.14-17.89,32.34,10.36-25.25,41.8-8.18,41.8-8.18s-14.63,10.9-28.48,10.87c11.67,8.47,39,2.56,39,2.56s-21,22.2-37,20.87c23.39,21.44,54.95-2.32,54.95-2.32s-13.74,23.08-5.59,37.15c3-14.69,34.41-29,34.41-29s-15.37,12.73-21,26.79c8.56,3.06,37.43-20.17,37.43-20.17s-13.94,21.67-49.6,32.6c22.21,13.06,62-9.94,62-9.94s-13.31,28.9-5.51,40c-2.43-23.47,43.84-58.07,43.84-58.07L331.11,205.79S302.1,202.72,301.08,210.11Z" transform="translate(-278.35 -75.78)"/><path class="cls-5" d="M589.06,136.11c10.12,10.12,30.17,12.91,37.38,25.38,7.12,12.29-.42,31,3.33,45,3.63,13.57,19.62,26,19.62,40.69s-16,27.12-19.62,40.69c-3.75,14,3.79,32.76-3.33,45.05-7.21,12.47-27.26,15.26-37.38,25.38s-12.91,30.17-25.38,37.38c-12.29,7.11-31-.42-45,3.33-13.57,3.63-26,19.62-40.69,19.62s-27.12-16-40.69-19.62c-14-3.75-32.76,3.78-45.05-3.33-12.47-7.21-15.26-27.26-25.38-37.38S336.65,345.44,329.44,333c-7.11-12.29.42-31-3.33-45.05-3.63-13.57-19.62-26-19.62-40.69s16-27.12,19.62-40.69c3.75-14-3.78-32.76,3.33-45,7.21-12.47,27.26-15.26,37.38-25.38s12.91-30.17,25.38-37.38c12.29-7.12,31,.42,45.05-3.33,13.57-3.63,26-19.62,40.69-19.62s27.12,16,40.69,19.62c14,3.75,32.76-3.79,45,3.33" transform="translate(-278.35 -75.78)"/><path class="cls-6" d="M618.8,275.09c-3.53,13.19,3.55,30.78-3.13,42.33-6.77,11.71-25.61,14.34-35.12,23.85s-12.13,28.34-23.84,35.11c-11.55,6.68-29.15-.4-42.33,3.13C501.63,382.92,490,398,476.15,398s-25.49-15-38.23-18.44c-13.19-3.53-30.78,3.55-42.32-3.13-11.72-6.77-14.35-25.61-23.85-35.12s-28.35-12.13-35.12-23.84c-6.68-11.55.4-29.14-3.13-42.33-3.41-12.74-18.43-24.41-18.43-38.22,0-7.18,4.05-13.77,8.42-20.23,3-4.39,6.07-8.72,8.17-13.13a29,29,0,0,0,1.84-4.87c3.53-13.19-3.55-30.79,3.13-42.33,6.77-11.72,25.61-14.35,35.12-23.85s12.13-28.35,23.85-35.12c11.54-6.68,29.13.4,42.32-3.13,12.74-3.41,24.41-18.43,38.23-18.43s25.48,15,38.22,18.43c13.19,3.53,30.79-3.55,42.34,3.13,11.18,6.47,14.08,23.92,22.6,33.76.39.47.81.92,1.25,1.36,6.81,6.82,18.43,10.1,27,15.73a24.65,24.65,0,0,1,8.16,8.12c6.68,11.54-.4,29.14,3.13,42.33,3.41,12.74,18.44,24.4,18.44,38.23S622.21,262.35,618.8,275.09Z" transform="translate(-278.35 -75.78)"/><path class="cls-7" d="M393,210.44c-22.69,3.62-51,5.38-69.47,6.2,3-4.39,6.07-8.72,8.17-13.13a579.24,579.24,0,0,0,60.67.85A3.06,3.06,0,0,1,393,210.44Z" transform="translate(-278.35 -75.78)"/><path class="cls-8" d="M638.83,247.74a63.32,63.32,0,0,1-6.23,10.93c-173.44,4.93-257.81,37-296.48,60a29.09,29.09,0,0,1-2.28-12.21c2.82-3.32,5.92-6.94,9.34-10.89C439,258.28,588,249.65,638.83,247.74Z" transform="translate(-278.35 -75.78)"/><path class="cls-9" d="M622.06,306.09c0,5.11-.69,9.94-3,14a19.13,19.13,0,0,1-2.49,3.38c-16.72,4.3-59.52,14.58-100.74,18.66a2.27,2.27,0,0,1-.64-4.49C557.2,329.9,599.46,314.87,622.06,306.09Z" transform="translate(-278.35 -75.78)"/><path class="cls-10" d="M610.79,149c-21.46,5.71-82.82,20.73-135.61,21a2.7,2.7,0,0,1-.52-5.35c42.11-7.91,84.95-23.31,108.05-32.35.26.28.52.56.79.83C590.41,140,602.16,143.3,610.79,149Z" transform="translate(-278.35 -75.78)"/><path class="cls-11" d="M445.16,213.2" transform="translate(-278.35 -75.78)"/><path class="cls-11" d="M459,207.44" transform="translate(-278.35 -75.78)"/><path class="cls-11" d="M486,209.84" transform="translate(-278.35 -75.78)"/><path class="cls-11" d="M499.35,186.86" transform="translate(-278.35 -75.78)"/><g class="cls-12"><text class="cls-13" transform="translate(147.33 232.25)">A</text></g><text class="cls-14" transform="translate(142.33 228.25)">A</text></g></g></svg>