<svg id="Layer_1" data-name="Layer 1" xmlns="http://www.w3.org/2000/svg" xmlns:xlink="http://www.w3.org/1999/xlink" viewBox="0 0 292.22 317.51"><defs><style>.cls-1{fill:url(#linear-gradient);}.cls-2{fill:#318063;}.cls-3{fill:url(#linear-gradient-2);}.cls-4{fill:url(#linear-gradient-3);}.cls-5{fill:url(#linear-gradient-4);}.cls-6{fill:url(#linear-gradient-5);}.cls-7{fill:url(#linear-gradient-6);}.cls-8{fill:url(#linear-gradient-7);}.cls-9{fill:url(#linear-gradient-8);}.cls-10{fill:url(#linear-gradient-9);}.cls-11{fill:#5a2903;}.cls-12{stroke:#42210b;stroke-miterlimit:10;stroke-width:3px;fill:url(#linear-gradient-10);}</style><linearGradient id="linear-gradient" x1="1043.8" y1="-1281.49" x2="1186.38" y2="-1296.11" gradientTransform="matrix(0.57, -0.82, 0.82, 0.57, 824.56, 2025.21)" gradientUnits="userSpaceOnUse"><stop offset="0" stop-color="#95d543"/><stop offset="0.26" stop-color="#72b74e"/><stop offset="0.58" stop-color="#4f9959"/><stop offset="0.83" stop-color="#398760"/><stop offset="1" stop-color="#318063"/></linearGradient><linearGradient id="linear-gradient-2" x1="3597.82" y1="-1083.37" x2="3740.39" y2="-1097.98" gradientTransform="matrix(-0.67, -0.74, 0.74, -0.67, 3824.14, 2354.09)" xlink:href="#linear-gradient"/><linearGradient id="linear-gradient-3" x1="1503.07" y1="-1602.77" x2="1645.65" y2="-1617.38" gradientTransform="matrix(0.57, 0.82, 0.82, -0.57, 824.56, -2024.89)" xlink:href="#linear-gradient"/><linearGradient id="linear-gradient-4" x1="4012.42" y1="-706.26" x2="4154.99" y2="-720.87" gradientTransform="matrix(-0.67, 0.74, 0.74, 0.67, 3824.14, -2353.77)" xlink:href="#linear-gradient"/><linearGradient id="linear-gradient-5" x1="454" y1="212.36" x2="540.61" y2="409.15" gradientUnits="userSpaceOnUse"><stop offset="0" stop-color="#f8a45b"/><stop offset="0.22" stop-color="#c97f40"/><stop offset="0.47" stop-color="#985825"/><stop offset="0.7" stop-color="#743c11"/><stop offset="0.88" stop-color="#5e2b04"/><stop offset="1" stop-color="#562500"/></linearGradient><linearGradient id="linear-gradient-6" x1="692.33" y1="428.48" x2="425.64" y2="225.06" gradientUnits="userSpaceOnUse"><stop offset="0" stop-color="#f8a45b"/><stop offset="0.39" stop-color="#cc7937"/><stop offset="0.79" stop-color="#a55318"/><stop offset="1" stop-color="#96440c"/></linearGradient><linearGradient id="linear-gradient-7" x1="384.53" y1="235.26" x2="386.05" y2="255.39" gradientUnits="userSpaceOnUse"><stop offset="0.38" stop-color="#96440c"/><stop offset="0.4" stop-color="#9a4810"/><stop offset="0.5" stop-color="#b76427"/></linearGradient><linearGradient id="linear-gradient-8" x1="485.63" y1="280.89" x2="489.43" y2="309.38" xlink:href="#linear-gradient-7"/><linearGradient id="linear-gradient-9" x1="529.71" y1="186.65" x2="535.41" y2="214" xlink:href="#linear-gradient-7"/><linearGradient id="linear-gradient-10" x1="404.61" y1="241.18" x2="555.15" y2="293.01" gradientUnits="userSpaceOnUse"><stop offset="0.3" stop-color="#5ebe43"/><stop offset="0.48" stop-color="#60b33e"/><stop offset="0.79" stop-color="#649631"/><stop offset="0.92" stop-color="#66872a"/><stop offset="0.93" stop-color="#66872a"/></linearGradient></defs><path class="cls-1" d="M373.89,300.77h.18a1.89,1.89,0,0,1,1.38.6l102.31,109.9a1.84,1.84,0,0,1,.5,1.26,79.7,79.7,0,0,1-.48,9.07c-.83,7.09-2.57,10.53-5.49,10.83l-.22,0a1.88,1.88,0,0,1-1.95-1.9c0-3.6-1.45-7.88-2.95-11.25a61,61,0,0,0,2.95,17.43,1.87,1.87,0,0,1-3.1,1.89c-4.28-4.23-6.08-9.55-7.81-14.69-.64-1.91-1.29-3.83-2.08-5.74a28.77,28.77,0,0,1-4,8.94,1.89,1.89,0,0,1-1.35.79,1.74,1.74,0,0,1-.81-.1,1.85,1.85,0,0,1-1.25-1.88,19,19,0,0,0-.83-5.08,51,51,0,0,1-.38,5.1,1.86,1.86,0,0,1-1.66,1.6h-.15a1.87,1.87,0,0,1-1.89-1.52c-1.15-6.06-5.29-11.07-7.95-13.76a51.3,51.3,0,0,1-5.6,12,1.85,1.85,0,0,1-1.38.84,1.79,1.79,0,0,1-1.2-.28,1.86,1.86,0,0,1-.57-2.58c.1-.18,2.43-4.22-1.15-10.36-.9,4.34.62,12.39,2.36,17.84a1.87,1.87,0,0,1-1.06,2.3,2,2,0,0,1-.53.13,1.87,1.87,0,0,1-1.85-1c-.14-.27-3.39-6.49-10.71-23.52-1.82,3.4-.08,8.76-.06,8.83A1.88,1.88,0,0,1,414,418.8a2.16,2.16,0,0,1-.44.1,1.88,1.88,0,0,1-1.94-1.2c-.09-.24-2-5.27-2.19-14.92-3.59,3.14-9.05,6.09-13.67,6.57a8.77,8.77,0,0,1-6.26-1.42,1.87,1.87,0,0,1,.57-3.3c3.5-1.06,5.84-2.94,7.16-5.75,2.08-4.41,1.09-10.08.14-13.55-2.16,2.95-5.28,8-5.75,13a1.89,1.89,0,0,1-1.46,1.66l-.21,0a1.87,1.87,0,0,1-1.81-.91c-3.06-5.2-2.12-13.68-.95-19.4-4.4,4.31-9.64,10.67-9.71,15.9a1.88,1.88,0,0,1-1.29,1.76,1.8,1.8,0,0,1-.39.08,1.88,1.88,0,0,1-1.69-.74c-8.53-11.32-3.25-23.77,1-30.57a38.59,38.59,0,0,1-6.74,1.36c-5,.52-9.12-.32-12.16-2.49a1.87,1.87,0,0,1,.9-3.39c3.53-.37,7.62-4.08,11.11-8.22a34.6,34.6,0,0,1-8.28,3.83l-.33.06a1.88,1.88,0,0,1-1.13-.24,1.84,1.84,0,0,1-.88-1.17,5.48,5.48,0,0,1,0-2.51,69.86,69.86,0,0,0-4.78,9.45,1.89,1.89,0,0,1-1.54,1.15h-.15a1.87,1.87,0,0,1-1.74-1.09c-5.29-11.37,2.59-27.21,7.1-34.76a60.36,60.36,0,0,1-8.71,1.62c-6,.62-10.29-.2-12.88-2.41a1.87,1.87,0,0,1,1-3.29,1.78,1.78,0,0,1,.56,0,10.64,10.64,0,0,0,3.17.11c13.35-1.38,32.81-22.6,33-22.81A1.89,1.89,0,0,1,373.89,300.77Z" transform="translate(-334.27 -121.64)"/><path class="cls-2" d="M462.44,404.73s5.65,9.22,5.57,16.19" transform="translate(-334.27 -121.64)"/><path class="cls-2" d="M452.64,402.55c6.05,8.24,5.49,17.84,12.1,24.38-4.23-13.49-2.3-22.2-2.3-22.2" transform="translate(-334.27 -121.64)"/><path class="cls-3" d="M470.65,390.7a.57.57,0,0,1,0-.18,1.87,1.87,0,0,1,.89-1.22l129.75-75.56a1.84,1.84,0,0,1,1.34-.21A83.43,83.43,0,0,1,611.4,316c6.73,2.37,9.7,4.83,9.35,7.74l0,.22a1.89,1.89,0,0,1-2.28,1.49c-3.5-.84-8-.33-11.63.39a61.09,61.09,0,0,0,17.66,1,1.87,1.87,0,0,1,1.92,1.27,1.78,1.78,0,0,1,.09.82,1.89,1.89,0,0,1-.85,1.36c-5.08,3.24-10.66,3.82-16.06,4.38-2,.2-4,.41-6.05.75a28.76,28.76,0,0,1,7.84,5.86,1.85,1.85,0,0,1,.47,1.48,1.82,1.82,0,0,1-.27.77,1.88,1.88,0,0,1-2.11.81,18.8,18.8,0,0,0-5.14-.31c2.75.7,4.69,1.42,4.89,1.49a1.87,1.87,0,0,1,1.2,2,.78.78,0,0,1,0,.14,1.88,1.88,0,0,1-1.9,1.51c-6.17-.21-12,2.72-15.18,4.72a51.66,51.66,0,0,1,10.42,8.09,1.88,1.88,0,0,1,.52,1.54,1.91,1.91,0,0,1-.54,1.11,1.89,1.89,0,0,1-2.65,0c-.14-.14-3.57-3.31-10.35-1.17,4,1.84,12.22,2.13,17.92,1.63a1.87,1.87,0,0,1,2,1.54,2,2,0,0,1,0,.55,1.88,1.88,0,0,1-1.38,1.59c-.29.08-7.07,1.87-25.3,5.25,2.92,2.53,8.53,2,8.6,2a1.88,1.88,0,0,1,2.05,1.64,1.69,1.69,0,0,1,0,.45,1.88,1.88,0,0,1-1.59,1.63c-.26,0-5.58.76-15-1.15,2.27,4.19,3.95,10.17,3.4,14.78a8.85,8.85,0,0,1-2.77,5.8,1.88,1.88,0,0,1-3.1-1.29c-.26-3.64-1.57-6.34-4-8.25-3.84-3-9.6-3.29-13.2-3.12,2.41,2.75,6.65,6.91,11.42,8.47a1.88,1.88,0,0,1,1.3,1.79,1.64,1.64,0,0,1,0,.22,1.86,1.86,0,0,1-1.29,1.56c-5.74,1.83-13.81-.95-19.13-3.35,3.23,5.24,8.29,11.75,13.37,13a1.89,1.89,0,0,1,1.43,1.65,1.79,1.79,0,0,1,0,.4,1.84,1.84,0,0,1-1.09,1.48c-12.92,5.83-23.9-2.07-29.6-7.71a38.2,38.2,0,0,1-.15,6.87c-.61,5-2.33,8.83-5.12,11.31a1.87,1.87,0,0,1-3.1-1.62c.42-3.52-2.3-8.33-5.57-12.65a35,35,0,0,1,1.9,8.92,1.29,1.29,0,0,1,0,.34,1.79,1.79,0,0,1-.48,1,1.83,1.83,0,0,1-1.33.61,5.53,5.53,0,0,1-2.44-.6,68.15,68.15,0,0,0,8.16,6.75,1.87,1.87,0,0,1,.78,1.75.88.88,0,0,1,0,.16,1.88,1.88,0,0,1-1.44,1.45c-12.26,2.65-26-8.52-32.35-14.59a60,60,0,0,1-.34,8.86c-.71,6-2.46,10-5.19,12a1.87,1.87,0,0,1-3-1.73,1.74,1.74,0,0,1,.15-.54,10.79,10.79,0,0,0,.81-3.07c1.6-13.33-14.81-37-15-37.22A1.87,1.87,0,0,1,470.65,390.7Z" transform="translate(-334.27 -121.64)"/><path class="cls-2" d="M525,417.41c-16.67-11.8-20.2-25.46-20.2-25.46" transform="translate(-334.27 -121.64)"/><path class="cls-4" d="M373.89,260h.18a1.89,1.89,0,0,0,1.38-.6l102.31-109.9a1.88,1.88,0,0,0,.5-1.26,79.7,79.7,0,0,0-.48-9.07c-.83-7.09-2.57-10.53-5.49-10.84h-.22a1.88,1.88,0,0,0-1.95,1.89c0,3.6-1.45,7.88-2.95,11.26a61,61,0,0,1,2.95-17.43,1.89,1.89,0,0,0-1.59-2.43,1.9,1.9,0,0,0-1.51.53c-4.28,4.24-6.08,9.56-7.81,14.7-.64,1.9-1.29,3.83-2.08,5.74a28.64,28.64,0,0,0-4-8.94,1.86,1.86,0,0,0-1.35-.79,1.86,1.86,0,0,0-2.06,2,19,19,0,0,1-.83,5.08,51,51,0,0,0-.38-5.1,1.88,1.88,0,0,0-1.66-1.61h-.15a1.88,1.88,0,0,0-1.89,1.53c-1.15,6.06-5.29,11.07-7.95,13.76a51.07,51.07,0,0,0-5.6-12,1.87,1.87,0,0,0-3.15,2c.1.18,2.43,4.22-1.15,10.36-.9-4.34.62-12.39,2.36-17.84a1.87,1.87,0,0,0-1.06-2.3,2,2,0,0,0-.53-.14,1.88,1.88,0,0,0-1.85,1c-.14.27-3.39,6.48-10.71,23.52-1.82-3.4-.08-8.77-.06-8.83A1.88,1.88,0,0,0,414,142a2.16,2.16,0,0,0-.44-.1,1.88,1.88,0,0,0-1.94,1.2c-.09.24-2,5.27-2.19,14.92-3.59-3.14-9.05-6.1-13.67-6.57a8.77,8.77,0,0,0-6.26,1.41,1.88,1.88,0,0,0,.57,3.31c3.5,1.06,5.84,2.93,7.16,5.74,2.08,4.41,1.09,10.09.14,13.56-2.16-2.95-5.28-8-5.75-13a1.89,1.89,0,0,0-1.46-1.66l-.21,0a1.85,1.85,0,0,0-1.81.91c-3.06,5.2-2.12,13.68-.95,19.4-4.4-4.31-9.64-10.68-9.71-15.9a1.88,1.88,0,0,0-1.29-1.76,1.8,1.8,0,0,0-.39-.08,1.85,1.85,0,0,0-1.69.74c-8.53,11.32-3.25,23.77,1,30.57a38.59,38.59,0,0,0-6.74-1.36c-5-.52-9.12.32-12.16,2.49a1.87,1.87,0,0,0,.9,3.39c3.53.36,7.62,4.07,11.11,8.22a34.6,34.6,0,0,0-8.28-3.83l-.33-.06a1.88,1.88,0,0,0-1.13.24,1.84,1.84,0,0,0-.88,1.16,5.48,5.48,0,0,0,0,2.51,69.86,69.86,0,0,1-4.78-9.45,1.89,1.89,0,0,0-1.54-1.14h-.15a1.86,1.86,0,0,0-1.74,1.08c-5.29,11.38,2.59,27.22,7.1,34.77a60.36,60.36,0,0,0-8.71-1.62c-6-.62-10.29.19-12.88,2.41a1.87,1.87,0,0,0,1,3.29,1.78,1.78,0,0,0,.56,0,10.64,10.64,0,0,1,3.17-.11c13.35,1.38,32.81,22.6,33,22.81A1.94,1.94,0,0,0,373.89,260Z" transform="translate(-334.27 -121.64)"/><path class="cls-2" d="M380.37,254.39s-21.3-23.4-34-20.84" transform="translate(-334.27 -121.64)"/><path class="cls-5" d="M470.65,170.1a.57.57,0,0,0,0,.18,1.83,1.83,0,0,0,.89,1.21l129.75,75.57a1.89,1.89,0,0,0,1.34.21,82,82,0,0,0,8.74-2.48c6.73-2.36,9.7-4.82,9.35-7.73l0-.23a1.91,1.91,0,0,0-.82-1.23,1.88,1.88,0,0,0-1.46-.25c-3.5.84-8,.32-11.63-.39a61,61,0,0,1,17.66-1,1.88,1.88,0,0,0,2-2.09,1.89,1.89,0,0,0-.85-1.35c-5.08-3.24-10.66-3.82-16.06-4.38-2-.21-4-.41-6.05-.76a28.83,28.83,0,0,0,7.84-5.85,1.87,1.87,0,0,0,.47-1.49,1.78,1.78,0,0,0-.27-.76,1.85,1.85,0,0,0-2.11-.81,18.8,18.8,0,0,1-5.14.31c2.75-.7,4.69-1.42,4.89-1.49a1.89,1.89,0,0,0,1.2-2,.68.68,0,0,0,0-.14,1.88,1.88,0,0,0-1.9-1.51c-6.17.21-12-2.72-15.18-4.72a51.16,51.16,0,0,0,10.42-8.1,1.86,1.86,0,0,0,.52-1.53,1.87,1.87,0,0,0-3.19-1.1c-.14.14-3.57,3.31-10.35,1.16,4-1.83,12.22-2.12,17.92-1.62a1.88,1.88,0,0,0,2-1.54,2,2,0,0,0,0-.55,1.87,1.87,0,0,0-1.38-1.59c-.29-.08-7.07-1.87-25.3-5.26,2.92-2.53,8.53-2,8.6-2a1.88,1.88,0,0,0,2.05-1.64,1.69,1.69,0,0,0,0-.45,1.87,1.87,0,0,0-1.59-1.63c-.26,0-5.58-.76-15,1.15,2.27-4.2,3.95-10.17,3.4-14.78a8.83,8.83,0,0,0-2.77-5.8,1.88,1.88,0,0,0-3.1,1.28c-.26,3.65-1.57,6.35-4,8.26-3.84,3-9.6,3.29-13.2,3.12,2.41-2.75,6.65-6.91,11.42-8.47a1.89,1.89,0,0,0,1.3-1.79,1.5,1.5,0,0,0,0-.22,1.85,1.85,0,0,0-1.29-1.56c-5.74-1.83-13.81.95-19.13,3.35,3.23-5.24,8.29-11.75,13.37-13a1.86,1.86,0,0,0,1.43-1.64,1.77,1.77,0,0,0,0-.4,1.87,1.87,0,0,0-1.09-1.49c-12.92-5.82-23.9,2.08-29.6,7.72a38.18,38.18,0,0,0-.15-6.87c-.61-5-2.33-8.83-5.12-11.31a1.87,1.87,0,0,0-3.1,1.62c.42,3.52-2.3,8.33-5.57,12.64a34.81,34.81,0,0,0,1.9-8.91,1.28,1.28,0,0,0,0-.34,1.86,1.86,0,0,0-1.81-1.65,5.53,5.53,0,0,0-2.44.6,68.15,68.15,0,0,1,8.16-6.75,1.88,1.88,0,0,0,.78-1.76.77.77,0,0,0,0-.15,1.89,1.89,0,0,0-1.44-1.46c-12.26-2.65-26,8.53-32.35,14.6a60,60,0,0,0-.34-8.86c-.71-6-2.46-10-5.19-12a1.87,1.87,0,0,0-3,1.73,1.82,1.82,0,0,0,.15.54,10.63,10.63,0,0,1,.81,3.06c1.6,13.34-14.81,37-15,37.23A1.87,1.87,0,0,0,470.65,170.1Z" transform="translate(-334.27 -121.64)"/><path class="cls-2" d="M571.45,169.12c4.9,4.26-.37,17.88-3.76,19.88" transform="translate(-334.27 -121.64)"/><path class="cls-6" d="M620.37,274.51c0,11.92-13,22-15.91,33-3,11.38,3.07,26.56-2.7,36.53s-22.11,12.37-30.31,20.58S561,389.07,550.87,394.92s-25.14-.35-36.53,2.69c-11,2.94-21.06,15.91-33,15.91s-22-13-33-15.91c-11.38-3-26.56,3.07-36.53-2.69s-12.37-22.11-20.58-30.31S366.79,354.14,360.94,344s.35-25.15-2.69-36.53c-2.94-11-15.91-21.06-15.91-33s13-22,15.91-33c3-11.39-3.07-26.57,2.69-36.53,5.85-10.11,22.11-12.38,30.31-20.58S401.72,160,411.83,154.1s25.15.34,36.53-2.7c11-2.94,21.07-15.91,33-15.91s22,13,33,15.91c11.39,3,26.57-3.07,36.53,2.7s12.38,22.11,20.58,30.31,24.46,10.47,30.31,20.58c5.77,10-.34,25.14,2.7,36.53C607.4,252.52,620.37,262.58,620.37,274.51Z" transform="translate(-334.27 -121.64)"/><path class="cls-7" d="M613.41,267.55a19,19,0,0,1-1.61,7.37,51,51,0,0,1-5,8.86c-3.39,5-7.07,10-8.45,15.11-1.88,7-.08,15.61-.1,23.34,0,4.15-.55,8.06-2.47,11.37a15.5,15.5,0,0,1-2,2.74c-6.63,7.37-19.78,9.82-26.77,16.8-7.79,7.8-9.94,23.24-19.54,28.79s-23.89-.32-34.71,2.57c-10.45,2.79-20,15.11-31.34,15.11S460.46,387.29,450,384.5c-10.81-2.89-25.23,2.92-34.7-2.57s-11.76-21-19.55-28.79S372.52,343.2,367,333.6c-.21-.38-.42-.76-.6-1.16a23.78,23.78,0,0,1-1.85-9.9c-.07-7.82,1.8-16.52-.11-23.65-2.79-10.44-15.11-20-15.11-31.34s12.32-20.89,15.11-31.34c2.9-10.81-2.91-25.23,2.56-34.7s21-11.76,28.8-19.55,9.95-23.24,19.55-28.79,23.89.33,34.7-2.56c10.45-2.8,20-15.11,31.34-15.11s20.89,12.31,31.34,15.11c10.82,2.89,25.24-2.92,34.71,2.56s11.63,20.15,18.9,28.12c.21.23.42.45.64.67,5.6,5.6,15.13,8.28,22.12,12.91a20.35,20.35,0,0,1,6.67,6.64c5.49,9.47-.32,23.89,2.57,34.7C601.09,246.66,613.41,256.22,613.41,267.55Z" transform="translate(-334.27 -121.64)"/><path class="cls-8" d="M412.45,244.67c-18.4,3-41.33,4.37-56.33,5a87.18,87.18,0,0,0,6.63-10.64,471.74,471.74,0,0,0,49.19.69A2.48,2.48,0,0,1,412.45,244.67Z" transform="translate(-334.27 -121.64)"/><path class="cls-9" d="M611.8,274.92a51,51,0,0,1-5,8.86c-140.62,4-209,30-240.39,48.66a23.78,23.78,0,0,1-1.85-9.9c2.29-2.69,4.81-5.62,7.57-8.83C449.78,283.47,570.62,276.47,611.8,274.92Z" transform="translate(-334.27 -121.64)"/><path class="cls-10" d="M589.06,194.87c-17.39,4.63-67.14,16.81-109.95,17a2.18,2.18,0,0,1-.42-4.33c34.14-6.42,68.88-18.9,87.61-26.23.21.23.42.45.64.67C572.54,187.56,582.07,190.24,589.06,194.87Z" transform="translate(-334.27 -121.64)"/><polyline class="cls-11" points="76.86 137.34 68.94 144.63 79.7 144.63"/><path class="cls-12" d="M468.71,180.26A10.8,10.8,0,0,0,458,191v7.16H421.81a3.58,3.58,0,1,0,.34,7.16h3.58V334.25A10.76,10.76,0,0,0,436.47,345h93.12a10.76,10.76,0,0,0,10.74-10.75V205.33h3.58a3.58,3.58,0,0,0,.1-7.16H508.1V191a10.8,10.8,0,0,0-10.75-10.75Zm0,7.17h28.64a3.57,3.57,0,0,1,3.59,3.58v7.16H465.12V191A3.57,3.57,0,0,1,468.71,187.43Zm-7.17,35.81a3.58,3.58,0,0,1,3.58,3.58v89.53a3.58,3.58,0,1,1-7.16,0V226.82A3.58,3.58,0,0,1,461.54,223.24Zm21.49,0a3.58,3.58,0,0,1,3.58,3.58v89.53a3.58,3.58,0,1,1-7.16,0V226.82A3.58,3.58,0,0,1,483,223.24Zm21.49,0a3.58,3.58,0,0,1,3.58,3.58v89.53a3.58,3.58,0,1,1-7.16,0V226.82A3.58,3.58,0,0,1,504.52,223.24Z" transform="translate(-334.27 -121.64)"/></svg>