<svg id="Layer_1" data-name="Layer 1" xmlns="http://www.w3.org/2000/svg" viewBox="0 0 1920.06 1080"><defs><style>.cls-1{fill:#d8edee;}.cls-2{fill:#d5de2d;}.cls-3{fill:#30a030;}.cls-4{fill:#5f3813;}.cls-5{fill:#fcc047;}.cls-6{fill:#e8af2e;}.cls-7{fill:#603008;}.cls-8{fill:#994405;}.cls-9{fill:#e6e6e7;}.cls-10{fill:#3b2314;}.cls-11{fill:#f0f1f1;}.cls-12{fill:#e0a246;}.cls-13{fill:#4f2b0e;}.cls-14{fill:#fff;}.cls-15{fill:#7bad1a;}.cls-16{fill:#462300;}.cls-17{fill:#82b51c;}.cls-18{fill:#669a07;}.cls-19{fill:#9ad12b;}</style></defs><rect class="cls-1" width="1920" height="902"/><path class="cls-2" d="M1917.53,810.15a58.74,58.74,0,1,1-58.74-58.74A58.73,58.73,0,0,1,1917.53,810.15Z"/><path class="cls-2" d="M1585.2,823.39a66.48,66.48,0,1,1-66.48-66.48A66.48,66.48,0,0,1,1585.2,823.39Z"/><circle class="cls-3" cx="1469.21" cy="827.31" r="35.16"/><path class="cls-3" d="M1920,805v30a19,19,0,0,1,0,3,10.23,10.23,0,0,1-1,3c-1.17,2.26-11.26,7.23-22.12,5.8-13.86-1.84-35.18-14-35.16-35.16,0-22.52,24.18-32.73,35.16-35.15,10.35-2.29,22.15-.14,23.12,3.51.13.49,0,.85,0,6,0,1.74,0,3.14,0,4Z"/><rect class="cls-4" x="1760.16" y="577.55" width="42.11" height="63.81"/><polygon class="cls-5" points="1826.16 674.52 1697.15 567.5 1568.13 674.52 1566.68 674.52 1566.68 838.29 1827.62 838.29 1827.62 674.52 1826.16 674.52"/><rect class="cls-6" x="1566.68" y="806.64" width="260.95" height="31.66"/><rect class="cls-7" x="1605.9" y="708.15" width="74.07" height="130.37"/><rect class="cls-8" x="1612.86" y="719.23" width="26.95" height="28.78"/><rect class="cls-8" x="1646.22" y="719.23" width="26.95" height="28.78"/><rect class="cls-8" x="1612.86" y="755.74" width="26.95" height="28.78"/><rect class="cls-8" x="1646.22" y="755.74" width="26.95" height="28.78"/><rect class="cls-8" x="1612.86" y="792.25" width="26.95" height="28.78"/><rect class="cls-8" x="1646.22" y="792.25" width="26.95" height="28.78"/><path class="cls-9" d="M1668.64,774.49a4.36,4.36,0,1,1-4.36-4.36A4.36,4.36,0,0,1,1668.64,774.49Z"/><rect class="cls-10" x="1600.5" y="707.08" width="5.4" height="131.44"/><rect class="cls-10" x="1679.97" y="708.15" width="5.4" height="130.37"/><rect class="cls-10" x="1600.5" y="704.2" width="84.87" height="5.76"/><rect class="cls-10" x="1712.62" y="704.09" width="86.12" height="79.89"/><rect class="cls-11" x="1759.02" y="712.22" width="32.63" height="64.95"/><rect class="cls-11" x="1719.71" y="712.22" width="32.63" height="64.95"/><rect class="cls-7" x="1704.62" y="784.07" width="102.11" height="5.32"/><polygon class="cls-12" points="1566.68 670.58 1566.68 698.11 1714.01 597.19 1709.64 578.71 1697.15 568.5 1566.68 670.58"/><rect class="cls-10" x="1526.3" y="609.02" width="196.94" height="29.54" transform="translate(-64.89 1040.95) rotate(-34.87)"/><rect class="cls-10" x="1754.76" y="525.32" width="29.54" height="196.94" transform="translate(246.05 1718.93) rotate(-55.13)"/><polygon class="cls-13" points="1760.16 582.65 1802.28 592.11 1802.28 575.05 1760.16 582.65"/><rect class="cls-10" x="1752.29" y="562.23" width="57.85" height="20.42"/><rect class="cls-9" x="1815.06" y="780.93" width="86.92" height="11.13"/><rect class="cls-9" x="1815.06" y="811.18" width="86.92" height="11.13"/><rect class="cls-14" x="1822.84" y="770.51" width="15.94" height="73.78"/><polygon class="cls-14" points="1822.84 770.63 1838.79 770.63 1830.81 762.22 1822.84 770.63"/><rect class="cls-14" x="1851.18" y="770.51" width="15.94" height="73.78"/><polygon class="cls-14" points="1851.18 770.63 1867.12 770.63 1859.15 762.22 1851.18 770.63"/><rect class="cls-14" x="1879.44" y="770.51" width="15.94" height="73.78"/><polygon class="cls-14" points="1879.44 770.63 1895.38 770.63 1887.41 762.22 1879.44 770.63"/><rect class="cls-9" x="1491.67" y="780.83" width="86.92" height="11.13"/><rect class="cls-9" x="1491.67" y="811.08" width="86.92" height="11.13"/><rect class="cls-14" x="1554.87" y="770.42" width="15.94" height="73.78"/><polygon class="cls-14" points="1570.81 770.53 1554.87 770.53 1562.84 762.12 1570.81 770.53"/><rect class="cls-14" x="1526.53" y="770.42" width="15.94" height="73.78"/><polygon class="cls-14" points="1542.47 770.53 1526.53 770.53 1534.5 762.12 1542.47 770.53"/><rect class="cls-14" x="1498.27" y="770.42" width="15.94" height="73.78"/><polygon class="cls-14" points="1514.21 770.53 1498.27 770.53 1506.24 762.12 1514.21 770.53"/><path class="cls-15" d="M1510,878.68h408.89V852.27c0-3.91,0-7.5,1.07-10-1.07-2.67-1.07-4.3-.08-4.39-1,.09-3.11.09-3.58-.34-7.4.43-13.15.43-14.79-2.35-8,2.78-10.63,2.78-14.09-1-.93,3.37-2.74,3-8.3-1.34,1.22,4.08-1.85,2-10.39.62,2.92,1.4.37,3.43-4.73,2,.19-.3-2.18-1.68-4.61-3.76-1.42,3.12-2.89,4.67-4.9,4.83s-4.55-1.09-8.09-3.57c2.68,4,1.35,3-1.24-1.93-1.65,4.25-5.56,5.13-10.8,4.73-1.83.85-5,.42-8.18-.88s-6.46-2.3-10.19-5.56c-1,3.26-2.5,4.25-4.39,5.68s-4.16,2.12-5.06,1.75c-4.27,1-7.16.83-5.27-2.17-7.87,3.09-11.23,3.22-9.76-3.78-5.82,4.75-9.49,6.34-14.09,4.36-2.3-1-4.83-2.87-8-5.69-.48,2.82-1.57,4.7-.29,5-4.57,2.15-6.76,2.7-2.11.46-10,2.56-13.1,2.32-8.17-4.66-10.26,7.16-13,7.42-16.44-2.74-.93,3.47-2,5.79-3.49,7.13a6.53,6.53,0,0,1-6,1.18,19.25,19.25,0,0,1-11.07-4.43c.56,3.86-.21,5.2,1,4.6-6,1.93-10,1.92-6.16-.87-7.23,2.34-10.31,2.57-11.71-.13-1.22,2.06-.76,1.21,2.61-3.12-2.77,3.18-4.71,3.66-7.84,1.56-.15,2.83-1.48,3.07-5.19,1.16-.88,2.29-3.1,2-5.26-.68.33,1.13-1.38,2-4.11.24.61-.14-1,2.22-1.22.05-1.79,2.17-2.23-1.67-3.78-1-.25,1.16-.44,1.63-.63,1.51a23.52,23.52,0,0,1-6.31,2.16,33.85,33.85,0,0,1-4.91.66c-3.15.2-6.68-1.09-11-2.27.83.8-1.34,2.25-6.49,2,3.25-.1-2-3.76-2-3.76-1.63,2-1.91,3.78-6.2,3.18-.15-.47-4.3.35-4.4-3.26-3.57,2.48-3.85,2.95-7.48,3.9s-7.06-.15-10.72-.12-4-.76-6.35-2.84c-2.82,2.33-8.51,3.9-7.46.43-6.71,3.85-10.25,5.33-12.45-.73-5.3,6.06-9.24,3.84-16-.9.2,4.21-2.37,3.68-5.68.94-1.92,2.38-5.29,2.86-8.45,3a31,31,0,0,1-8.59-.62,35.94,35.94,0,0,1-8.64-3.19c-3,4.65-8.58,4.65-16.4,3.66-1.9,1-6.09,1-9.51,1H1510Z"/><path class="cls-15" d="M1591.41,831.7c-1,3.27-2.5,4.25-4.38,5.69s-4.17,2.12-5.06,1.75c-4.28.94-7.17.82-5.28-2.18-7.87,3.09-11.23,3.22-9.76-3.77-5.82,4.75-9.49,6.33-14.09,4.35-2.3-1-4.83-2.86-8-5.69-.49,2.83-1.58,4.7-.3,5-4.57,2.15-6.76,2.7-2.11.46-10,2.56-13.1,2.33-8.17-4.66-10.26,7.16-13,7.42-16.43-2.74-.94,3.47-2,5.79-3.49,7.14a6.55,6.55,0,0,1-6,1.17,19.22,19.22,0,0,1-11.06-4.43c.47,3.32,0,4.77.61,4.73-5.75,1.79-9.46,1.73-5.76-1-7.07,2.29-10.17,2.55-11.61,0,.52-.69,1.33-1.76,2.51-3.28-2.77,3.18-4.71,3.66-7.84,1.56-.14,2.7-1.39,3-4.74,1.38.21,14.63,1.19,29.24,1.85,43.87h127.47V836.54A26.16,26.16,0,0,1,1591.41,831.7Z"/><rect class="cls-15" y="838.25" width="1920" height="241.75"/><path class="cls-15" d="M1058.23,879.61H1469V853.2c0-3.91,0-7.49,1.08-10-1.08-2.67-1.08-4.3-.08-4.39-1,.09-3.13.09-3.6-.34-7.43.43-13.21.43-14.86-2.35-8.07,2.78-10.67,2.78-14.16-1-.93,3.37-2.75,3-8.33-1.34,1.22,4.08-1.86,2-10.44.62,2.94,1.4.37,3.44-4.75,2,.19-.3-2.19-1.68-4.63-3.76-1.43,3.12-2.91,4.67-4.93,4.83s-4.57-1.09-8.13-3.57c2.7,4,1.36,3-1.24-1.93-1.66,4.25-5.59,5.13-10.85,4.73-1.84.85-5,.42-8.22-.88s-6.49-2.3-10.24-5.56c-1,3.26-2.51,4.25-4.41,5.68s-4.18,2.12-5.08,1.76c-4.29.94-7.2.82-5.3-2.18-7.9,3.09-11.28,3.22-9.8-3.78-5.85,4.75-9.54,6.34-14.16,4.36-2.31-1-4.85-2.87-8-5.69-.48,2.82-1.58,4.7-.3,5-4.59,2.15-6.78,2.7-2.12.46-10,2.56-13.16,2.33-8.2-4.66-10.31,7.16-13,7.42-16.52-2.74-.93,3.47-2,5.79-3.5,7.13a6.61,6.61,0,0,1-6,1.18,19.34,19.34,0,0,1-11.11-4.43c.56,3.86-.22,5.2,1,4.61-6,1.92-10,1.91-6.19-.88-7.26,2.34-10.36,2.57-11.77-.13-1.23,2.06-.76,1.21,2.63-3.12-2.79,3.18-4.74,3.66-7.88,1.56-.15,2.83-1.48,3.07-5.21,1.16-.89,2.29-3.12,2-5.29-.68.34,1.13-1.38,2-4.13.24.62-.14-1,2.22-1.23,0-1.79,2.17-2.23-1.67-3.79-1-.26,1.16-.44,1.63-.64,1.51a23.17,23.17,0,0,1-6.33,2.16,34.22,34.22,0,0,1-4.94.66c-3.16.2-6.71-1.09-11-2.27.83.8-1.35,2.25-6.52,2,3.25-.1-2-3.76-2-3.76-1.63,2-1.92,3.78-6.22,3.18-.16-.47-4.33.35-4.43-3.26-3.58,2.48-3.86,3-7.51,3.9s-7.1-.15-10.77-.12-4-.76-6.38-2.84c-2.84,2.33-8.55,3.9-7.49.44-6.75,3.84-10.3,5.32-12.51-.74-5.33,6.06-9.29,3.84-16-.9.2,4.21-2.38,3.68-5.71.94-1.92,2.39-5.31,2.86-8.48,3a31.22,31.22,0,0,1-8.63-.62,36.25,36.25,0,0,1-8.69-3.19c-3,4.65-8.61,4.65-16.47,3.66-1.91,1-6.12,1-9.56,1h-10.68Z"/><path class="cls-15" d="M1140,832.63c-1,3.27-2.51,4.25-4.4,5.69s-4.18,2.12-5.08,1.75c-4.3.94-7.2.82-5.31-2.18-7.9,3.09-11.28,3.22-9.8-3.77-5.85,4.75-9.53,6.33-14.15,4.35-2.32-1-4.86-2.86-8-5.69-.48,2.83-1.58,4.71-.3,5-4.58,2.15-6.78,2.7-2.11.46-10,2.56-13.17,2.33-8.21-4.66-10.31,7.16-13,7.42-16.51-2.74-.94,3.48-2,5.79-3.51,7.14a6.58,6.58,0,0,1-6,1.17,19.39,19.39,0,0,1-11.12-4.43c.48,3.32,0,4.77.62,4.73-5.78,1.79-9.5,1.73-5.79-1-7.1,2.3-10.22,2.55-11.67,0l2.53-3.28c-2.78,3.18-4.73,3.66-7.88,1.57-.14,2.7-1.39,3-4.76,1.37.21,14.63,1.2,29.25,1.86,43.87H1148.4V837.47A26.33,26.33,0,0,1,1140,832.63Z"/><path class="cls-15" d="M613.23,880.61H1024V854.2c0-3.91,0-7.49,1.08-10-1.08-2.67-1.08-4.3-.08-4.39-1,.09-3.13.09-3.6-.34-7.43.43-13.21.43-14.86-2.35-8.07,2.78-10.67,2.78-14.16-1-.93,3.37-2.75,3-8.33-1.34,1.22,4.08-1.86,2-10.44.62,2.94,1.4.37,3.44-4.75,2,.19-.3-2.19-1.68-4.63-3.76-1.43,3.12-2.91,4.67-4.93,4.83s-4.57-1.09-8.13-3.57c2.7,4,1.36,3-1.24-1.93-1.66,4.25-5.59,5.13-10.85,4.73-1.84.85-5,.42-8.22-.88s-6.49-2.3-10.24-5.56c-1,3.26-2.51,4.25-4.41,5.68s-4.18,2.12-5.08,1.76c-4.29.94-7.2.82-5.3-2.18-7.9,3.09-11.28,3.22-9.8-3.78-5.85,4.75-9.54,6.34-14.16,4.36-2.31-1-4.85-2.87-8-5.69-.48,2.82-1.58,4.7-.3,5-4.59,2.15-6.78,2.7-2.12.46-10,2.56-13.16,2.33-8.2-4.66-10.31,7.16-13,7.42-16.52-2.74-.93,3.47-2,5.79-3.5,7.13a6.61,6.61,0,0,1-6,1.18,19.34,19.34,0,0,1-11.11-4.43c.56,3.86-.22,5.2,1,4.61-6,1.92-10,1.91-6.19-.88-7.26,2.34-10.36,2.57-11.77-.13-1.23,2.06-.76,1.21,2.63-3.12-2.79,3.18-4.74,3.66-7.88,1.56-.15,2.83-1.48,3.07-5.21,1.16-.89,2.29-3.12,2-5.29-.68.34,1.13-1.38,2-4.13.24.62-.14-1,2.22-1.23,0-1.79,2.17-2.23-1.67-3.79-1-.26,1.16-.44,1.63-.64,1.51a23.17,23.17,0,0,1-6.33,2.16,34.22,34.22,0,0,1-4.94.66c-3.16.2-6.71-1.09-11-2.27.83.8-1.35,2.25-6.52,2,3.25-.1-2-3.76-2-3.76-1.63,2-1.92,3.78-6.22,3.18-.16-.47-4.33.35-4.43-3.26-3.58,2.48-3.86,3-7.51,3.9s-7.1-.15-10.77-.12-4-.76-6.38-2.84c-2.84,2.33-8.55,3.9-7.49.44-6.75,3.84-10.3,5.32-12.51-.74-5.33,6.06-9.29,3.84-16-.9.2,4.21-2.38,3.68-5.71.94-1.92,2.39-5.31,2.86-8.48,3a31.22,31.22,0,0,1-8.63-.62,36.25,36.25,0,0,1-8.69-3.19c-3.05,4.65-8.61,4.65-16.47,3.66-1.91,1-6.12,1-9.56,1H613.23Z"/><path class="cls-15" d="M695,833.63c-1,3.27-2.51,4.25-4.4,5.69s-4.18,2.12-5.08,1.75c-4.3.94-7.2.82-5.31-2.18-7.9,3.09-11.28,3.22-9.8-3.77-5.85,4.75-9.53,6.33-14.15,4.35-2.32-1-4.86-2.86-8-5.69-.48,2.83-1.58,4.71-.3,5-4.58,2.15-6.78,2.7-2.11.46-10,2.56-13.17,2.33-8.21-4.66-10.31,7.16-13,7.42-16.51-2.74-.94,3.48-2,5.79-3.51,7.14a6.58,6.58,0,0,1-6,1.17,19.39,19.39,0,0,1-11.12-4.43c.48,3.32,0,4.77.62,4.73-5.78,1.79-9.5,1.73-5.79-1-7.1,2.3-10.22,2.55-11.67,0l2.53-3.28c-2.78,3.18-4.73,3.66-7.88,1.57-.14,2.7-1.39,3-4.76,1.37.21,14.63,1.2,29.25,1.86,43.87H703.4V838.47A26.33,26.33,0,0,1,695,833.63Z"/><path class="cls-15" d="M161.23,877.61H572V851.2c0-3.91,0-7.49,1.08-10-1.08-2.67-1.08-4.3-.08-4.39-1,.09-3.13.09-3.6-.34-7.43.43-13.21.43-14.86-2.35-8.07,2.78-10.67,2.78-14.16-1-.93,3.37-2.75,3-8.33-1.34,1.22,4.08-1.86,2-10.44.62,2.94,1.4.37,3.44-4.75,2,.19-.3-2.19-1.68-4.63-3.76-1.43,3.12-2.91,4.67-4.93,4.83s-4.57-1.09-8.13-3.57c2.7,4,1.36,3-1.24-1.93-1.66,4.25-5.59,5.13-10.85,4.73-1.84.85-5,.42-8.22-.88s-6.49-2.3-10.24-5.56c-1,3.26-2.51,4.25-4.41,5.68s-4.18,2.12-5.08,1.76c-4.29.94-7.2.82-5.3-2.18-7.9,3.09-11.28,3.22-9.8-3.78-5.85,4.75-9.54,6.34-14.16,4.36-2.31-1-4.85-2.87-8-5.69-.48,2.82-1.58,4.7-.3,5-4.59,2.15-6.78,2.7-2.12.46-10,2.56-13.16,2.33-8.2-4.66-10.31,7.16-13,7.42-16.52-2.74-.93,3.47-2,5.79-3.5,7.13a6.61,6.61,0,0,1-6.05,1.18,19.34,19.34,0,0,1-11.11-4.43c.56,3.86-.22,5.2,1,4.61-6,1.92-10,1.91-6.19-.88-7.26,2.34-10.36,2.57-11.77-.13-1.23,2.06-.76,1.21,2.63-3.12-2.79,3.18-4.74,3.66-7.88,1.56-.15,2.83-1.48,3.07-5.21,1.16-.89,2.29-3.12,2-5.29-.68.34,1.13-1.38,2-4.13.24.62-.14-1,2.22-1.23,0-1.79,2.17-2.23-1.67-3.79-1-.26,1.16-.44,1.63-.64,1.51a23.17,23.17,0,0,1-6.33,2.16,34.22,34.22,0,0,1-4.94.66c-3.16.2-6.71-1.09-11-2.27.83.8-1.35,2.25-6.52,2,3.25-.1-2-3.76-2-3.76-1.63,2-1.92,3.78-6.22,3.18-.16-.47-4.33.35-4.43-3.26-3.58,2.48-3.86,3-7.51,3.9s-7.1-.15-10.77-.12-4-.76-6.38-2.84c-2.84,2.33-8.55,3.9-7.49.44-6.75,3.84-10.3,5.32-12.51-.74-5.33,6.06-9.29,3.84-16-.9.2,4.21-2.38,3.68-5.71.94-1.92,2.39-5.31,2.86-8.48,3a31.22,31.22,0,0,1-8.63-.62,36.25,36.25,0,0,1-8.69-3.19c-3.05,4.65-8.61,4.65-16.47,3.66-1.91,1-6.12,1-9.56,1H161.23Z"/><path class="cls-15" d="M243,830.63c-1,3.27-2.51,4.25-4.4,5.69s-4.18,2.12-5.08,1.75c-4.3.94-7.2.82-5.31-2.18-7.9,3.09-11.28,3.22-9.8-3.77-5.85,4.75-9.53,6.33-14.15,4.35-2.32-1-4.86-2.86-8-5.69-.48,2.83-1.58,4.71-.3,5-4.58,2.15-6.78,2.7-2.11.46-10,2.56-13.17,2.33-8.21-4.66-10.31,7.16-13,7.42-16.51-2.74-.94,3.48-2,5.79-3.51,7.14a6.58,6.58,0,0,1-6,1.17,19.39,19.39,0,0,1-11.12-4.43c.48,3.32,0,4.77.62,4.73-5.78,1.79-9.5,1.73-5.79-1-7.1,2.3-10.22,2.55-11.67,0l2.53-3.28c-2.78,3.18-4.73,3.66-7.88,1.57-.14,2.7-1.39,3-4.76,1.37.21,14.63,1.2,29.25,1.86,43.87H251.4V835.47A26.33,26.33,0,0,1,243,830.63Z"/><path class="cls-15" d="M113.16,830.64c-1,3.27-2.34,4.25-4.11,5.69s-3.89,2.12-4.73,1.75c-4,.94-6.7.82-4.94-2.18-7.36,3.09-10.51,3.22-9.13-3.77-5.44,4.75-8.88,6.33-13.18,4.35-2.15-1-4.52-2.86-7.45-5.69-.45,2.83-1.48,4.71-.28,5-4.27,2.15-6.32,2.7-2,.46-9.33,2.56-12.26,2.33-7.65-4.66-9.6,7.16-12.12,7.42-15.38-2.74-.87,3.48-1.82,5.79-3.26,7.14a5.82,5.82,0,0,1-5.63,1.17,17.36,17.36,0,0,1-10.35-4.43c.44,3.32,0,4.77.57,4.73-5.38,1.79-8.85,1.73-5.38-1-6.62,2.3-9.52,2.55-10.87,0,.48-.68,1.25-1.76,2.35-3.28-2.59,3.18-4.41,3.66-7.34,1.57-.13,2.7-1.29,3-4.43,1.37C.19,850.76,1.12,865.38,1.73,880H121V835.48A24,24,0,0,1,113.16,830.64Z"/><path class="cls-14" d="M183.91,104.39a27.85,27.85,0,0,0-40.49-19.2c-.06-.41-.12-.81-.2-1.22A28.93,28.93,0,0,0,89,76.46,25.37,25.37,0,0,0,50.94,92,24.56,24.56,0,0,0,22.05,115.8h161.7A27.7,27.7,0,0,0,183.91,104.39Z"/><path class="cls-14" d="M220.21,171.89a16.15,16.15,0,0,0-19-12.76,16.91,16.91,0,0,0-3.57,1.14,19.56,19.56,0,0,0-.28-2.12,18.48,18.48,0,0,0-34.22-5.56,16.51,16.51,0,0,0-28,8.6,18.31,18.31,0,0,0-21,14H220.51A16.53,16.53,0,0,0,220.21,171.89Zm-55.68,2.28.5-.69c.34.42.71.81,1.09,1.2A14.71,14.71,0,0,0,164.53,174.17Z"/><path class="cls-14" d="M1868.14,228.66a16.15,16.15,0,0,0-18.94-12.76,16.55,16.55,0,0,0-3.57,1.14,19.6,19.6,0,0,0-.29-2.12,18.48,18.48,0,0,0-34.22-5.56,16.51,16.51,0,0,0-28,8.6,18.31,18.31,0,0,0-21,14h106.33A15.84,15.84,0,0,0,1868.14,228.66Zm-55.67,2.28c.17-.23.34-.46.49-.69.35.42.71.81,1.09,1.2C1813.53,231.25,1813,231.09,1812.47,230.94Z"/><path class="cls-14" d="M912.6,211.55a21.55,21.55,0,0,0-25.28-17,22.14,22.14,0,0,0-4.77,1.52,25.26,25.26,0,0,0-.38-2.83,24.66,24.66,0,0,0-45.66-7.42,22,22,0,0,0-37.39,11.47,24.45,24.45,0,0,0-28,18.74H913A21.73,21.73,0,0,0,912.6,211.55Zm-74.3,3c.23-.3.46-.6.67-.91.46.55.94,1.08,1.45,1.59C839.72,215,839,214.78,838.3,214.58Z"/><path class="cls-14" d="M1220.46,138A29,29,0,0,0,1180,117.15a33.17,33.17,0,0,0-61.94-13.8,29.64,29.64,0,0,0-50.31,15.44A32.88,32.88,0,0,0,1030.11,144H1221A29.15,29.15,0,0,0,1220.46,138Zm-100,4.08c.3-.4.61-.81.89-1.23.62.75,1.27,1.46,1.95,2.15C1122.42,142.66,1121.47,142.36,1120.51,142.09Z"/><path class="cls-14" d="M629.32,131.44a36.56,36.56,0,0,0-51-26.32,43.88,43.88,0,0,0-.65-4.8A41.86,41.86,0,0,0,500.15,87.7a37.4,37.4,0,0,0-63.49,19.49A41.48,41.48,0,0,0,389.11,139H630A36.79,36.79,0,0,0,629.32,131.44ZM503.18,136.6c.39-.51.77-1,1.13-1.56.78.94,1.61,1.84,2.46,2.71C505.6,137.31,504.4,136.93,503.18,136.6Z"/><path class="cls-14" d="M940.14,77.66A16.15,16.15,0,0,0,921.2,64.9,16.55,16.55,0,0,0,917.63,66a19.6,19.6,0,0,0-.29-2.12,18.48,18.48,0,0,0-34.22-5.56,16.51,16.51,0,0,0-28,8.6,18.31,18.31,0,0,0-21,14H940.44A15.84,15.84,0,0,0,940.14,77.66Zm-55.67,2.28c.17-.23.34-.46.49-.69.35.42.71.81,1.09,1.2C885.53,80.25,885,80.09,884.47,79.94Z"/><path class="cls-14" d="M1535.5,91.38a27.18,27.18,0,0,0-37.89-19.54,31.5,31.5,0,0,0-.48-3.57,31.08,31.08,0,0,0-57.56-9.36,27.77,27.77,0,0,0-47.14,14.47A30.81,30.81,0,0,0,1357.11,97H1536A28.37,28.37,0,0,0,1535.5,91.38Zm-93.68,3.83c.29-.37.58-.76.84-1.15.58.7,1.2,1.37,1.83,2C1443.62,95.75,1442.72,95.46,1441.82,95.21Z"/><path class="cls-14" d="M1696.56,167.14a23.52,23.52,0,0,0-27.6-18.59,24.11,24.11,0,0,0-5.2,1.66,27.38,27.38,0,0,0-.41-3.08,26.91,26.91,0,0,0-49.84-8.11,24,24,0,0,0-40.82,12.52A26.7,26.7,0,0,0,1542.11,172H1697A23.69,23.69,0,0,0,1696.56,167.14Zm-81.1,3.31c.25-.32.49-.66.72-1q.77.92,1.59,1.74C1617,170.91,1616.24,170.67,1615.46,170.45Z"/><path class="cls-14" d="M1868.14,61.66A16.15,16.15,0,0,0,1849.2,48.9a16.55,16.55,0,0,0-3.57,1.14,19.6,19.6,0,0,0-.29-2.12,18.48,18.48,0,0,0-34.22-5.56,16.51,16.51,0,0,0-28,8.6,18.31,18.31,0,0,0-21,14h106.33A15.84,15.84,0,0,0,1868.14,61.66Zm-55.67,2.28c.17-.23.34-.46.49-.69.35.42.71.81,1.09,1.2C1813.53,64.25,1813,64.09,1812.47,63.94Z"/><path class="cls-16" d="M195.86,767.76s-17.08,33.09-42.61,33.09l-2-31-5.62,1.37L140,769.83l-2,31c-25.53,0-42.61-33.09-42.61-33.09H89.58s7.07,14.64,14.92,27.6,32.91,14,32.91,14L129.59,928.1a6.36,6.36,0,0,0,6.34,6.77h19.48a6.35,6.35,0,0,0,6.33-6.77l-7.81-118.71s25-1.07,32.9-14,14.92-27.6,14.92-27.6Z"/><path class="cls-17" d="M248.93,624.16C241.73,555.67,198.25,503,145.67,503S49.6,555.67,42.41,624.16c-8.68,17.58-13.74,38.71-13.74,61.44,0,61.21,36.65,110.82,81.87,110.82a64.46,64.46,0,0,0,35.13-10.7,64.4,64.4,0,0,0,35.12,10.7c45.22,0,81.88-49.61,81.88-110.82C262.67,662.87,257.6,641.74,248.93,624.16Z"/><path class="cls-18" d="M262.67,685.6c0-22.73-5.07-43.86-13.74-61.44a182.42,182.42,0,0,0-5.73-30.07c-11.75,35-36.41,78.25-36.41,78.25,22.13-12.13,39.52-44.92,39.52-44.92S244.2,728.2,194.14,751.87s-65.86-25.35-65.86-25.35c-3.69,17.82,9,45.94,9,45.94-27,11.55-61.91-.05-87.35-12.42,15,22.35,36.6,36.38,60.65,36.38a64.46,64.46,0,0,0,35.13-10.7,64.4,64.4,0,0,0,35.12,10.7C226,796.42,262.67,746.81,262.67,685.6Z"/><path class="cls-19" d="M209,532c-17.56-18.19-39.49-29-63.31-29C93.08,503,49.6,555.67,42.41,624.16c-8.68,17.58-13.74,38.71-13.74,61.44a147.13,147.13,0,0,0,3.47,31.94c1.52-23.82,5.82-64.34,17.75-77.4,0,0,25.7,44.17,61.53,52.94,0,0-33.2-67.63-24.24-90.81,0,0,38.46,18.87,58.49-13s9.48-63.45,35.83-63.45C191.21,525.86,200.77,528.59,209,532Z"/><path class="cls-19" d="M113.42,633.45s-1.16,5.09.68,7.88,7.3,5.37,7.3,5.37.28-6-1.33-9S113.42,633.45,113.42,633.45Z"/><path class="cls-19" d="M130.26,631.16s-5.13,1-7,3.76-2,8.83-2,8.83,5.63-2.14,7.69-4.78S130.26,631.16,130.26,631.16Z"/><path class="cls-19" d="M187.56,605.36s-.22,5.21,2.1,7.63,8.14,4,8.14,4-.81-6-2.92-8.58S187.56,605.36,187.56,605.36Z"/><path class="cls-19" d="M203.71,600.06s-4.87,1.87-6.17,5-.39,9.05-.39,9.05,5.16-3.12,6.7-6.09S203.71,600.06,203.71,600.06Z"/><path class="cls-19" d="M44.24,672.31s-.22,5.22,2.1,7.63,8.15,4,8.15,4-.82-6-2.93-8.58S44.24,672.31,44.24,672.31Z"/><path class="cls-19" d="M60.4,667s-4.88,1.87-6.17,5-.4,9-.4,9,5.16-3.12,6.71-6.09S60.4,667,60.4,667Z"/><path class="cls-19" d="M173.07,550.7s-.23,5.22,2.09,7.63,8.15,4,8.15,4-.82-6-2.93-8.57S173.07,550.7,173.07,550.7Z"/><path class="cls-19" d="M189.22,545.41s-4.88,1.87-6.17,5-.39,9-.39,9,5.15-3.13,6.7-6.1S189.22,545.41,189.22,545.41Z"/><path class="cls-19" d="M105.91,660.41s-5,1.33-6.67,4.26-1.37,9-1.37,9,5.46-2.54,7.32-5.33S105.91,660.41,105.91,660.41Z"/><path class="cls-19" d="M95.64,625.64S90.58,627,89,629.9s-1.37,9-1.37,9,5.47-2.54,7.33-5.33S95.64,625.64,95.64,625.64Z"/><path class="cls-19" d="M65,695.47s-5.05,1.33-6.67,4.26-1.37,9-1.37,9,5.47-2.55,7.32-5.34S65,695.47,65,695.47Z"/><path class="cls-19" d="M197.43,540.53s-.83,5.16,1.19,7.83,7.63,4.88,7.63,4.88-.11-6-1.9-8.85S197.43,540.53,197.43,540.53Z"/><path class="cls-19" d="M161,568.17s-5.16-.8-7.82,1.24-4.83,7.66-4.83,7.66,6-.15,8.84-2S161,568.17,161,568.17Z"/><path class="cls-19" d="M192.6,579.36s-4.67,2.33-5.66,5.53.48,9.05.48,9.05,4.83-3.61,6.09-6.71S192.6,579.36,192.6,579.36Z"/><path class="cls-19" d="M132.76,657.43s-4.68,2.33-5.67,5.53.48,9,.48,9,4.84-3.6,6.09-6.71S132.76,657.43,132.76,657.43Z"/><path class="cls-19" d="M152.64,610.3s-2.34,4.67-1.22,7.82,5.81,7,5.81,7,1.7-5.79.85-9S152.64,610.3,152.64,610.3Z"/><path class="cls-19" d="M31.75,686.46s-1.16,5.09.68,7.88,7.3,5.37,7.3,5.37.28-6-1.33-9S31.75,686.46,31.75,686.46Z"/><path class="cls-16" d="M499.83,709.81s-3.33,13.54-9.23,16-23,7.85-23,7.85-17.07-5.38-23-7.85-9.24-16-9.24-16l-4.88-1.54a73.16,73.16,0,0,0,3.34,15.4c1.78,5,14.23,11.16,21.74,14.51a9.35,9.35,0,0,1,5.54,8.8l-2.5,90.83a5,5,0,0,0,5,5.19h7.84a5,5,0,0,0,5-5.19L474.09,747a9.37,9.37,0,0,1,5.54-8.8c7.52-3.35,20-9.54,21.74-14.51a73.16,73.16,0,0,0,3.34-15.4Z"/><path class="cls-17" d="M526.38,618.61a60.13,60.13,0,0,0-115.56-1.36,60.14,60.14,0,0,0,56.81,105.43,60.13,60.13,0,0,0,58.75-104.07Z"/><path class="cls-18" d="M526.38,618.61a59.78,59.78,0,0,0-4.88-12.24c-3.43,20.19-18.33,44.57-18.33,44.57,15.14-7,21.56-27.62,21.56-27.62,7.44,15.4-.77,74.17-25.67,82.46s-47.73-12.14-47.73-12.14a58.6,58.6,0,0,0,12.83,24.12c-19.73,7-50.6-4-63.89-9.34a60.18,60.18,0,0,0,67.36,14.26,60.13,60.13,0,0,0,58.75-104.07Z"/><path class="cls-19" d="M468.41,574.44a60.15,60.15,0,0,0-57.59,42.81,60.21,60.21,0,0,0-24.08,68.06c.87-10.72,3.47-27.34,10.7-36.58,11-14.12,18.22-15.4,18.22-15.4s10,20.35,30.54,26c0,0-17.45-32.89-10.27-43.41s5.65,8.21,24.38-6.16,10.74-25.91,25.92-25.66A85.57,85.57,0,0,1,505,586.85,59.84,59.84,0,0,0,468.41,574.44Z"/><path class="cls-19" d="M461.22,631.18s-3.68,1-4.83,3.17-.92,6.56-.92,6.56,4-1.92,5.3-4S461.22,631.18,461.22,631.18Z"/><path class="cls-19" d="M441.52,627.76s-3.68,1-4.84,3.17-.91,6.55-.91,6.55,4-1.91,5.3-4S441.52,627.76,441.52,627.76Z"/><path class="cls-19" d="M407.18,673.68s-1.86,3.34-1.14,5.67,4,5.26,4,5.26,1.42-4.16.9-6.55S407.18,673.68,407.18,673.68Z"/><path class="cls-19" d="M473.4,605s-3.68,1-4.83,3.18-.92,6.55-.92,6.55,4-1.91,5.3-4S473.4,605,473.4,605Z"/><path class="cls-19" d="M484.84,609.18s-2.07,3.21-1.5,5.59,3.67,5.5,3.67,5.5,1.69-4.06,1.32-6.48S484.84,609.18,484.84,609.18Z"/><path class="cls-19" d="M464.78,624s.31,3.8,2.21,5.34,6.26,2.14,6.26,2.14-1.13-4.26-2.89-6S464.78,624,464.78,624Z"/><path class="cls-19" d="M458.48,659.89s.31,3.8,2.21,5.34,6.26,2.14,6.26,2.14-1.13-4.26-2.9-6S458.48,659.89,458.48,659.89Z"/><path class="cls-19" d="M400.27,658.11s-3.56-1.38-5.77-.35-4.66,4.7-4.66,4.7,4.32.85,6.62,0S400.27,658.11,400.27,658.11Z"/><path class="cls-19" d="M449.53,630.79s-.85,3.72.5,5.76,5.33,3.92,5.33,3.92.2-4.4-1-6.54S449.53,630.79,449.53,630.79Z"/><path class="cls-19" d="M418.85,652.86s-3.08,2.25-3.4,4.68S416.9,664,416.9,664s3-3.19,3.56-5.58S418.85,652.86,418.85,652.86Z"/><path class="cls-19" d="M407.78,656.63s.51,3.78,2.5,5.21,6.37,1.78,6.37,1.78-1.37-4.18-3.22-5.78S407.78,656.63,407.78,656.63Z"/><path class="cls-19" d="M503.71,595.33s-3.8.3-5.35,2.19-2.15,6.26-2.15,6.26,4.26-1.12,6-2.88S503.71,595.33,503.71,595.33Z"/><path class="cls-19" d="M492.31,592.72s-1.55,3.49-.61,5.75,4.49,4.87,4.49,4.87,1-4.29.29-6.62S492.31,592.72,492.31,592.72Z"/></svg>