<svg id="Layer_1" data-name="Layer 1" xmlns="http://www.w3.org/2000/svg" xmlns:xlink="http://www.w3.org/1999/xlink" viewBox="0 0 655.03 461.71"><defs><style>.cls-1{fill:url(#linear-gradient);}.cls-2{fill:#318063;}.cls-3{fill:url(#linear-gradient-2);}.cls-4{fill:url(#linear-gradient-3);}.cls-5{fill:url(#linear-gradient-4);}.cls-6{fill:url(#linear-gradient-5);}.cls-7{fill:url(#linear-gradient-6);}.cls-8{fill:url(#linear-gradient-7);}.cls-9{fill:url(#linear-gradient-8);}.cls-10{fill:url(#linear-gradient-9);}.cls-11{fill:url(#linear-gradient-10);}.cls-12{fill:#96440c;opacity:0.2;}.cls-13{fill:url(#linear-gradient-11);}.cls-14{fill:url(#linear-gradient-12);}.cls-15{fill:url(#linear-gradient-13);}.cls-16{fill:url(#linear-gradient-14);}.cls-17{fill:url(#linear-gradient-15);}.cls-18{fill:url(#linear-gradient-16);}.cls-19{fill:url(#linear-gradient-17);}</style><linearGradient id="linear-gradient" x1="141.14" y1="497.8" x2="321.42" y2="381.42" gradientUnits="userSpaceOnUse"><stop offset="0" stop-color="#95d543"/><stop offset="0.26" stop-color="#72b74e"/><stop offset="0.58" stop-color="#4f9959"/><stop offset="0.83" stop-color="#398760"/><stop offset="1" stop-color="#318063"/></linearGradient><linearGradient id="linear-gradient-2" x1="119.04" y1="202.39" x2="267.9" y2="187.13" xlink:href="#linear-gradient"/><linearGradient id="linear-gradient-3" x1="1453.04" y1="497.8" x2="1633.32" y2="381.42" gradientTransform="matrix(-1, 0, 0, 1, 2271.9, 0)" xlink:href="#linear-gradient"/><linearGradient id="linear-gradient-4" x1="1430.94" y1="202.39" x2="1579.8" y2="187.13" gradientTransform="matrix(-1, 0, 0, 1, 2271.9, 0)" xlink:href="#linear-gradient"/><linearGradient id="linear-gradient-5" x1="481.6" y1="532.88" x2="483.18" y2="427.55" xlink:href="#linear-gradient"/><linearGradient id="linear-gradient-6" x1="403.61" y1="134.55" x2="405.19" y2="29.23" gradientTransform="translate(762.17 135.05) rotate(174.54)" xlink:href="#linear-gradient"/><linearGradient id="linear-gradient-7" x1="335.64" y1="501.8" x2="337.22" y2="396.47" gradientTransform="matrix(1, 0.09, 0.09, -1, 260.03, 500.77)" xlink:href="#linear-gradient"/><linearGradient id="linear-gradient-8" x1="351.9" y1="-66.2" x2="512.14" y2="339.63" gradientUnits="userSpaceOnUse"><stop offset="0" stop-color="#f8a45b"/><stop offset="0.22" stop-color="#c97f40"/><stop offset="0.47" stop-color="#985825"/><stop offset="0.7" stop-color="#743c11"/><stop offset="0.88" stop-color="#5e2b04"/><stop offset="1" stop-color="#562500"/></linearGradient><linearGradient id="linear-gradient-9" x1="589.64" y1="546.56" x2="424.31" y2="98.87" gradientUnits="userSpaceOnUse"><stop offset="0" stop-color="#f8a45b"/><stop offset="0.39" stop-color="#cc7937"/><stop offset="0.79" stop-color="#a55318"/><stop offset="1" stop-color="#96440c"/></linearGradient><linearGradient id="linear-gradient-10" x1="426.49" y1="95.93" x2="595.05" y2="582.28" xlink:href="#linear-gradient-9"/><linearGradient id="linear-gradient-11" x1="700.6" y1="220.55" x2="698.59" y2="264.84" gradientUnits="userSpaceOnUse"><stop offset="0.38" stop-color="#96440c"/><stop offset="0.4" stop-color="#9a4810"/><stop offset="0.5" stop-color="#b76427"/></linearGradient><linearGradient id="linear-gradient-12" x1="483.41" y1="355.68" x2="483.95" y2="377.69" xlink:href="#linear-gradient-11"/><linearGradient id="linear-gradient-13" x1="429.56" y1="423.28" x2="428.49" y2="438.31" xlink:href="#linear-gradient-11"/><linearGradient id="linear-gradient-14" x1="271.63" y1="261.75" x2="270.02" y2="276.51" xlink:href="#linear-gradient-11"/><linearGradient id="linear-gradient-15" x1="511.99" y1="300.84" x2="510.38" y2="341.51" xlink:href="#linear-gradient-11"/><linearGradient id="linear-gradient-16" x1="415.3" y1="169.71" x2="411.54" y2="200.31" xlink:href="#linear-gradient-11"/><linearGradient id="linear-gradient-17" x1="635.74" y1="138.81" x2="635.74" y2="150.48" xlink:href="#linear-gradient-11"/></defs><path class="cls-1" d="M211.27,368l.16,0a1.72,1.72,0,0,1,1.13.78l71.8,117a1.63,1.63,0,0,1,.22,1.22,74.87,74.87,0,0,1-2.07,8c-2,6.2-4.2,9-6.87,8.72l-.21,0a1.71,1.71,0,0,1-1.4-2.05c.69-3.22.12-7.32-.61-10.62a56.06,56.06,0,0,0-.5,16.15A1.71,1.71,0,0,1,271.8,509a1.7,1.7,0,0,1-2-.65c-3.07-4.57-3.71-9.66-4.34-14.58-.23-1.82-.46-3.66-.82-5.51a26.19,26.19,0,0,1-5.18,7.29,1.69,1.69,0,0,1-1.34.46,1.65,1.65,0,0,1-.71-.23,1.71,1.71,0,0,1-.78-1.92,17.6,17.6,0,0,0,.17-4.7,46.66,46.66,0,0,1-1.26,4.5,1.7,1.7,0,0,1-1.78,1.14h-.13a1.72,1.72,0,0,1-1.42-1.71c.06-5.64-2.74-10.88-4.63-13.77a47.13,47.13,0,0,1-7.18,9.7,1.71,1.71,0,0,1-2.42,0,1.71,1.71,0,0,1,0-2.41c.12-.14,2.94-3.34.84-9.49-1.59,3.72-1.68,11.21-1.1,16.41a1.73,1.73,0,0,1-1.37,1.87,1.69,1.69,0,0,1-.5,0,1.71,1.71,0,0,1-1.48-1.22c-.08-.27-1.86-6.42-5.34-23-2.25,2.72-1.66,7.84-1.65,7.9a1.72,1.72,0,0,1-1.46,1.91,1.88,1.88,0,0,1-.41,0,1.73,1.73,0,0,1-1.52-1.42c0-.24-.81-5.09.73-13.77-3.78,2.17-9.21,3.83-13.43,3.42a8,8,0,0,1-5.36-2.4,1.74,1.74,0,0,1-.33-1.77A1.71,1.71,0,0,1,207,464a9.9,9.9,0,0,0,7.46-3.85c2.65-3.58,2.8-8.84,2.56-12.13-2.46,2.26-6.17,6.23-7.49,10.62a1.73,1.73,0,0,1-1.61,1.22h-.2a1.72,1.72,0,0,1-1.45-1.15c-1.8-5.21.57-12.63,2.65-17.55-4.72,3.07-10.56,7.82-11.57,12.49a1.69,1.69,0,0,1-1.47,1.34,1.53,1.53,0,0,1-.37,0,1.75,1.75,0,0,1-1.38-1c-5.59-11.68,1.39-21.88,6.42-27.21a35.49,35.49,0,0,1-6.28,0c-4.6-.45-8.11-1.94-10.44-4.43a1.71,1.71,0,0,1,1.42-2.88c3.22.31,7.55-2.27,11.43-5.35a31.87,31.87,0,0,1-8.11,1.93h-.31a1.74,1.74,0,0,1-1-.42,1.71,1.71,0,0,1-.58-1.21,5.09,5.09,0,0,1,.49-2.24,64.34,64.34,0,0,0-6,7.6,1.7,1.7,0,0,1-1.59.75l-.14,0a1.72,1.72,0,0,1-1.36-1.28c-2.68-11.15,7.24-23.91,12.65-29.86a55.89,55.89,0,0,1-8.1-.13c-5.45-.52-9.19-2-11.1-4.48a1.71,1.71,0,0,1,1.51-2.77,1.76,1.76,0,0,1,.5.13,9.48,9.48,0,0,0,2.82.68c12.21,1.17,33.48-14.32,33.69-14.48A1.71,1.71,0,0,1,211.27,368Z" transform="translate(-152.49 -50.99)"/><path class="cls-2" d="M201.55,390s-16.86,15.77-13.84,28.34c10.46-15.53,22.9-19.05,22.9-19.05s-15.37,10.47-15.15,15c7.57-.63,15.93-6.15,15.93-6.15s-11.45,13-18.93,12.29c5.56,6,18.65,2.75,18.65,2.75s-16,11.68-9.14,26c1.7-7.86,15.43-14.72,15.43-14.72s-6.83,12.25-4.47,19.09c2-6.66,9.38-12.09,9.38-12.09s3.61,17.59-10,18.87c4,4.41,16.38-.72,18.14-3.86-2.52,10.33-1.55,16.09-1.55,16.09s-1-7.89,4-9.88c3.46,16.75,5.24,22.82,5.24,22.82s-1.65-14.8,2.91-17.9c4.17,8.19,0,12.58,0,12.58s5.56-5.67,7.2-10.71c0,0,6.13,7.2,6.05,15.46,0,0,3.26-9.37,1.46-15.21,3.93,10.77,2.45,16.3,2.45,16.3s6.69-6.39,5.17-12.35c3.94,8.5,1.7,17,6.45,24.1-1.35-12.89,2-20.37,2-20.37s3.41,9.31,2.07,15.56c3.7.59,6.46-13.79,6.46-13.79l-64.46-105s-23.38,17.17-34.29,12.57C185.73,392.16,201.55,390,201.55,390Z" transform="translate(-152.49 -50.99)"/><path class="cls-3" d="M234.82,122.76a.79.79,0,0,1,.12.15,2,2,0,0,1,.32,1.54l-32.79,153.3a1.92,1.92,0,0,1-.78,1.18,86.54,86.54,0,0,1-8.05,5c-6.56,3.54-10.54,4.11-12.55,1.79l-.15-.18a2,2,0,0,1-.37-1.5,1.94,1.94,0,0,1,.83-1.3c3.1-2.12,5.87-6,7.86-9.26a63.85,63.85,0,0,0-13.14,13,2,2,0,0,1-3.48-1.52c1.06-6.2,4.54-10.92,7.9-15.48,1.24-1.69,2.5-3.4,3.67-5.21a29.93,29.93,0,0,1-10,1.95,2,2,0,0,1-1.48-.68,1.9,1.9,0,0,1-.41-.75,2,2,0,0,1,.87-2.2,19.84,19.84,0,0,0,3.85-3.75,52.88,52.88,0,0,1-4.59,2.73,2,2,0,0,1-2.37-.46L170,261a2,2,0,0,1,.17-2.53c4.5-4.61,6.31-11.15,7-15a54.12,54.12,0,0,1-13.58,2.36,2,2,0,0,1-.15-3.91c.21,0,5.06-.44,8.17-7.19-4.25,1.83-10.23,8-13.84,12.7a2,2,0,0,1-2.61.47,1.91,1.91,0,0,1-.43-.37,2,2,0,0,1-.26-2.18c.15-.28,3.52-6.78,13.72-23.23-4,.47-7.55,5.17-7.6,5.23a2,2,0,0,1-2.7.43,2.15,2.15,0,0,1-.35-.32,2,2,0,0,1-.14-2.37c.15-.23,3.34-4.85,11.45-10.81-4.83-1.19-10.62-4.1-13.8-7.76a9.13,9.13,0,0,1-2.53-6.21,1.93,1.93,0,0,1,1.12-1.72,2,2,0,0,1,2,.23c3,2.36,6,3.24,9.2,2.69,5-.86,9.28-5.1,11.68-8-3.82-.07-10,.28-14.57,2.87a2,2,0,0,1-2.29-.26c-.05-.05-.11-.1-.16-.16a2,2,0,0,1-.29-2.1c2.61-5.72,10.43-10,16-12.42-6.32-1.18-14.9-1.85-19.41,1.22a2,2,0,0,1-2.28-.06,2,2,0,0,1-.3-.28,2,2,0,0,1-.38-1.89c4.58-14.07,18.39-17,26.75-17.44a41.66,41.66,0,0,1-5.2-4.95c-3.45-4-5.18-8-5.14-11.89a2,2,0,0,1,3.44-1.26c2.42,2.8,8,4.07,13.67,4.58a36,36,0,0,1-8.22-4.79,2.06,2.06,0,0,1-.26-.25,2,2,0,0,1-.47-1.1,2,2,0,0,1,.47-1.46,5.72,5.72,0,0,1,2.18-1.46,71.68,71.68,0,0,0-10.95,1.56,2,2,0,0,1-1.9-.63,1.47,1.47,0,0,1-.1-.13A1.94,1.94,0,0,1,167,139c6.56-11.33,24.83-14.07,34-14.73a63.07,63.07,0,0,1-6.6-6.48c-4.1-4.73-6-8.93-5.65-12.47a2,2,0,0,1,1.65-1.74,1.94,1.94,0,0,1,1.78.65,2,2,0,0,1,.32.5,10.9,10.9,0,0,0,1.79,2.78c9.18,10.6,39,14.55,39.27,14.58A2,2,0,0,1,234.82,122.76Z" transform="translate(-152.49 -50.99)"/><path class="cls-2" d="M209.72,133.46S183.43,133.21,176,146c20.83-4.58,33.86,2.29,33.86,2.29s-20.9-3.45-24.3.48c6.74,5.42,18,7.44,18,7.44s-19.67,1.74-25.27-4.74c-.1,9.3,13.22,16.92,13.22,16.92s-22.39-3-28,14.29c7.58-5.15,24.29,0,24.29,0s-15.25,4.74-18.68,12.23c6.88-3.91,17.23-2.59,17.23-2.59s-10.85,17.33-23.1,7.68c-.15,6.78,14.07,12.27,18,11.06-10.19,6.54-13.92,12-13.92,12s5.37-7.28,11.09-5C168.12,234.6,164.81,241,164.81,241s10.27-13.49,16.47-12.48c-3,10-9.92,10.36-9.92,10.36s9-.32,14.35-3.18c0,0-.6,10.75-7.16,17.5,0,0,10-5.16,13.16-11.4-5.23,12-10.79,15.36-10.79,15.36s10.53,0,14-6.11c-3.43,10.1-12,15.37-13.61,24.93,9-11.69,17.62-15.24,17.62-15.24s-4.51,10.34-10.52,14.45c2.58,3.39,16.16-6.29,16.16-6.29l29.35-137.22s-32.76-4.22-38.14-16.58C195,122.82,209.72,133.46,209.72,133.46Z" transform="translate(-152.49 -50.99)"/><path class="cls-4" d="M748.73,368l-.16,0a1.72,1.72,0,0,0-1.13.78l-71.8,117a1.63,1.63,0,0,0-.22,1.22,74.87,74.87,0,0,0,2.07,8c2,6.2,4.2,9,6.87,8.72l.21,0a1.71,1.71,0,0,0,1.4-2.05c-.69-3.22-.12-7.32.61-10.62a56.06,56.06,0,0,1,.5,16.15A1.71,1.71,0,0,0,688.2,509a1.7,1.7,0,0,0,2-.65c3.07-4.57,3.71-9.66,4.34-14.58.23-1.82.46-3.66.82-5.51a26.19,26.19,0,0,0,5.18,7.29,1.69,1.69,0,0,0,1.34.46,1.65,1.65,0,0,0,.71-.23,1.71,1.71,0,0,0,.78-1.92,17.6,17.6,0,0,1-.17-4.7,46.66,46.66,0,0,0,1.26,4.5,1.7,1.7,0,0,0,1.78,1.14h.13a1.72,1.72,0,0,0,1.42-1.71c-.06-5.64,2.74-10.88,4.63-13.77a47.13,47.13,0,0,0,7.18,9.7,1.71,1.71,0,0,0,2.42,0,1.71,1.71,0,0,0,0-2.41c-.12-.14-2.94-3.34-.84-9.49,1.59,3.72,1.68,11.21,1.1,16.41a1.73,1.73,0,0,0,1.37,1.87,1.69,1.69,0,0,0,.5,0,1.71,1.71,0,0,0,1.48-1.22c.08-.27,1.86-6.42,5.34-23,2.25,2.72,1.66,7.84,1.65,7.9a1.72,1.72,0,0,0,1.46,1.91,1.88,1.88,0,0,0,.41,0,1.73,1.73,0,0,0,1.52-1.42c0-.24.81-5.09-.73-13.77,3.78,2.17,9.21,3.83,13.43,3.42a8,8,0,0,0,5.36-2.4,1.74,1.74,0,0,0,.33-1.77A1.71,1.71,0,0,0,753,464a9.9,9.9,0,0,1-7.46-3.85c-2.65-3.58-2.8-8.84-2.56-12.13,2.46,2.26,6.17,6.23,7.49,10.62a1.73,1.73,0,0,0,1.61,1.22h.2a1.72,1.72,0,0,0,1.45-1.15c1.8-5.21-.57-12.63-2.65-17.55,4.72,3.07,10.56,7.82,11.57,12.49a1.69,1.69,0,0,0,1.47,1.34,1.53,1.53,0,0,0,.37,0,1.75,1.75,0,0,0,1.38-1c5.59-11.68-1.39-21.88-6.42-27.21a35.49,35.49,0,0,0,6.28,0c4.6-.45,8.11-1.94,10.44-4.43a1.71,1.71,0,0,0-1.42-2.88c-3.22.31-7.55-2.27-11.43-5.35a31.87,31.87,0,0,0,8.11,1.93h.31a1.74,1.74,0,0,0,1-.42,1.71,1.71,0,0,0,.58-1.21,5.09,5.09,0,0,0-.49-2.24,64.34,64.34,0,0,1,6,7.6,1.7,1.7,0,0,0,1.59.75l.14,0a1.72,1.72,0,0,0,1.36-1.28c2.68-11.15-7.24-23.91-12.65-29.86a55.89,55.89,0,0,0,8.1-.13c5.45-.52,9.19-2,11.1-4.48a1.71,1.71,0,0,0-1.51-2.77,1.76,1.76,0,0,0-.5.13,9.48,9.48,0,0,1-2.82.68c-12.21,1.17-33.48-14.32-33.69-14.48A1.71,1.71,0,0,0,748.73,368Z" transform="translate(-152.49 -50.99)"/><path class="cls-2" d="M758.45,390s16.86,15.77,13.84,28.34c-10.46-15.53-22.9-19.05-22.9-19.05s15.37,10.47,15.15,15c-7.57-.63-15.93-6.15-15.93-6.15s11.45,13,18.93,12.29c-5.56,6-18.65,2.75-18.65,2.75s16,11.68,9.14,26c-1.7-7.86-15.43-14.72-15.43-14.72s6.83,12.25,4.47,19.09c-2-6.66-9.38-12.09-9.38-12.09s-3.61,17.59,10,18.87c-4,4.41-16.38-.72-18.14-3.86,2.52,10.33,1.55,16.09,1.55,16.09s1-7.89-4-9.88c-3.46,16.75-5.24,22.82-5.24,22.82s1.65-14.8-2.91-17.9c-4.17,8.19,0,12.58,0,12.58s-5.56-5.67-7.2-10.71c0,0-6.13,7.2-6,15.46,0,0-3.26-9.37-1.46-15.21-3.93,10.77-2.45,16.3-2.45,16.3s-6.69-6.39-5.17-12.35c-3.94,8.5-1.7,17-6.45,24.1,1.35-12.89-2-20.37-2-20.37s-3.41,9.31-2.07,15.56c-3.7.59-6.46-13.79-6.46-13.79l64.46-105s23.38,17.17,34.29,12.57C774.27,392.16,758.45,390,758.45,390Z" transform="translate(-152.49 -50.99)"/><path class="cls-5" d="M725.18,122.76a.79.79,0,0,0-.12.15,2,2,0,0,0-.32,1.54l32.79,153.3a1.92,1.92,0,0,0,.78,1.18,86.54,86.54,0,0,0,8.05,5c6.56,3.54,10.54,4.11,12.55,1.79.05-.05.1-.12.15-.18a2,2,0,0,0,.37-1.5,1.94,1.94,0,0,0-.83-1.3c-3.1-2.12-5.87-6-7.86-9.26a63.85,63.85,0,0,1,13.14,13,2,2,0,0,0,3.48-1.52c-1.06-6.2-4.54-10.92-7.9-15.48-1.24-1.69-2.5-3.4-3.67-5.21a29.93,29.93,0,0,0,10,1.95,2,2,0,0,0,1.48-.68,1.9,1.9,0,0,0,.41-.75,2,2,0,0,0-.87-2.2,19.84,19.84,0,0,1-3.85-3.75,52.88,52.88,0,0,0,4.59,2.73,2,2,0,0,0,2.37-.46l.1-.12a2,2,0,0,0-.17-2.53c-4.5-4.61-6.31-11.15-7-15a54.12,54.12,0,0,0,13.58,2.36,2,2,0,0,0,.15-3.91c-.21,0-5.06-.44-8.17-7.19,4.25,1.83,10.23,8,13.84,12.7a2,2,0,0,0,2.61.47,1.91,1.91,0,0,0,.43-.37,2,2,0,0,0,.26-2.18c-.15-.28-3.52-6.78-13.72-23.23,4,.47,7.55,5.17,7.6,5.23a2,2,0,0,0,2.7.43,2.15,2.15,0,0,0,.35-.32,2,2,0,0,0,.14-2.37c-.15-.23-3.34-4.85-11.45-10.81,4.83-1.19,10.62-4.1,13.8-7.76a9.13,9.13,0,0,0,2.53-6.21,1.93,1.93,0,0,0-1.12-1.72,2,2,0,0,0-2,.23c-3,2.36-6,3.24-9.2,2.69-5-.86-9.28-5.1-11.68-8,3.82-.07,10,.28,14.57,2.87a2,2,0,0,0,2.29-.26l.16-.16a2,2,0,0,0,.29-2.1c-2.61-5.72-10.43-10-16-12.42,6.32-1.18,14.9-1.85,19.41,1.22a2,2,0,0,0,2.28-.06,2,2,0,0,0,.3-.28,2,2,0,0,0,.38-1.89c-4.58-14.07-18.39-17-26.75-17.44a41.66,41.66,0,0,0,5.2-4.95c3.45-4,5.18-8,5.14-11.89a2,2,0,0,0-3.44-1.26c-2.42,2.8-8,4.07-13.67,4.58a36,36,0,0,0,8.22-4.79,2.06,2.06,0,0,0,.26-.25,2,2,0,0,0,.47-1.1,2,2,0,0,0-.47-1.46,5.72,5.72,0,0,0-2.18-1.46,71.68,71.68,0,0,1,11,1.56,2,2,0,0,0,1.9-.63,1.47,1.47,0,0,0,.1-.13A1.94,1.94,0,0,0,793,139c-6.56-11.33-24.83-14.07-34-14.73a63.07,63.07,0,0,0,6.6-6.48c4.1-4.73,6-8.93,5.65-12.47a2,2,0,0,0-1.65-1.74,1.94,1.94,0,0,0-1.78.65,2,2,0,0,0-.32.5,10.9,10.9,0,0,1-1.79,2.78c-9.18,10.6-39,14.55-39.27,14.58A2,2,0,0,0,725.18,122.76Z" transform="translate(-152.49 -50.99)"/><path class="cls-2" d="M750.28,133.46S776.57,133.21,784,146c-20.83-4.58-33.86,2.29-33.86,2.29s20.9-3.45,24.3.48c-6.74,5.42-18,7.44-18,7.44s19.67,1.74,25.27-4.74c.1,9.3-13.22,16.92-13.22,16.92s22.39-3,28,14.29c-7.58-5.15-24.29,0-24.29,0s15.25,4.74,18.68,12.23c-6.88-3.91-17.23-2.59-17.23-2.59s10.85,17.33,23.1,7.68c.15,6.78-14.07,12.27-18,11.06,10.19,6.54,13.92,12,13.92,12s-5.37-7.28-11.09-5C791.88,234.6,795.19,241,795.19,241s-10.27-13.49-16.47-12.48c3,10,9.92,10.36,9.92,10.36s-9-.32-14.35-3.18c0,0,.6,10.75,7.16,17.5,0,0-10.05-5.16-13.16-11.4,5.23,12,10.79,15.36,10.79,15.36s-10.53,0-14-6.11c3.43,10.1,12,15.37,13.61,24.93-9-11.69-17.62-15.24-17.62-15.24s4.51,10.34,10.52,14.45c-2.58,3.39-16.16-6.29-16.16-6.29L726.12,131.68s32.76-4.22,38.14-16.58C765,122.82,750.28,133.46,750.28,133.46Z" transform="translate(-152.49 -50.99)"/><path class="cls-6" d="M408,444.66l.12-.13a1.78,1.78,0,0,1,1.39-.5l146.42,9.42a1.85,1.85,0,0,1,1.21.56,82.14,82.14,0,0,1,5.73,6.77c4.18,5.59,5.25,9.2,3.38,11.38l-.15.16a1.84,1.84,0,0,1-2.66,0c-2.38-2.58-6.32-4.62-9.65-6a59.93,59.93,0,0,0,13.8,10.41,1.83,1.83,0,0,1,.87,2.08,1.69,1.69,0,0,1-.38.71,1.86,1.86,0,0,1-1.43.64c-5.88-.14-10.72-2.72-15.41-5.21-1.73-.92-3.48-1.85-5.32-2.68a27.94,27.94,0,0,1,3.17,9,1.81,1.81,0,0,1-.42,1.46,1.89,1.89,0,0,1-.64.48,1.83,1.83,0,0,1-2.16-.5,18.45,18.45,0,0,0-4-3.05c1.85,2.07,3,3.71,3.15,3.87a1.83,1.83,0,0,1-.11,2.26l-.09.11a1.84,1.84,0,0,1-2.37.18c-4.88-3.53-11.19-4.31-14.88-4.44a50.06,50.06,0,0,1,4,12.25,1.83,1.83,0,0,1-3.6.68c0-.2-1.1-4.63-7.77-6.59,2.28,3.69,8.76,8.39,13.65,11.09a1.81,1.81,0,0,1,.79,2.34,1.71,1.71,0,0,1-.28.45,1.83,1.83,0,0,1-2,.54c-.27-.09-6.75-2.33-23.38-9.53,1,3.64,5.82,6.29,5.88,6.32a1.83,1.83,0,0,1,.77,2.44,1.6,1.6,0,0,1-.25.37,1.83,1.83,0,0,1-2.18.45c-.23-.11-4.94-2.42-11.57-9.12-.44,4.63-2.34,10.4-5.3,13.83a8.55,8.55,0,0,1-5.4,3.2,1.84,1.84,0,0,1-1.82-2.73c1.78-3.1,2.19-6,1.24-8.89-1.49-4.52-6-7.9-9-9.72.45,3.54,1.63,9.23,4.64,13.09a1.85,1.85,0,0,1,.08,2.16l-.13.17a1.84,1.84,0,0,1-1.9.56c-5.66-1.64-10.68-8.3-13.7-13.14-.23,6,.32,14.05,3.78,17.81a1.82,1.82,0,0,1,.26,2.11,1.51,1.51,0,0,1-.22.32,1.82,1.82,0,0,1-1.69.61c-13.66-2.32-18.26-14.7-19.81-22.39a37.21,37.21,0,0,1-3.87,5.49c-3.23,3.75-6.7,5.9-10.31,6.39a1.83,1.83,0,0,1-1.64-3c2.26-2.63,2.68-8,2.38-13.29a34,34,0,0,1-3.32,8.27,1.65,1.65,0,0,1-.19.27,1.8,1.8,0,0,1-1,.58,1.84,1.84,0,0,1-1.41-.23,5.45,5.45,0,0,1-1.65-1.82,67.94,67.94,0,0,0,2.94,9.93,1.83,1.83,0,0,1-.32,1.84l-.11.11a1.83,1.83,0,0,1-2,.4c-11.39-4.53-16.42-21.07-18.28-29.46a59.6,59.6,0,0,1-5.1,7c-3.82,4.44-7.45,6.77-10.77,6.93a1.83,1.83,0,0,1-1.06-3.38,10.69,10.69,0,0,0,2.33-2.05c8.56-9.94,8.14-38.07,8.14-38.35A1.82,1.82,0,0,1,408,444.66Z" transform="translate(-152.49 -50.99)"/><path class="cls-2" d="M422.2,464.86s3.29,23.92,15.86,28.92c-6.95-18.3-2.46-31-2.46-31s-.33,19.43,3.69,22c4-6.85,4.35-17.32,4.35-17.32s4.21,17.63-.92,23.59c8.46-1.15,13.59-14.28,13.59-14.28s.32,20.73,16.74,23.52c-5.7-6.2-3.27-22.06-3.27-22.06s6.34,13.22,13.6,15.33c-4.47-5.73-4.66-15.31-4.66-15.31s17.2,7.54,10.07,20c6.18-.77,9.26-14.43,7.64-17.82,7.3,8.38,12.81,11,12.81,11s-7.34-3.91-6-9.41c16.39,7.14,22.66,9.29,22.66,9.29s-13.64-7.53-13.55-13.29c9.52,1.39,10.74,7.62,10.74,7.62s-1.5-8.16-4.81-12.61c0,0,9.85-.89,16.85,4.17,0,0-6-8.44-12.11-10.43,11.56,3.15,15.39,7.74,15.39,7.74S537,464.89,531,462.59c9.63,1.76,15.56,8.82,24.47,9-11.82-6.61-16.21-13.95-16.21-13.95s10,2.7,14.53,7.61c2.74-2.8-7.87-13.83-7.87-13.83l-128.55-8.28s.56,30.32-10,36.86C414.51,479.68,422.2,464.86,422.2,464.86Z" transform="translate(-152.49 -50.99)"/><path class="cls-7" d="M429.27,120.33a.76.76,0,0,1-.11.14,1.82,1.82,0,0,1-1.32.64l-146.66,4.54a1.78,1.78,0,0,1-1.25-.44,76.78,76.78,0,0,1-6.36-6.19c-4.69-5.17-6.1-8.66-4.44-11l.13-.18a1.84,1.84,0,0,1,1.28-.67,1.77,1.77,0,0,1,1.37.46c2.62,2.34,6.73,4,10.18,5.07a59.78,59.78,0,0,0-14.73-9,1.82,1.82,0,0,1-1.06-2,1.79,1.79,0,0,1,.31-.75,1.85,1.85,0,0,1,1.36-.77c5.87-.42,10.94,1.68,15.84,3.72,1.81.75,3.64,1.51,5.55,2.16a28.4,28.4,0,0,1-4-8.68,1.83,1.83,0,0,1,3.07-1.74,18.42,18.42,0,0,0,4.27,2.66,48.9,48.9,0,0,1-3.51-3.56,1.83,1.83,0,0,1-.11-2.25l.09-.12a1.83,1.83,0,0,1,2.33-.41c5.2,3,11.55,3.23,15.24,3a50.63,50.63,0,0,1-5.19-11.81,1.86,1.86,0,0,1,.27-1.56,1.79,1.79,0,0,1,1-.7,1.82,1.82,0,0,1,2.26,1.24c.06.19,1.54,4.51,8.36,5.82-2.61-3.46-9.52-7.51-14.64-9.74a1.83,1.83,0,0,1-1-2.26,2.16,2.16,0,0,1,.24-.48,1.84,1.84,0,0,1,1.92-.72c.29.07,6.95,1.68,24.19,7.26-1.33-3.53-6.39-5.7-6.46-5.73a1.83,1.83,0,0,1-1-2.36,1.47,1.47,0,0,1,.21-.39,1.82,1.82,0,0,1,2.13-.65c.23.08,5.14,1.94,12.38,8,0-4.66,1.34-10.57,4-14.28a8.56,8.56,0,0,1,5.07-3.69,1.83,1.83,0,0,1,2.07,2.54c-1.47,3.26-1.6,6.19-.38,9,1.91,4.36,6.71,7.29,9.88,8.82-.79-3.49-2.5-9-5.87-12.6a1.83,1.83,0,0,1-.28-2.13l.12-.18a1.84,1.84,0,0,1,1.83-.75c5.79,1.1,11.43,7.25,14.89,11.79-.34-6-1.66-14-5.46-17.37a1.83,1.83,0,0,1-.46-2.08,2,2,0,0,1,.19-.35,1.84,1.84,0,0,1,1.63-.76c13.81,1,19.57,12.9,21.85,20.4a37.06,37.06,0,0,1,3.33-5.83c2.85-4,6.1-6.51,9.65-7.34a1.83,1.83,0,0,1,1.92,2.84c-2,2.83-1.9,8.22-1.1,13.46a33.89,33.89,0,0,1,2.51-8.55,1.69,1.69,0,0,1,.17-.29,1.8,1.8,0,0,1,.89-.67,1.82,1.82,0,0,1,1.43.1A5.28,5.28,0,0,1,401,74.54a67.19,67.19,0,0,0-3.87-9.6,1.84,1.84,0,0,1,.14-1.87l.1-.12a1.82,1.82,0,0,1,1.91-.58c11.77,3.43,18.35,19.41,21,27.59a59.75,59.75,0,0,1,4.42-7.45c3.38-4.78,6.76-7.45,10.06-7.92a1.82,1.82,0,0,1,1.37,3.26,10.75,10.75,0,0,0-2.12,2.26c-7.58,10.71-4.48,38.68-4.45,39A1.81,1.81,0,0,1,429.27,120.33Z" transform="translate(-152.49 -50.99)"/><path class="cls-2" d="M413.19,101.57s-5.56-23.49-18.54-27.27c8.66,17.55,5.4,30.68,5.4,30.68s-1.52-19.39-5.77-21.56c-3.35,7.2-2.68,17.66-2.68,17.66s-5.87-17.15-1.33-23.57C382,79.46,378.1,93,378.1,93s-2.29-20.61-18.9-21.82c6.26,5.62,5.36,21.64,5.36,21.64s-7.57-12.55-15-14c5,5.28,6.1,14.79,6.1,14.79s-17.83-5.86-11.92-18.91c-6.08,1.36-7.85,15.25-5.91,18.47-8.07-7.64-13.8-9.76-13.8-9.76s7.68,3.19,6.88,8.8c-17-5.55-23.44-7.1-23.44-7.1s14.29,6.2,14.74,11.94c-9.6-.47-11.4-6.56-11.4-6.56s2.27,8,6,12.09c0,0-9.73,1.83-17.18-2.54,0,0,6.81,7.83,13.05,9.23-11.81-2-16.06-6.25-16.06-6.25s2.32,9.39,8.52,11.11c-9.76-.84-16.34-7.3-25.22-6.66,12.4,5.46,17.46,12.35,17.46,12.35s-10.21-1.74-15.19-6.19c-2.46,3,9.16,13,9.16,13l128.75-4s-3.44-30.13,6.4-37.65C419.43,86.09,413.19,101.57,413.19,101.57Z" transform="translate(-152.49 -50.99)"/><path class="cls-8" d="M558.71,112.84a.76.76,0,0,0,.11.14,1.83,1.83,0,0,0,1.33.63l146.67,4a1.83,1.83,0,0,0,1.25-.45,79.61,79.61,0,0,0,6.34-6.22c4.66-5.18,6.06-8.68,4.39-11l-.13-.18a1.84,1.84,0,0,0-2.65-.21c-2.61,2.36-6.71,4-10.16,5.12a59.76,59.76,0,0,1,14.69-9.1,1.83,1.83,0,0,0,1.06-2,1.94,1.94,0,0,0-.31-.74,1.86,1.86,0,0,0-1.37-.76c-5.87-.4-10.93,1.72-15.82,3.77-1.81.76-3.64,1.53-5.54,2.19a28.47,28.47,0,0,0,4-8.7,1.86,1.86,0,0,0-.88-2,1.85,1.85,0,0,0-2.2.3,18.12,18.12,0,0,1-4.26,2.68c2-1.89,3.36-3.42,3.5-3.57a1.83,1.83,0,0,0,.1-2.26.48.48,0,0,0-.09-.11,1.81,1.81,0,0,0-2.33-.4C691.2,87,684.85,87.18,681.16,87a50.11,50.11,0,0,0,5.14-11.83A1.83,1.83,0,0,0,685,72.89a1.82,1.82,0,0,0-2.26,1.25c-.06.19-1.52,4.51-8.34,5.85,2.6-3.47,9.49-7.55,14.61-9.79a1.85,1.85,0,0,0,1-2.27,2.16,2.16,0,0,0-.24-.48,1.85,1.85,0,0,0-1.93-.71c-.29.07-6.94,1.71-24.16,7.35,1.32-3.53,6.37-5.72,6.44-5.75a1.84,1.84,0,0,0,1-2.37,1.28,1.28,0,0,0-.21-.38,1.82,1.82,0,0,0-2.13-.65c-.24.09-5.14,2-12.36,8,0-4.66-1.37-10.57-4-14.26A8.58,8.58,0,0,0,647.34,55a1.83,1.83,0,0,0-2.05,2.55,10.56,10.56,0,0,1,.42,9c-1.9,4.37-6.69,7.32-9.86,8.86.78-3.49,2.47-9,5.83-12.62a1.83,1.83,0,0,0,.26-2.14,1.74,1.74,0,0,0-.11-.18,1.82,1.82,0,0,0-1.84-.73c-5.78,1.12-11.39,7.28-14.83,11.84.31-6,1.6-14,5.38-17.4A1.83,1.83,0,0,0,631,52.1a2.33,2.33,0,0,0-.2-.34,1.83,1.83,0,0,0-1.63-.76c-13.81,1.06-19.52,13-21.76,20.49a38.09,38.09,0,0,0-3.36-5.82c-2.87-4-6.13-6.48-9.68-7.3a1.84,1.84,0,0,0-1.91,2.85c2,2.82,1.94,8.21,1.16,13.45a34,34,0,0,0-2.55-8.54,1.69,1.69,0,0,0-.17-.29,1.82,1.82,0,0,0-2.33-.56,5.56,5.56,0,0,0-1.81,1.65,67.4,67.4,0,0,1,3.84-9.61,1.83,1.83,0,0,0-.16-1.87.94.94,0,0,0-.09-.12,1.83,1.83,0,0,0-1.92-.57c-11.75,3.47-18.27,19.48-20.89,27.67A60.67,60.67,0,0,0,563.1,75c-3.4-4.77-6.8-7.42-10.1-7.88A1.83,1.83,0,0,0,551.26,70a1.6,1.6,0,0,0,.38.4,10.24,10.24,0,0,1,2.13,2.25c7.62,10.68,4.64,38.66,4.61,38.94A1.81,1.81,0,0,0,558.71,112.84Z" transform="translate(-152.49 -50.99)"/><path class="cls-2" d="M574.72,94s5.46-23.51,18.43-27.35c-8.59,17.59-5.28,30.7-5.28,30.7S589.32,78,593.56,75.8c3.37,7.18,2.75,17.64,2.75,17.64s5.8-17.17,1.23-23.57c8.32,1.92,12.24,15.46,12.24,15.46s2.21-20.62,18.81-21.9c-6.24,5.65-5.28,21.67-5.28,21.67s7.53-12.58,15-14c-5,5.3-6,14.81-6,14.81S650,80,644.07,66.94c6.08,1.33,7.91,15.21,6,18.45,8-7.68,13.77-9.82,13.77-9.82s-7.67,3.22-6.84,8.83c17-5.62,23.4-7.19,23.4-7.19s-14.26,6.25-14.69,12c9.6-.51,11.38-6.61,11.38-6.61s-2.24,8-5.94,12.12c0,0,9.73,1.79,17.16-2.61,0,0-6.78,7.86-13,9.28,11.8-2.08,16-6.3,16-6.3s-2.29,9.39-8.48,11.13c9.76-.87,16.3-7.35,25.19-6.75-12.38,5.51-17.41,12.42-17.41,12.42s10.2-1.78,15.16-6.25c2.47,3-9.1,13.05-9.1,13.05l-128.77-3.49s3.32-30.14-6.54-37.62C568.42,78.56,574.72,94,574.72,94Z" transform="translate(-152.49 -50.99)"/><path class="cls-9" d="M767,208.85c-1.14,10.36,11.48,22.24,10.34,32.61s-16.06,19.2-17.2,29.56,11.48,22.24,10.33,32.6-16.05,19.21-17.2,29.57,11.48,22.24,10.34,32.6-16.06,19.2-17.2,29.56,11.48,22.24,10.34,32.61-16.06,19.19-17.2,29.56c0,.26-.06.52-.07.79A23.91,23.91,0,0,1,708,479.85a34.92,34.92,0,0,0-7.93-1.79c-14.54-1.34-30.23,11.26-44.79,10.19S627,472.43,612.43,471.62,582.64,484,568.05,483.46s-28.81-14.79-43.4-15.06-29.32,13.45-43.92,13.45-29.32-13.71-43.92-13.45-28.81,14.52-43.4,15.06S363.6,470.82,349,471.62s-28.26,15.57-42.82,16.63S276,476.72,261.42,478.06a34.92,34.92,0,0,0-7.93,1.79A23.91,23.91,0,0,1,222,458.31c0-.27,0-.53-.07-.79-1.14-10.37-16.05-19.2-17.2-29.56s11.48-22.25,10.34-32.61-16.06-19.2-17.21-29.56,11.49-22.25,10.35-32.6S192.15,314,191,303.62s11.47-22.24,10.33-32.6-16.05-19.2-17.2-29.56,11.48-22.25,10.34-32.61-16.06-19.2-17.2-29.56,11.48-22.25,10.34-32.61c-.06-.51-.15-1-.25-1.58-3.27-16,10.79-30.08,26.87-27.79l.22,0a1.65,1.65,0,0,1,.31,0,54.64,54.64,0,0,0,13.58.77,35.49,35.49,0,0,0,5.46-1l.25-.06A64.71,64.71,0,0,0,245.11,113c10.8-5,21.45-12,32.6-12.8a34.06,34.06,0,0,1,5.15,0h0l.33,0c15.18,1.3,30.92,11.35,46,10.52a35.25,35.25,0,0,0,5.28-.72l.42-.09a76.78,76.78,0,0,0,15.05-5.43c9.69-4.4,19.36-9.56,29.24-9.92.74,0,1.47,0,2.21,0h.52c16,.77,32.32,12.73,48.31,12.44a44.44,44.44,0,0,0,12.94-2.46c11.65-3.81,23.27-10.78,34.95-11.74.38,0,.76-.06,1.13-.07l1,0h.49c.5,0,1,0,1.52,0s.75,0,1.12.07c11.69,1,23.3,7.93,35,11.74,1.55.51,3.1,1,4.66,1.33a38.63,38.63,0,0,0,8.28,1.13c15.74.29,31.8-11.3,47.57-12.39l.74,0h0c.91,0,1.81,0,2.71,0,11.92.43,23.53,7.86,35.26,12.5a58.72,58.72,0,0,0,9.19,2.89l.26.05a35.08,35.08,0,0,0,5.28.72c14.71.81,30.11-8.8,45-10.43l1-.09a32.5,32.5,0,0,1,5.49-.06c12.61.93,24.58,9.68,36.85,14.66a54.82,54.82,0,0,0,6.5,2.22l.55.14a35.49,35.49,0,0,0,5.46,1,52.56,52.56,0,0,0,12.75-.65l.83-.12a1.76,1.76,0,0,1,.31,0c16.17-2.45,30.37,11.67,27.09,27.75-.1.54-.19,1.07-.25,1.58-1.14,10.36,11.48,22.25,10.34,32.61S768.12,198.49,767,208.85Z" transform="translate(-152.49 -50.99)"/><path class="cls-10" d="M755,204c-1,8.78,8.39,18.71,9.8,27.77a13.06,13.06,0,0,1,.1,3.47c-.64,5.83-5.84,11.16-10.24,16.59-3.09,3.8-5.79,7.64-6.24,11.73-1.1,9.93,11,21.32,9.91,31.25a13.82,13.82,0,0,1-.92,3.5c-2,4.92-6.58,9.55-10.27,14.26-2.68,3.42-4.89,6.89-5.3,10.57-1.09,9.92,11,21.31,9.91,31.24s-15.38,18.4-16.48,28.33,11,21.31,9.9,31.24-15.38,18.4-16.48,28.32c0,.26-.05.51-.06.77a22.91,22.91,0,0,1-30.18,20.63,34.16,34.16,0,0,0-7.6-1.71c-13.93-1.28-29,10.79-42.92,9.77s-27.06-15.17-41-15.94-28.56,11.86-42.54,11.34S536.8,453,522.82,452.72s-28.1,12.89-42.09,12.89-28.1-13.15-42.09-12.89-27.6,13.91-41.59,14.42S368.49,455,354.52,455.8s-27.07,14.92-41,15.94-29-11.05-42.92-9.77a33.91,33.91,0,0,0-7.6,1.71A22.88,22.88,0,0,1,232.88,444a.06.06,0,0,1,0,0c0-.29-.05-.57-.07-.86s0-.51-.07-.77,0-.42-.08-.63c0,0,0,0,0,0-1.62-9.65-15.32-18-16.39-27.67,0-.28,0-.55-.05-.82h0a21.26,21.26,0,0,1,2.28-9.27c.67-1.48,1.41-3,2.18-4.46,2.92-5.68,6.09-11.39,5.5-16.68,0-.24-.06-.47-.1-.69v0c-1.68-9.62-15.31-17.92-16.38-27.61q0-.4-.06-.81v0c-.18-4.45,2.13-9.18,4.56-13.93,2.89-5.61,6-11.25,5.4-16.48,0-.22-.05-.43-.08-.64-1.62-9.66-15.33-18-16.4-27.69,0-.27,0-.53-.06-.79-.36-8.5,8.3-18,9.81-26.69a13.31,13.31,0,0,0,.16-3.77c0-.18,0-.37-.08-.56-1.56-9.68-15.33-18-16.41-27.76,0-.31-.05-.61-.05-.92-.31-9.71,11-20.7,10-30.32,0-.24-.06-.47-.1-.7-1.66-9.63-15.31-17.94-16.38-27.64a10.2,10.2,0,0,1-.07-1.47v-.08c.19-9.56,11-20.27,10-29.69,0-.3-.07-.61-.13-.92s-.06-.36-.1-.55a1.55,1.55,0,0,0,0-.21c-.06-.33-.12-.65-.17-1a22.45,22.45,0,0,1,15.05-24.43,23,23,0,0,1,11.42-1,63.44,63.44,0,0,0,7.93.84,37.21,37.21,0,0,0,5.08-.1,38.2,38.2,0,0,0,8.76-2c11.93-4.06,23.46-12.82,35.55-14.89,1-.17,2-.29,3-.37a30.56,30.56,0,0,1,4.28,0l.43,0c12.49.89,25.39,8.14,37.94,9.83l.28,0a35.23,35.23,0,0,0,5.32.3l1.06,0a46.59,46.59,0,0,0,14.7-3.75c10.54-4.25,21-10.7,31.66-11.65h0c.5,0,1-.07,1.51-.09l1.1,0h.12c14.87.06,30,10.86,44.93,11.88h.15c.86.06,1.74.08,2.61.06a40.09,40.09,0,0,0,10.83-1.86c11.65-3.5,23.27-10.74,34.95-11.74.38,0,.76-.06,1.13-.07l1,0h.49c.5,0,1,0,1.52,0s.75,0,1.12.07c11.69,1,23.3,8.24,35,11.74a41.5,41.5,0,0,0,9.72,1.82h0c.36,0,.72,0,1.08,0,15.57.29,31.48-11.57,47.08-11.94a.24.24,0,0,1,.12,0c.57,0,1.14,0,1.7,0s1,0,1.52.09h0c12.74,1.13,25.13,10.08,37.75,13.81a37.38,37.38,0,0,0,8.34,1.57l.27,0,1.06,0c15,.31,30.61-10.07,45.6-10.25.88,0,1.77,0,2.65.08s2,.2,3,.37c13.71,2.35,26.72,13.31,40.39,16.25a32.89,32.89,0,0,0,3.92.61l.64.05a36.41,36.41,0,0,0,4.44,0,63.44,63.44,0,0,0,7.93-.84,23.29,23.29,0,0,1,3.87-.31,23,23,0,0,1,22.67,19.65,21.74,21.74,0,0,1-.28,7.21c-.1.52-.18,1-.24,1.52a14.46,14.46,0,0,0,.35,4.74c2,8.71,10.49,18.13,9.56,26.5C770.41,185.6,756.13,194.07,755,204Z" transform="translate(-152.49 -50.99)"/><path class="cls-11" d="M753.16,203.64c-.93,8.54,7.91,18.16,9.66,27,.08.43.15.85.19,1.26,0,.14,0,.27,0,.41s0,.4.05.6,0,.37,0,.56c0,.44,0,.88-.07,1.32,0,.19,0,.37-.08.55s-.05.29-.07.44l-.09.39c0,.12-.06.23-.08.35s-.07.24-.11.36a15.84,15.84,0,0,1-.78,2.11c-.06.11-.11.23-.17.34a18.54,18.54,0,0,1-1.06,2l-.32.53q-.62,1-1.32,1.92c-.16.22-.32.45-.5.67-1.83,2.44-4,4.84-5.91,7.26-.56.69-1.09,1.38-1.61,2.07-.13.19-.27.37-.4.55a30.92,30.92,0,0,0-2.1,3.31,4.64,4.64,0,0,0-.23.44l-.23.44c-.21.45-.41.9-.57,1.35-.06.16-.12.32-.17.47a4.43,4.43,0,0,0-.14.44c-.05.15-.1.3-.14.45s-.08.31-.11.46a3.43,3.43,0,0,0-.09.44,8,8,0,0,0-.15.94c-1.09,9.9,11,21.25,9.87,31.14a11.07,11.07,0,0,1-.24,1.38,3.38,3.38,0,0,1-.08.34l-.09.34a15.71,15.71,0,0,1-.8,2.13c-.08.19-.17.37-.26.55s-.13.27-.2.4c-.25.47-.51.94-.8,1.41l-.4.65a58.07,58.07,0,0,1-4,5.35l-.59.7-1.13,1.36-.57.68-.1.12-.65.79a.18.18,0,0,0,0,.07l-.69.85h0c-.23.29-.46.57-.68.86l0,.05-.7.92h0c-.72,1-1.4,2-2,3-.2.34-.39.69-.57,1s-.29.56-.43.84c0,.12-.1.23-.16.35-.14.3-.26.6-.37.9-.06.15-.11.29-.16.43s0,0,0,.05-.09.28-.13.42c-.09.31-.18.61-.25.92,0,.12,0,.24-.08.37s-.05.28-.07.42-.06.39-.09.59c-1,9.36,9.7,20,9.94,29.51a11,11,0,0,1-.06,1.62c-.48,4.35-3.5,8.41-6.82,12.45-4.25,5.15-9,10.24-9.61,15.79-1.09,9.9,11,21.24,9.87,31.14S728,431.24,726.94,441.14q0,.36-.06.75a22.83,22.83,0,0,1-30.07,20.57,33.92,33.92,0,0,0-7.57-1.71c-13.89-1.28-28.88,10.76-42.78,9.74s-27-15.12-40.9-15.88-28.46,11.81-42.39,11.3-27.51-14.12-41.45-14.38-28,12.85-42,12.85-28-13.1-41.95-12.85-27.51,13.87-41.44,14.38-28.47-12.07-42.4-11.3-27,14.86-40.89,15.88-28.89-11-42.78-9.74a33.8,33.8,0,0,0-7.57,1.71,22.76,22.76,0,0,1-8,1.21l-.43,0c-.57,0-1.13-.07-1.68-.14-.34,0-.68-.09-1-.15l-.53-.1-.31-.06-.45-.1-.8-.2-.41-.12-.73-.23-.47-.16-.48-.17c-.31-.12-.61-.24-.92-.38a22.9,22.9,0,0,1-3.1-1.63l-.35-.22a23.48,23.48,0,0,1-4.62-4c-.22-.24-.43-.49-.63-.74l-.32-.4-.3-.4c-.11-.14-.21-.28-.3-.41l-.27-.4c-.3-.43-.57-.87-.84-1.32l-.25-.44-.24-.45c-.08-.16-.16-.31-.23-.47s-.31-.62-.44-.93c-.21-.48-.4-1-.59-1.45h0a25.77,25.77,0,0,1-.76-2.54c0-.18-.08-.35-.11-.53-.08-.35-.14-.7-.21-1.06,0-.16,0-.33-.07-.5a.06.06,0,0,1,0,0c0-.28-.08-.57-.11-.85,0-.1,0-.19,0-.28,0-.3,0-.6-.07-.89,0-.09,0-.17,0-.26s0-.33,0-.49a12.22,12.22,0,0,0-.48-2.3q-.13-.43-.3-.87a19.11,19.11,0,0,0-1.29-2.71c-.16-.27-.31-.55-.48-.82l0-.06c-.17-.27-.34-.55-.52-.82-.87-1.3-1.85-2.58-2.89-3.87l-.35-.43-.35-.43c-.14-.17-.28-.35-.43-.52-1.19-1.44-2.41-2.87-3.56-4.31-.12-.14-.23-.29-.34-.43-.79-1-1.55-2-2.23-3-.1-.14-.19-.29-.28-.43a2.92,2.92,0,0,1-.17-.27c-.08-.12-.16-.24-.23-.37a2.07,2.07,0,0,1-.15-.25c-.09-.14-.17-.29-.26-.44a18.9,18.9,0,0,1-1.37-2.93l-.15-.43a13.38,13.38,0,0,1-.46-1.84l-.06-.39v0h0a1,1,0,0,1,0-.23,18.38,18.38,0,0,1,1.75-8.95c.6-1.46,1.31-2.94,2.06-4.41a86.85,86.85,0,0,0,5.11-10.93c0-.17.11-.34.16-.51h0q.19-.68.36-1.32c0-.13.07-.26.09-.39a13.92,13.92,0,0,0,.35-4.38,1.94,1.94,0,0,0,0-.24c0-.31-.08-.62-.14-.92s-.13-.61-.21-.92c0-.15-.09-.3-.14-.45-.11-.37-.24-.73-.38-1.1s-.19-.46-.3-.7a20.14,20.14,0,0,0-.94-1.85c-.07-.13-.14-.25-.22-.37l-.26-.43-.25-.4a115.38,115.38,0,0,0-7.48-9.53l-.55-.69a32.81,32.81,0,0,1-4.39-6.78l-.19-.45a13.11,13.11,0,0,1-.61-1.76c0-.09,0-.19-.08-.29-.09-.36-.16-.71-.22-1.08,0-.11,0-.22-.05-.34v-.18c-.49-4.47,1.7-9.24,4.16-14,2.94-5.77,6.26-11.59,5.73-17,0,0,0-.08,0-.12-1.08-9.9-15.33-18.35-16.42-28.24,0,0,0-.08,0-.12-.83-8.45,7.82-18,9.63-26.7a13.49,13.49,0,0,0,.26-4.32c-.36-3.25-2.13-6.34-4.4-9.38-4.63-6.22-11.29-12.21-12-18.85a3.4,3.4,0,0,1,0-.45c-.7-9.79,11-20.94,9.9-30.69,0-.11,0-.22,0-.33C205,193.55,191,185.19,190,175.4a11.9,11.9,0,0,1-.07-1.2v-.08c0-9.59,11-20.39,9.94-29.86,0-.24-.06-.5-.1-.75s-.06-.36-.1-.55a1.55,1.55,0,0,0,0-.21c-.06-.33-.12-.65-.17-1a22.38,22.38,0,0,1,14.83-24.47,23.13,23.13,0,0,1,11.52-1,64.07,64.07,0,0,0,8.3.86A34.93,34.93,0,0,0,247.53,115h0c11.85-4.06,23.31-12.74,35.32-14.82h0c1-.17,2-.29,3-.36a30.71,30.71,0,0,1,4.6,0l.43,0c12.51,1,25.4,8.29,37.94,9.83l.28,0a33.48,33.48,0,0,0,5.74.21H335A47.1,47.1,0,0,0,350.16,106c10.38-4.26,20.66-10.54,31.2-11.42.47,0,.93-.07,1.4-.09s1.15,0,1.73,0h.12c14.88.37,30.05,11.23,44.93,11.88h.15c.6,0,1.2,0,1.81,0,16.13-.3,32.14-13.68,48.27-13.68h.48c14.29.23,28.47,10.75,42.74,13.18a33.34,33.34,0,0,0,5.06.49h0c15.93.27,32.22-12.2,48.16-11.9a.24.24,0,0,1,.12,0h.43c.68,0,1.36.08,2.05.15,13,1.35,25.57,10.68,38.45,14.09a36.25,36.25,0,0,0,7.24,1.2l1.16,0h1.07c15.09-.24,30.83-10.77,45.86-10.2q.52,0,1,.06a29.56,29.56,0,0,1,3.63.48c13.93,2.66,27.15,14,41.11,16.37.8.14,1.6.24,2.41.32s1.58.11,2.39.13c1.27,0,2.57,0,3.89-.09a66.36,66.36,0,0,0,6.69-.78,22.54,22.54,0,0,1,5.66-.23,23.2,23.2,0,0,1,6.41,1.46,22.69,22.69,0,0,1,14.42,18.36,22,22,0,0,1-.32,6.88c-.1.51-.18,1-.24,1.51a14.09,14.09,0,0,0,.4,4.93c2.08,8.62,10.39,17.93,9.47,26.21C768.5,185.3,754.26,193.74,753.16,203.64Z" transform="translate(-152.49 -50.99)"/><path class="cls-12" d="M746.61,263c-1.09,9.9,11,21.25,9.87,31.14s-15.33,18.34-16.43,28.24c-1,9.36,9.7,20,9.94,29.51a11,11,0,0,1-.06,1.62c-.48,4.35-3.5,8.41-6.82,12.45-4.25,5.15-9,10.24-9.61,15.79-1.09,9.9,11,21.24,9.87,31.14S728,431.24,726.94,441.14q0,.36-.06.75a22.83,22.83,0,0,1-30.07,20.57,33.92,33.92,0,0,0-7.57-1.71c-13.89-1.28-28.88,10.76-42.78,9.74s-27-15.12-40.9-15.88-28.46,11.81-42.39,11.3-27.51-14.12-41.45-14.38-28,12.85-42,12.85-28-13.1-41.95-12.85-27.51,13.87-41.44,14.38-28.47-12.07-42.4-11.3-27,14.86-40.89,15.88-28.89-11-42.78-9.74a33.8,33.8,0,0,0-7.57,1.71,22.84,22.84,0,0,1-30.08-20.57c0-.26,0-.51-.07-.75-1.08-9.9-15.33-18.35-16.42-28.24a18.38,18.38,0,0,1,1.75-8.95c.6-1.46,1.31-2.94,2.06-4.41,3.05-6,6.68-12.14,6.06-17.78-1.09-9.89-15.33-18.34-16.43-28.24-.49-4.47,1.7-9.24,4.16-14,46.06,16.33,106.82,59.41,232.87,53.57,141.64-6.56,130.17-91.15,316.18-162.42a13.89,13.89,0,0,1,.22,4.15C762,244.67,747.7,253.11,746.61,263Z" transform="translate(-152.49 -50.99)"/><path class="cls-13" d="M764.93,235.25c-.64,5.83-5.84,11.16-10.24,16.59-41.06-3.51-89.56-8.94-118.56-16.63a1.54,1.54,0,0,1,.49-3,1064.55,1064.55,0,0,0,128.21-.4A13.06,13.06,0,0,1,764.93,235.25Z" transform="translate(-152.49 -50.99)"/><path class="cls-14" d="M750,351.9a11,11,0,0,1-.06,1.62c-.48,4.35-3.5,8.41-6.82,12.45-57.42.52-218.19,1.85-255.81,1.11-71.92-1.4-195.9,25.55-269.38,36.87.6-1.46,1.31-2.94,2.06-4.41,54.24-10.71,203.31-38.62,292.11-40.66C609.31,356.64,717.78,353,750,351.9Z" transform="translate(-152.49 -50.99)"/><path class="cls-15" d="M345.65,421.49s90.18,7.77,167.83,3.47C474,436.71,389,436,345.65,421.49Z" transform="translate(-152.49 -50.99)"/><path class="cls-16" d="M335.33,264.35c-20.79,9.88-89.68,5.67-122.66,3a13.49,13.49,0,0,0,.26-4.32c-.36-3.25-2.13-6.34-4.4-9.38C228,258.2,283.55,269.61,335.33,264.35Z" transform="translate(-152.49 -50.99)"/><path class="cls-17" d="M757.44,298.32c-2,4.92-6.58,9.55-10.27,14.26-56.69,11-220.36,22.36-263.22,9.2-46.14-14.15-217.68-11.47-217.68-11.47S371.75,298.64,497.09,317C616.79,334.44,660.12,298.89,757.44,298.32Z" transform="translate(-152.49 -50.99)"/><path class="cls-18" d="M249.25,184.3s73.67-25.73,210.75,0c86.75,16.28,116.81,7.79,116.81,7.79s-88.12,9.52-135.81-3.76S249.25,184.3,249.25,184.3Z" transform="translate(-152.49 -50.99)"/><path class="cls-19" d="M762,149.17c-23.77.18-180.46.75-252.78-15.6,73.51,15.64,201.67,6.66,253,2.13a21.74,21.74,0,0,1-.28,7.21c-.1.52-.18,1-.24,1.52A14.46,14.46,0,0,0,762,149.17Z" transform="translate(-152.49 -50.99)"/></svg>