<svg id="Layer_1" data-name="Layer 1" xmlns="http://www.w3.org/2000/svg" viewBox="0 0 960 219.47"><defs><style>.cls-1,.cls-7{fill:#53381d;}.cls-1,.cls-2,.cls-3,.cls-4,.cls-5{fill-rule:evenodd;}.cls-2,.cls-8{fill:#963;}.cls-3,.cls-6{fill:#ca9560;}.cls-4{fill:#af753b;}.cls-5{fill:#412c17;}</style></defs><g id="g14032"><g id="g14034"><path id="path14036" class="cls-1" d="M36.4,9.87H923.6C941.12,9.87,956,24.68,956,42.18V183.55c0,17.51-14.84,32.32-32.36,32.32H36.4C18.88,215.87,4,201.06,4,183.55V42.18C4,24.68,18.88,9.87,36.4,9.87Z" transform="translate(0 -0.44)"/><path id="path14038" class="cls-2" d="M36.4,3.14H923.6C941.12,3.14,956,18,956,35.45V176.82c0,17.51-14.84,32.32-32.36,32.32H36.4C18.88,209.14,4,194.33,4,176.82V35.45C4,18,18.88,3.14,36.4,3.14Z" transform="translate(0 -0.44)"/><path id="path14040" class="cls-3" d="M37.75,5.83h884.5a30.49,30.49,0,0,1,31,31V175.48c0,16.15-13.48,31-31,31H37.75c-17.53,0-31-14.81-31-31V36.8A30.49,30.49,0,0,1,37.75,5.83Z" transform="translate(0 -0.44)"/><path id="path14042" class="cls-4" d="M37.75,5.83h884.5c16.18,0,31,14.81,31,32.31v136c0,17.5-14.83,31-31,31H37.75c-16.18,0-31-13.47-31-31v-136C6.74,20.64,21.57,5.83,37.75,5.83Z" transform="translate(0 -0.44)"/><path id="path14044" class="cls-5" d="M40.45,11.21h879.1c16.18,0,28.32,12.12,28.32,28.28v132c0,16.15-12.14,29.62-28.32,29.62H40.45c-16.18,0-28.32-13.47-28.32-29.62V39.49C12.13,23.33,24.27,11.21,40.45,11.21Z" transform="translate(0 -0.44)"/></g><g id="g14046"><path id="path14048" class="cls-1" d="M28.31,3.14H48.54V30.06A16.38,16.38,0,0,1,32.36,46.22H0V32.76C0,16.6,12.13,3.14,28.31,3.14Z" transform="translate(0 -0.44)"/><path id="path14050" class="cls-2" d="M28.31.44H45.84l2.7,2.7V27.37c0,8.08-8.09,16.16-16.18,16.16H0V28.72A28.46,28.46,0,0,1,28.31.44Z" transform="translate(0 -0.44)"/><path id="path14052" class="cls-4" d="M48.54,3.14h0V27.37c0,8.08-8.09,16.16-16.18,16.16H2.7V31.41C2.7,16.6,16.18,3.14,32.36,3.14Z" transform="translate(0 -0.44)"/><ellipse id="circle14054" class="cls-6" cx="33.71" cy="29.62" rx="8.09" ry="8.08"/><polygon id="polygon14056" class="cls-1" points="4.04 55.2 0 51.16 0 43.09 4.04 43.09 4.04 55.2"/><polygon id="polygon14058" class="cls-2" points="0 43.09 0 45.78 2.7 43.09 1.35 41.74 0 43.09"/><polygon id="polygon14060" class="cls-1" points="4.04 49.82 6.74 45.78 4.04 45.78 4.04 49.82"/><path id="path14062" class="cls-3" d="M48.54,3.14h0V4.48H32.36C16.18,4.48,4,16.6,4,32.76V43.53H2.7V31.41C2.7,16.6,16.18,3.14,32.36,3.14Z" transform="translate(0 -0.44)"/><ellipse id="circle14064" class="cls-7" cx="33.71" cy="29.62" rx="8.09" ry="8.08"/><ellipse id="circle14066" class="cls-8" cx="33.71" cy="30.97" rx="5.39" ry="5.39"/></g><g id="g14068"><path id="path14070" class="cls-1" d="M931.69,3.14H911.46V30.06a16.38,16.38,0,0,0,16.18,16.16H960V32.76C960,16.6,946.52,3.14,931.69,3.14Z" transform="translate(0 -0.44)"/><path id="path14072" class="cls-2" d="M931.69.44H914.16l-2.7,2.7V27.37c0,8.08,8.09,16.16,16.18,16.16H960V28.72C960,13.91,946.52.44,931.69.44Z" transform="translate(0 -0.44)"/><path id="path14074" class="cls-4" d="M911.46,3.14h0V27.37c0,8.08,8.09,16.16,16.18,16.16H957.3V31.41c0-14.81-13.48-28.27-29.66-28.27Z" transform="translate(0 -0.44)"/><ellipse id="circle14076" class="cls-6" cx="926.29" cy="29.62" rx="8.09" ry="8.08"/><polygon id="polygon14078" class="cls-1" points="955.96 55.2 960 51.16 960 43.09 955.96 43.09 955.96 55.2"/><polygon id="polygon14080" class="cls-2" points="960 43.09 960 45.78 957.3 43.09 958.65 41.74 960 43.09"/><polygon id="polygon14082" class="cls-1" points="955.96 49.82 953.26 45.78 955.96 45.78 955.96 49.82"/><path id="path14084" class="cls-3" d="M911.46,3.14h0V4.48h16.18C943.82,4.48,956,16.6,956,32.76V43.53h1.34V31.41c0-14.81-13.48-28.27-29.66-28.27Z" transform="translate(0 -0.44)"/><ellipse id="circle14086" class="cls-7" cx="926.29" cy="29.62" rx="8.09" ry="8.08"/><ellipse id="circle14088" class="cls-8" cx="926.29" cy="30.97" rx="5.39" ry="5.39"/></g><g id="g14090"><path id="path14092" class="cls-1" d="M28.31,219.91H40.45l5.39-5.39v-31c-4-4-8.09-6.73-13.48-6.73H2.7L0,179.52v12.11A28.46,28.46,0,0,0,28.31,219.91Z" transform="translate(0 -0.44)"/><path id="path14094" class="cls-2" d="M28.31,214.52H45.84l2.7-4V187.59a16.38,16.38,0,0,0-16.18-16.15H2.7L0,174.13V184.9C0,201.06,12.13,214.52,28.31,214.52Z" transform="translate(0 -0.44)"/><path id="path14096" class="cls-4" d="M48.54,211.83V187.59a16.38,16.38,0,0,0-16.18-16.15H2.7v10.77a29.9,29.9,0,0,0,29.66,29.62Z" transform="translate(0 -0.44)"/><path id="path14098" class="cls-3" d="M33.71,194.33c4,0,8.09-4,8.09-8.08,0-5.39-4-9.43-8.09-9.43-5.4,0-8.09,4-8.09,9.43A7.76,7.76,0,0,0,33.71,194.33Z" transform="translate(0 -0.44)"/><path id="path14100" class="cls-3" d="M48.54,211.83v-1.35H32.36C16.18,210.48,4,198.37,4,182.21V171.44H2.7v10.77a29.9,29.9,0,0,0,29.66,29.62Z" transform="translate(0 -0.44)"/><path id="path14102" class="cls-1" d="M33.71,193c4,0,8.09-4,8.09-8.08s-4-8.08-8.09-8.08a8.08,8.08,0,1,0,0,16.16Z" transform="translate(0 -0.44)"/><path id="path14104" class="cls-2" d="M33.71,191.63a5.39,5.39,0,1,0,0-10.77,5.39,5.39,0,1,0,0,10.77Z" transform="translate(0 -0.44)"/><path id="path14106" class="cls-3" d="M48.54,211.83V187.59a16.38,16.38,0,0,0-16.18-16.15H31c9.44,0,16.18,8.08,16.18,17.5v22.89Z" transform="translate(0 -0.44)"/></g><g id="g14108"><path id="path14110" class="cls-1" d="M931.69,219.91H919.55l-5.39-5.39v-31c4-4,8.09-6.73,13.48-6.73H957.3l2.7,2.7v12.11C960,206.44,946.52,219.91,931.69,219.91Z" transform="translate(0 -0.44)"/><path id="path14112" class="cls-2" d="M931.69,214.52H914.16l-2.7-4V187.59a16.38,16.38,0,0,1,16.18-16.15H957.3l2.7,2.69V184.9C960,201.06,946.52,214.52,931.69,214.52Z" transform="translate(0 -0.44)"/><path id="path14114" class="cls-4" d="M911.46,211.83V187.59a16.38,16.38,0,0,1,16.18-16.15H957.3v10.77a29.9,29.9,0,0,1-29.66,29.62Z" transform="translate(0 -0.44)"/><path id="path14116" class="cls-3" d="M926.29,194.33c-4,0-8.09-4-8.09-8.08,0-5.39,4-9.43,8.09-9.43s8.09,4,8.09,9.43C934.38,190.29,930.34,194.33,926.29,194.33Z" transform="translate(0 -0.44)"/><path id="path14118" class="cls-3" d="M911.46,211.83v-1.35h16.18c16.18,0,28.32-12.11,28.32-28.27V171.44h1.34v10.77a29.9,29.9,0,0,1-29.66,29.62Z" transform="translate(0 -0.44)"/><path id="path14120" class="cls-1" d="M926.29,193c-4,0-8.09-4-8.09-8.08s4-8.08,8.09-8.08,8.09,4,8.09,8.08S930.34,193,926.29,193Z" transform="translate(0 -0.44)"/><path id="path14122" class="cls-2" d="M926.29,191.63a5.39,5.39,0,1,1,5.4-5.38A5.8,5.8,0,0,1,926.29,191.63Z" transform="translate(0 -0.44)"/><path id="path14124" class="cls-3" d="M911.46,211.83V187.59a16.38,16.38,0,0,1,16.18-16.15H929c-9.44,0-16.18,8.08-16.18,17.5v22.89Z" transform="translate(0 -0.44)"/></g></g></svg>