<svg id="Layer_1" data-name="Layer 1" xmlns="http://www.w3.org/2000/svg" xmlns:xlink="http://www.w3.org/1999/xlink" viewBox="0 0 960 469.2"><defs><style>.cls-1{fill:none;}.cls-2{fill:#53381d;}.cls-11,.cls-13,.cls-14,.cls-15,.cls-16,.cls-17,.cls-18,.cls-19,.cls-2,.cls-20,.cls-21,.cls-22,.cls-23,.cls-24,.cls-25,.cls-26,.cls-27,.cls-28,.cls-29,.cls-3,.cls-30,.cls-31,.cls-32,.cls-33,.cls-35,.cls-36,.cls-4,.cls-5,.cls-6,.cls-7,.cls-8,.cls-9{fill-rule:evenodd;}.cls-3{fill:#963;}.cls-4{fill:#ca9560;}.cls-5{fill:#af753b;}.cls-6{fill:#4b7507;}.cls-7{fill:url(#radial-gradient);}.cls-10,.cls-8{fill:#b3ff41;}.cls-35,.cls-9{fill:#fff;}.cls-9{fill-opacity:0.2;}.cls-11{fill:url(#radial-gradient-2);}.cls-12{clip-path:url(#clip-path);}.cls-13{fill-opacity:0;fill:url(#linear-gradient);}.cls-14{fill-opacity:0.05;fill:url(#linear-gradient-2);}.cls-15{fill-opacity:0.09;fill:url(#linear-gradient-3);}.cls-16{fill-opacity:0.14;fill:url(#linear-gradient-4);}.cls-17{fill-opacity:0.19;fill:url(#linear-gradient-5);}.cls-18{fill-opacity:0.24;fill:url(#linear-gradient-6);}.cls-19{fill-opacity:0.29;fill:url(#linear-gradient-7);}.cls-20{fill-opacity:0.33;fill:url(#linear-gradient-8);}.cls-21{fill-opacity:0.38;fill:url(#linear-gradient-9);}.cls-22{fill-opacity:0.43;fill:url(#linear-gradient-10);}.cls-23{fill-opacity:0.47;fill:url(#linear-gradient-11);}.cls-24{fill-opacity:0.53;fill:url(#linear-gradient-12);}.cls-25{fill-opacity:0.57;fill:url(#linear-gradient-13);}.cls-26{fill-opacity:0.62;fill:url(#linear-gradient-14);}.cls-27{fill-opacity:0.67;fill:url(#linear-gradient-15);}.cls-28{fill-opacity:0.71;fill:url(#linear-gradient-16);}.cls-29{fill-opacity:0.76;fill:url(#linear-gradient-17);}.cls-30{fill-opacity:0.81;fill:url(#linear-gradient-18);}.cls-31{fill-opacity:0.86;fill:url(#linear-gradient-19);}.cls-32{fill-opacity:0.91;fill:url(#linear-gradient-20);}.cls-33{fill-opacity:0.95;fill:url(#linear-gradient-21);}.cls-34{fill:#c0e04e;}.cls-35{fill-opacity:0.3;}.cls-36{fill:#5d9406;}</style><radialGradient id="radial-gradient" cx="480" cy="295.83" r="437.38" gradientTransform="matrix(1, 0, 0, -1, 0, 560.61)" gradientUnits="userSpaceOnUse"><stop offset="0" stop-color="#92e010"/><stop offset="0.85" stop-color="#77ba0b"/><stop offset="1" stop-color="#5d9406"/></radialGradient><radialGradient id="radial-gradient-2" cx="480" cy="230.36" r="412.1" gradientTransform="matrix(1, 0, 0, -0.4, 0, 350.52)" gradientUnits="userSpaceOnUse"><stop offset="0" stop-color="#bee62d"/><stop offset="1" stop-color="#92e010"/></radialGradient><clipPath id="clip-path" transform="translate(0 -40.58)"><rect class="cls-1" x="67.91" y="93.06" width="824.18" height="330.29" rx="71"/></clipPath><linearGradient id="linear-gradient" x1="476.91" y1="200.36" x2="476.91" y2="300.12" gradientTransform="matrix(1, 0, 0, -1, 0, 560.61)" gradientUnits="userSpaceOnUse"><stop offset="0" stop-color="#92e010"/><stop offset="1" stop-color="#bee62d"/></linearGradient><linearGradient id="linear-gradient-2" x1="476.91" y1="198.61" x2="476.91" y2="295.21" gradientTransform="matrix(1, 0, 0, -1, 0, 560.61)" gradientUnits="userSpaceOnUse"><stop offset="0" stop-color="#94e013"/><stop offset="1" stop-color="#bee62f"/></linearGradient><linearGradient id="linear-gradient-3" x1="476.91" y1="196.87" x2="476.91" y2="290.29" gradientTransform="matrix(1, 0, 0, -1, 0, 560.61)" gradientUnits="userSpaceOnUse"><stop offset="0" stop-color="#96e016"/><stop offset="1" stop-color="#bee530"/></linearGradient><linearGradient id="linear-gradient-4" x1="478.46" y1="195.13" x2="478.46" y2="285.37" gradientTransform="matrix(1, 0, 0, -1, 0, 560.61)" gradientUnits="userSpaceOnUse"><stop offset="0" stop-color="#99e019"/><stop offset="1" stop-color="#bee532"/></linearGradient><linearGradient id="linear-gradient-5" x1="476.91" y1="193.39" x2="476.91" y2="280.46" gradientTransform="matrix(1, 0, 0, -1, 0, 560.61)" gradientUnits="userSpaceOnUse"><stop offset="0" stop-color="#9be01c"/><stop offset="1" stop-color="#bee533"/></linearGradient><linearGradient id="linear-gradient-6" x1="478.46" y1="191.65" x2="478.46" y2="275.55" gradientTransform="matrix(1, 0, 0, -1, 0, 560.61)" gradientUnits="userSpaceOnUse"><stop offset="0" stop-color="#9de01f"/><stop offset="1" stop-color="#bee535"/></linearGradient><linearGradient id="linear-gradient-7" x1="183.18" y1="697.83" x2="183.18" y2="698.27" gradientTransform="matrix(229, 0, 0, -41, -41472, 28981.61)" gradientUnits="userSpaceOnUse"><stop offset="0" stop-color="#9fe022"/><stop offset="1" stop-color="#bfe436"/></linearGradient><linearGradient id="linear-gradient-8" x1="478.46" y1="188.16" x2="478.46" y2="265.71" gradientTransform="matrix(1, 0, 0, -1, 0, 560.61)" gradientUnits="userSpaceOnUse"><stop offset="0" stop-color="#a1e025"/><stop offset="1" stop-color="#bfe438"/></linearGradient><linearGradient id="linear-gradient-9" x1="183.16" y1="697.42" x2="183.16" y2="697.87" gradientTransform="matrix(211, 0, 0, -37, -38169, 26179.61)" gradientUnits="userSpaceOnUse"><stop offset="0" stop-color="#a4e028"/><stop offset="1" stop-color="#bfe43a"/></linearGradient><linearGradient id="linear-gradient-10" x1="478.46" y1="184.67" x2="478.46" y2="255.88" gradientTransform="matrix(1, 0, 0, -1, 0, 560.61)" gradientUnits="userSpaceOnUse"><stop offset="0" stop-color="#a6e02b"/><stop offset="1" stop-color="#bfe33b"/></linearGradient><linearGradient id="linear-gradient-11" x1="476.91" y1="182.93" x2="476.91" y2="250.96" gradientTransform="matrix(1, 0, 0, -1, 0, 560.61)" gradientUnits="userSpaceOnUse"><stop offset="0" stop-color="#a8e02e"/><stop offset="1" stop-color="#bfe33d"/></linearGradient><linearGradient id="linear-gradient-12" x1="478.46" y1="181.19" x2="478.46" y2="246.05" gradientTransform="matrix(1, 0, 0, -1, 0, 560.61)" gradientUnits="userSpaceOnUse"><stop offset="0" stop-color="#aae030"/><stop offset="1" stop-color="#bfe33e"/></linearGradient><linearGradient id="linear-gradient-13" x1="476.91" y1="179.45" x2="476.91" y2="241.14" gradientTransform="matrix(1, 0, 0, -1, 0, 560.61)" gradientUnits="userSpaceOnUse"><stop offset="0" stop-color="#ace033"/><stop offset="1" stop-color="#bfe340"/></linearGradient><linearGradient id="linear-gradient-14" x1="478.46" y1="177.7" x2="478.46" y2="236.22" gradientTransform="matrix(1, 0, 0, -1, 0, 560.61)" gradientUnits="userSpaceOnUse"><stop offset="0" stop-color="#aee036"/><stop offset="1" stop-color="#bfe241"/></linearGradient><linearGradient id="linear-gradient-15" x1="476.91" y1="175.96" x2="476.91" y2="231.3" gradientTransform="matrix(1, 0, 0, -1, 0, 560.61)" gradientUnits="userSpaceOnUse"><stop offset="0" stop-color="#b1e039"/><stop offset="1" stop-color="#bfe243"/></linearGradient><linearGradient id="linear-gradient-16" x1="183.02" y1="695.69" x2="183.02" y2="696.14" gradientTransform="matrix(148, 0, 0, -26, -26608, 18473.61)" gradientUnits="userSpaceOnUse"><stop offset="0" stop-color="#b3e03c"/><stop offset="1" stop-color="#bfe245"/></linearGradient><linearGradient id="linear-gradient-17" x1="476.91" y1="172.48" x2="476.91" y2="221.47" gradientTransform="matrix(1, 0, 0, -1, 0, 560.61)" gradientUnits="userSpaceOnUse"><stop offset="0" stop-color="#b5e03f"/><stop offset="1" stop-color="#c0e146"/></linearGradient><linearGradient id="linear-gradient-18" x1="182.95" y1="694.88" x2="182.95" y2="695.33" gradientTransform="matrix(130, 0, 0, -23, -23305, 16372.61)" gradientUnits="userSpaceOnUse"><stop offset="0" stop-color="#b7e042"/><stop offset="1" stop-color="#c0e148"/></linearGradient><linearGradient id="linear-gradient-19" x1="476.91" y1="168.99" x2="476.91" y2="211.64" gradientTransform="matrix(1, 0, 0, -1, 0, 560.61)" gradientUnits="userSpaceOnUse"><stop offset="0" stop-color="#b9e045"/><stop offset="1" stop-color="#c0e149"/></linearGradient><linearGradient id="linear-gradient-20" x1="478.46" y1="167.25" x2="478.46" y2="206.73" gradientTransform="matrix(1, 0, 0, -1, 0, 560.61)" gradientUnits="userSpaceOnUse"><stop offset="0" stop-color="#bce048"/><stop offset="1" stop-color="#c0e14b"/></linearGradient><linearGradient id="linear-gradient-21" x1="476.91" y1="165.51" x2="476.91" y2="201.81" gradientTransform="matrix(1, 0, 0, -1, 0, 560.61)" gradientUnits="userSpaceOnUse"><stop offset="0" stop-color="#bee04b"/><stop offset="1" stop-color="#c0e04c"/></linearGradient></defs><g id="_896244336" data-name=" 896244336"><path class="cls-2" d="M105,59.1H858.14c52.47,0,95.69,43.22,95.69,95.7V414.09c0,52.47-43.22,95.69-95.69,95.69H105c-52.47,0-95.69-43.22-95.69-95.69V154.8C9.26,102.32,52.48,59.1,105,59.1Z" transform="translate(0 -40.58)"/><path class="cls-3" d="M105,40.58H858.14c52.47,0,95.69,43.22,95.69,95.69v259.3c0,52.47-43.22,95.69-95.69,95.69H105c-52.47,0-95.69-43.22-95.69-95.69V136.27C9.26,83.8,52.48,40.58,105,40.58Z" transform="translate(0 -40.58)"/><path class="cls-4" d="M108,46.76H852c52.48,0,92.61,43.21,92.61,92.6v250c0,52.48-40.13,92.61-92.61,92.61H108c-49.39,0-92.61-40.13-92.61-92.61v-250C15.43,90,58.65,46.76,108,46.76Z" transform="translate(0 -40.58)"/><path class="cls-5" d="M111.13,49.84H852c49.39,0,92.61,40.13,92.61,89.52v250c0,49.39-43.22,92.61-92.61,92.61H111.13c-52.48,0-92.61-43.22-92.61-92.61v-250C18.52,90,58.65,49.84,111.13,49.84Z" transform="translate(0 -40.58)"/><path class="cls-2" d="M117.3,62.19H842.7c49.39,0,86.43,37,86.43,86.43V380.13c0,49.39-37,86.43-86.43,86.43H117.3c-46.3,0-86.43-37-86.43-86.43V148.62C30.87,99.23,71,62.19,117.3,62.19Z" transform="translate(0 -40.58)"/><path class="cls-6" d="M120.39,68.36H839.61A83,83,0,0,1,923,151.71V377.05a83,83,0,0,1-83.35,83.34H120.39A83,83,0,0,1,37,377.05V151.71A83,83,0,0,1,120.39,68.36Z" transform="translate(0 -40.58)"/><path class="cls-7" d="M123.47,74.54H836.53c43.21,0,80.25,37,80.25,80.26V374c0,43.22-37,80.26-80.25,80.26H123.47c-43.21,0-80.25-37-80.25-80.26V154.8C43.22,111.58,80.26,74.54,123.47,74.54Z" transform="translate(0 -40.58)"/><polygon class="cls-8" points="274.73 398.2 324.12 385.85 299.42 373.5 256.21 379.68 222.25 385.85 274.73 398.2"/><path class="cls-9" d="M836.53,77.63c40.13,0,77.17,30.86,80.25,74.08L481.54,265.92,58.65,111.58C49.39,123.93,46.3,139.36,46.3,154.8L481.54,265.92,74.08,93.06C89.52,83.8,105,77.63,126.56,77.63l355,188.29Z" transform="translate(0 -40.58)"/><path class="cls-10" d="M138.91,90H821.09a73.78,73.78,0,0,1,74.09,74.09V352.35a73.78,73.78,0,0,1-74.09,74.09H138.91c-21.61,0-37-9.26-52.48-21.61a74.47,74.47,0,0,1-21.61-52.48V164.06a74.47,74.47,0,0,1,21.61-52.48C101.86,99.23,117.3,90,138.91,90Zm682.18,6.18H138.91c-18.52,0-37,6.17-46.31,18.52C80.26,127,71,145.54,71,164.06V352.35c0,18.52,9.26,37,21.6,49.39,9.26,12.35,27.79,18.52,46.31,18.52H821.09c18.52,0,37-6.17,49.39-18.52S889,370.87,889,352.35V164.06c0-18.52-6.17-37-18.52-49.39S839.61,96.15,821.09,96.15Z" transform="translate(0 -40.58)"/><path class="cls-11" d="M138.91,93.06H821.09c40.13,0,71,30.87,71,71V352.35c0,40.13-30.87,71-71,71H138.91c-40.13,0-71-30.87-71-71V164.06C67.91,123.93,98.78,93.06,138.91,93.06Z" transform="translate(0 -40.58)"/><g class="cls-12"><path id="_1" data-name="1" class="cls-13" d="M478.46,336.92c240.77,0,435.24,33.95,435.24,77.17s-194.47,77.17-435.24,77.17-438.33-34-438.33-77.17S237.68,336.92,478.46,336.92Z" transform="translate(0 -40.58)"/><path class="cls-14" d="M478.46,340c231.51,0,419.8,34,419.8,74.09,0,43.21-188.29,77.17-419.8,77.17-234.6,0-422.9-34-422.9-77.17C55.56,374,243.86,340,478.46,340Z" transform="translate(0 -40.58)"/><path class="cls-15" d="M478.46,343.09c225.33,0,407.46,30.87,407.46,71s-182.13,74.08-407.46,74.08S67.91,454.22,67.91,414.09,253.12,343.09,478.46,343.09Z" transform="translate(0 -40.58)"/><path class="cls-16" d="M478.46,346.18c216.07,0,395.11,30.87,395.11,67.91,0,40.13-179,71-395.11,71-219.17,0-395.12-30.87-395.12-71C83.34,377.05,259.29,346.18,478.46,346.18Z" transform="translate(0 -40.58)"/><path class="cls-17" d="M478.46,346.18c209.9,0,379.68,30.87,379.68,67.91S688.36,482,478.46,482,95.69,451.13,95.69,414.09,268.55,346.18,478.46,346.18Z" transform="translate(0 -40.58)"/><path class="cls-18" d="M478.46,349.27c200.64,0,367.33,30.86,367.33,64.82,0,37-166.69,64.82-367.33,64.82-203.73,0-367.33-27.78-367.33-64.82C111.13,380.13,274.73,349.27,478.46,349.27Z" transform="translate(0 -40.58)"/><path class="cls-19" d="M478.46,352.35c194.47,0,351.89,27.78,351.89,61.74s-157.42,64.82-351.89,64.82-355-30.87-355-64.82S284,352.35,478.46,352.35Z" transform="translate(0 -40.58)"/><path class="cls-20" d="M478.46,355.44c185.21,0,339.55,27.78,339.55,58.65,0,34-154.34,61.73-339.55,61.73-188.3,0-339.55-27.78-339.55-61.73C138.91,383.22,290.16,355.44,478.46,355.44Z" transform="translate(0 -40.58)"/><path class="cls-21" d="M478.46,358.53c179,0,324.11,24.69,324.11,55.56,0,34-145.08,58.65-324.11,58.65S151.25,448,151.25,414.09C151.25,383.22,299.42,358.53,478.46,358.53Z" transform="translate(0 -40.58)"/><path class="cls-22" d="M478.46,358.53c169.77,0,311.77,24.69,311.77,55.56s-142,55.56-311.77,55.56c-172.87,0-311.77-24.69-311.77-55.56S305.59,358.53,478.46,358.53Z" transform="translate(0 -40.58)"/><path class="cls-23" d="M478.46,361.61c163.6,0,296.33,24.7,296.33,52.48,0,30.87-132.73,52.47-296.33,52.47S179,445,179,414.09C179,386.31,314.86,361.61,478.46,361.61Z" transform="translate(0 -40.58)"/><path class="cls-24" d="M478.46,364.7c154.34,0,284,21.61,284,49.39s-129.64,52.47-284,52.47c-157.43,0-284-24.69-284-52.47S321,364.7,478.46,364.7Z" transform="translate(0 -40.58)"/><path class="cls-25" d="M478.46,367.79c148.16,0,268.55,21.6,268.55,46.3,0,27.78-120.39,49.39-268.55,49.39-151.26,0-271.64-21.61-271.64-49.39C206.82,389.39,327.2,367.79,478.46,367.79Z" transform="translate(0 -40.58)"/><path class="cls-26" d="M478.46,370.87c138.9,0,256.2,18.52,256.2,43.22s-117.3,46.3-256.2,46.3c-142,0-256.21-21.61-256.21-46.3S336.46,370.87,478.46,370.87Z" transform="translate(0 -40.58)"/><path class="cls-27" d="M478.46,370.87c132.73,0,240.77,21.61,240.77,43.22,0,24.69-108,43.21-240.77,43.21-135.82,0-243.86-18.52-243.86-43.21C234.6,392.48,342.64,370.87,478.46,370.87Z" transform="translate(0 -40.58)"/><path class="cls-28" d="M478.46,374c126.56,0,228.42,18.52,228.42,40.13,0,24.69-101.86,40.13-228.42,40.13S250,438.78,250,414.09C250,392.48,351.9,374,478.46,374Z" transform="translate(0 -40.58)"/><path class="cls-29" d="M478.46,377.05c117.3,0,213,18.52,213,37,0,21.61-95.69,40.13-213,40.13-120.39,0-216.08-18.52-216.08-40.13C262.38,395.57,358.07,377.05,478.46,377.05Z" transform="translate(0 -40.58)"/><path class="cls-30" d="M478.46,380.13c111.12,0,200.64,15.44,200.64,34,0,21.61-89.52,37-200.64,37s-200.65-15.43-200.65-37C277.81,395.57,367.33,380.13,478.46,380.13Z" transform="translate(0 -40.58)"/><path class="cls-31" d="M478.46,383.22c101.86,0,185.21,12.35,185.21,30.87s-83.35,34-185.21,34c-105,0-188.3-15.43-188.3-34S373.5,383.22,478.46,383.22Z" transform="translate(0 -40.58)"/><path class="cls-32" d="M478.46,383.22c95.69,0,172.86,15.43,172.86,30.87,0,18.52-77.17,30.87-172.86,30.87s-172.87-12.35-172.87-30.87C305.59,398.65,382.77,383.22,478.46,383.22Z" transform="translate(0 -40.58)"/><path class="cls-33" d="M478.46,386.31c86.43,0,157.42,12.34,157.42,27.78s-71,27.78-157.42,27.78c-89.52,0-160.52-12.35-160.52-27.78S388.94,386.31,478.46,386.31Z" transform="translate(0 -40.58)"/><ellipse class="cls-34" cx="478.46" cy="373.5" rx="145.08" ry="24.69"/></g><path class="cls-1" d="M138.91,93.06H821.09c40.13,0,71,30.87,71,71V352.35c0,40.13-30.87,71-71,71H138.91c-40.13,0-71-30.87-71-71V164.06C67.91,123.93,98.78,93.06,138.91,93.06Z" transform="translate(0 -40.58)"/><path class="cls-35" d="M885.92,259.75c-213-43.22-407.46-12.35-558.72,6.17-43.21-37-86.43-71-132.73-101.86l-6.17-6.18,3.08-3.08c24.7-18.53,52.48-37.05,77.17-55.57H818c37,0,67.91,27.78,67.91,64.83Zm-568,6.17c-101.86,12.35-185.21,18.52-243.86-6.17v-9.26c34-27.78,71-58.65,108-86.43l9.26,6.17C234.6,201.1,277.81,232,317.94,265.92ZM74.08,241.23V164.06c0-21.61,12.35-43.22,30.87-55.57,24.7,15.44,49.39,34,71,49.39Zm37.05-135.82c9.26-6.18,21.6-6.18,34-6.18H256.21c-21.61,15.44-46.31,34-67.91,52.48l-6.18,3.09C160.51,136.27,135.82,120.84,111.13,105.41Z" transform="translate(0 -40.58)"/><polygon class="cls-8" points="61.74 138.91 67.91 123.47 74.08 135.82 86.43 135.82 114.21 123.47 92.61 141.99 71 148.17 67.91 160.51 58.65 148.17 46.3 148.17 61.74 138.91"/><polygon class="cls-36" points="274.73 395.11 324.12 382.76 299.42 370.42 256.21 376.59 228.42 385.85 274.73 395.11"/><polygon class="cls-36" points="61.74 135.82 67.91 120.39 74.08 132.73 86.43 132.73 114.21 123.47 92.61 138.91 71 145.08 67.91 157.43 58.65 145.08 46.3 148.17 61.74 135.82"/><polygon class="cls-2" points="0 271.64 9.26 271.64 9.26 314.86 0 308.68 0 271.64"/><path class="cls-2" d="M24.69,188.75c40.13,0,71,34,71,71s-30.87,67.91-71,67.91c-9.26,0-15.43,0-24.69-3.09V194.92C9.26,191.84,15.43,188.75,24.69,188.75Z" transform="translate(0 -40.58)"/><path class="cls-3" d="M24.69,179.49c40.13,0,71,30.87,71,67.91,0,40.13-30.87,71-71,71-9.26,0-15.43-3.09-24.69-6.18V188.75l12.35-9.26H24.69Z" transform="translate(0 -40.58)"/><path class="cls-4" d="M24.69,179.49c40.13,0,71,30.87,71,67.91,0,40.13-30.87,71-71,71-9.26,0-15.43-3.09-24.69-6.18H0c9.26,3.09,15.43,3.09,24.69,3.09,37.05,0,67.91-27.78,67.91-67.91,0-37-30.86-64.82-67.91-64.82H12.35L0,191.84v-3.09l12.35-9.26H24.69Z" transform="translate(0 -40.58)"/><path class="cls-4" d="M15.43,318.4H12.35V179.49h3.08Z" transform="translate(0 -40.58)"/><polygon class="cls-5" points="0 271.64 0 265.47 0 148.17 12.35 138.91 12.35 277.81 0 287.07 0 271.64"/><polygon class="cls-2" points="9.26 280.9 6.17 296.33 18.52 287.07 9.26 280.9"/><polygon class="cls-4" points="0 283.99 0 287.07 12.35 277.81 12.35 274.73 0 283.99"/><polygon class="cls-4" points="0 148.17 0 151.25 12.35 141.99 12.35 138.91 0 148.17"/><polygon class="cls-2" points="960 271.64 953.83 271.64 953.83 314.86 960 308.68 960 271.64"/><path class="cls-2" d="M935.31,188.75c-37,0-67.91,34-67.91,71s30.86,67.91,67.91,67.91c9.26,0,18.52,0,24.69-3.09V194.92C953.83,191.84,944.57,188.75,935.31,188.75Z" transform="translate(0 -40.58)"/><path class="cls-3" d="M935.31,179.49c-37,0-67.91,30.87-67.91,67.91,0,40.13,30.86,71,67.91,71,9.26,0,18.52-3.09,24.69-6.18V188.75l-12.35-9.26H935.31Z" transform="translate(0 -40.58)"/><path class="cls-4" d="M935.31,179.49c-37,0-67.91,30.87-67.91,67.91,0,40.13,30.86,71,67.91,71,9.26,0,18.52-3.09,24.69-6.18h0c-6.17,3.09-15.43,3.09-24.69,3.09-37,0-67.91-27.78-67.91-67.91,0-37,30.86-64.82,67.91-64.82h12.34L960,191.84v-3.09l-12.35-9.26H935.31Z" transform="translate(0 -40.58)"/><path class="cls-4" d="M944.57,318.4h3.08V179.49h-3.08Z" transform="translate(0 -40.58)"/><polygon class="cls-5" points="960 271.64 960 265.47 960 148.17 947.65 138.91 947.65 277.81 960 287.07 960 271.64"/><polygon class="cls-2" points="953.83 280.9 956.91 296.33 944.57 287.07 953.83 280.9"/><polygon class="cls-4" points="960 283.99 960 287.07 947.65 277.81 947.65 274.73 960 283.99"/><polygon class="cls-4" points="960 148.17 960 151.25 947.65 141.99 947.65 138.91 960 148.17"/></g></svg>