<?xml version="1.0" encoding="utf-8"?>
<!-- Generator: Adobe Illustrator 26.0.2, SVG Export Plug-In . SVG Version: 6.00 Build 0)  -->
<svg version="1.1" id="Layer_1" xmlns="http://www.w3.org/2000/svg" xmlns:xlink="http://www.w3.org/1999/xlink" x="0px" y="0px"
	 viewBox="0 0 960 560" style="enable-background:new 0 0 960 560;" xml:space="preserve">
<style type="text/css">
	.st0{fill:url(#SVGID_1_);}
	.st1{fill:#318063;}
	.st2{fill:url(#SVGID_00000127044516240417522250000008501714928116390301_);}
	.st3{fill:url(#SVGID_00000064314192280424566420000014242595635100503182_);}
	.st4{fill:url(#SVGID_00000003093457768224551320000002463131203617079475_);}
	.st5{fill:url(#SVGID_00000123427089980731018220000003696952174648413113_);}
	.st6{fill:url(#SVGID_00000124149706731474564320000016627268025988538042_);}
	.st7{fill:url(#SVGID_00000166670012672121545990000015867773938718458758_);}
	.st8{fill:url(#SVGID_00000028294267960650347690000002899016300828788117_);}
	.st9{fill:url(#SVGID_00000036221826453093858880000009570892242853961146_);}
	.st10{fill:#5A2903;}
	.st11{fill:url(#SVGID_00000137810854378118135010000016443894167913235092_);stroke:#42210B;stroke-width:3;stroke-miterlimit:10;}
</style>
<linearGradient id="SVGID_1_" gradientUnits="userSpaceOnUse" x1="1043.8015" y1="-1281.4948" x2="1186.3833" y2="-1296.1056" gradientTransform="matrix(0.5732 -0.8194 0.8194 0.5732 824.5582 2025.2061)">
	<stop  offset="2.700000e-07" style="stop-color:#95D543"/>
	<stop  offset="0.2613" style="stop-color:#72B74E"/>
	<stop  offset="0.5762" style="stop-color:#4F9959"/>
	<stop  offset="0.8338" style="stop-color:#398760"/>
	<stop  offset="1" style="stop-color:#318063"/>
</linearGradient>
<path class="st0" d="M373.89,300.77c0.06-0.01,0.12-0.01,0.18-0.01c0.52,0,1.03,0.21,1.38,0.6l102.31,109.9
	c0.32,0.34,0.5,0.79,0.5,1.26c0,0.18,0.04,4.56-0.49,9.07c-0.82,7.09-2.56,10.53-5.48,10.83c-0.07,0.01-0.15,0.01-0.23,0.02
	c-0.51,0.02-1.01-0.17-1.38-0.53c-0.37-0.36-0.57-0.85-0.57-1.37c0.04-3.6-1.45-7.88-2.95-11.26c0.06,4.16,0.68,10.16,2.96,17.43
	c0.26,0.82-0.08,1.71-0.81,2.16c-0.24,0.15-0.51,0.24-0.78,0.26c-0.54,0.06-1.1-0.13-1.51-0.53c-4.28-4.24-6.07-9.55-7.81-14.7
	c-0.64-1.9-1.29-3.83-2.07-5.74c-1.11,4.77-3.8,8.68-3.98,8.94c-0.32,0.46-0.82,0.74-1.35,0.79c-0.27,0.03-0.54,0-0.81-0.09
	c-0.79-0.28-1.31-1.05-1.25-1.89c0-0.03,0.06-1.81-0.83-5.08c-0.08,2.84-0.35,4.89-0.38,5.1c-0.12,0.86-0.81,1.52-1.66,1.61
	c-0.05,0-0.1,0.01-0.14,0.01c-0.92,0.02-1.72-0.62-1.89-1.52c-1.16-6.06-5.29-11.07-7.95-13.76c-1.68,5.86-5.41,11.66-5.6,11.95
	c-0.32,0.49-0.84,0.79-1.38,0.84c-0.41,0.04-0.83-0.05-1.2-0.29c-0.87-0.56-1.12-1.71-0.57-2.58c0.1-0.17,2.44-4.22-1.15-10.36
	c-0.9,4.34,0.62,12.39,2.36,17.84c0.3,0.93-0.16,1.92-1.06,2.3c-0.17,0.07-0.35,0.12-0.53,0.14c-0.74,0.08-1.49-0.3-1.85-0.99
	c-0.14-0.27-3.38-6.48-10.7-23.52c-1.83,3.4-0.08,8.77-0.06,8.83c0.32,0.97-0.19,2.02-1.15,2.36c-0.15,0.05-0.29,0.08-0.44,0.1
	c-0.82,0.09-1.63-0.39-1.94-1.19c-0.09-0.24-1.97-5.28-2.2-14.92c-3.59,3.14-9.05,6.09-13.66,6.57c-2.52,0.26-4.63-0.22-6.26-1.42
	c-0.57-0.42-0.86-1.13-0.74-1.83c0.12-0.7,0.63-1.27,1.31-1.48c3.5-1.06,5.85-2.93,7.17-5.74c2.07-4.41,1.09-10.09,0.13-13.56
	c-2.15,2.96-5.27,8.01-5.75,13.01c-0.08,0.81-0.67,1.48-1.46,1.65c-0.07,0.02-0.14,0.03-0.21,0.03c-0.72,0.07-1.43-0.28-1.81-0.92
	c-3.05-5.2-2.12-13.68-0.95-19.4c-4.4,4.31-9.63,10.68-9.7,15.9c-0.01,0.8-0.53,1.51-1.29,1.76c-0.13,0.04-0.26,0.07-0.39,0.08
	c-0.64,0.07-1.29-0.2-1.69-0.74c-8.53-11.32-3.25-23.77,1-30.57c-1.99,0.58-4.32,1.11-6.73,1.36c-5.03,0.52-9.12-0.32-12.16-2.49
	c-0.63-0.45-0.92-1.25-0.72-2c0.2-0.75,0.84-1.3,1.62-1.38c3.53-0.36,7.62-4.07,11.11-8.22c-2.55,1.57-5.39,2.98-8.28,3.82
	c-0.11,0.03-0.22,0.05-0.33,0.06c-0.39,0.04-0.78-0.04-1.12-0.24c-0.44-0.25-0.76-0.67-0.89-1.17c-0.18-0.73-0.16-1.58,0.05-2.51
	c-1.68,2.77-3.31,5.91-4.78,9.45c-0.27,0.64-0.86,1.08-1.54,1.15c-0.05,0.01-0.1,0.01-0.15,0.01c-0.74,0.02-1.42-0.41-1.74-1.08
	c-5.29-11.37,2.59-27.21,7.1-34.76c-2.45,0.63-5.56,1.3-8.71,1.62c-5.96,0.62-10.29-0.2-12.88-2.41c-0.65-0.56-0.84-1.48-0.47-2.25
	c0.29-0.59,0.86-0.98,1.49-1.04c0.18-0.02,0.37-0.01,0.56,0.03c0.96,0.19,2.02,0.23,3.17,0.11c13.36-1.38,32.81-22.6,33.01-22.82
	C373.01,301.03,373.43,300.82,373.89,300.77z"/>
<path class="st1" d="M462.44,404.73c0,0,5.65,9.22,5.57,16.19"/>
<path class="st1" d="M452.64,402.55c6.05,8.24,5.49,17.84,12.1,24.38c-4.23-13.49-2.29-22.2-2.29-22.2"/>
<linearGradient id="SVGID_00000047768786314435270840000010128931012129946557_" gradientUnits="userSpaceOnUse" x1="3597.8203" y1="-1083.3717" x2="3740.3877" y2="-1097.9811" gradientTransform="matrix(-0.6729 -0.7398 0.7398 -0.6729 3824.1365 2354.0906)">
	<stop  offset="2.700000e-07" style="stop-color:#95D543"/>
	<stop  offset="0.2613" style="stop-color:#72B74E"/>
	<stop  offset="0.5762" style="stop-color:#4F9959"/>
	<stop  offset="0.8338" style="stop-color:#398760"/>
	<stop  offset="1" style="stop-color:#318063"/>
</linearGradient>
<path style="fill:url(#SVGID_00000047768786314435270840000010128931012129946557_);" d="M470.65,390.7
	c0.01-0.06,0.02-0.12,0.03-0.18c0.11-0.51,0.43-0.95,0.89-1.22l129.75-75.56c0.4-0.24,0.88-0.31,1.34-0.21
	c0.18,0.04,4.45,0.97,8.74,2.48c6.73,2.36,9.7,4.82,9.36,7.74c-0.01,0.07-0.02,0.15-0.03,0.22c-0.09,0.51-0.39,0.95-0.82,1.23
	c-0.43,0.28-0.96,0.37-1.46,0.25c-3.5-0.83-8.01-0.32-11.63,0.4c4.07,0.86,10.06,1.58,17.66,0.96c0.86-0.07,1.65,0.45,1.93,1.27
	c0.09,0.27,0.12,0.55,0.09,0.82c-0.07,0.54-0.37,1.05-0.85,1.36c-5.08,3.24-10.66,3.82-16.06,4.38c-1.99,0.21-4.02,0.42-6.05,0.76
	c4.41,2.13,7.63,5.62,7.84,5.85c0.38,0.41,0.54,0.96,0.48,1.49c-0.03,0.27-0.12,0.53-0.27,0.77c-0.45,0.71-1.31,1.04-2.12,0.81
	c-0.03-0.01-1.75-0.46-5.14-0.31c2.75,0.7,4.69,1.42,4.89,1.49c0.81,0.31,1.31,1.13,1.2,1.98c-0.01,0.05-0.01,0.1-0.02,0.14
	c-0.18,0.9-0.98,1.54-1.9,1.51c-6.17-0.21-11.97,2.72-15.18,4.72c5.34,2.93,10.18,7.85,10.42,8.1c0.41,0.42,0.58,0.99,0.52,1.53
	c-0.05,0.41-0.23,0.8-0.54,1.11c-0.73,0.72-1.92,0.72-2.64-0.01c-0.15-0.14-3.58-3.31-10.36-1.16c4.04,1.84,12.23,2.13,17.92,1.63
	c0.97-0.08,1.84,0.58,2.01,1.54c0.03,0.19,0.04,0.37,0.02,0.55c-0.09,0.74-0.62,1.38-1.38,1.59c-0.29,0.08-7.07,1.87-25.3,5.25
	c2.91,2.53,8.53,2.01,8.6,2.01c1.01-0.1,1.92,0.63,2.05,1.64c0.02,0.15,0.02,0.3,0,0.45c-0.1,0.82-0.74,1.51-1.59,1.63
	c-0.26,0.04-5.58,0.76-15.04-1.15c2.27,4.19,3.95,10.17,3.4,14.78c-0.3,2.51-1.23,4.47-2.76,5.8c-0.54,0.47-1.29,0.59-1.95,0.32
	c-0.66-0.27-1.1-0.89-1.15-1.6c-0.26-3.65-1.57-6.35-4.02-8.26c-3.84-2.99-9.6-3.29-13.2-3.12c2.41,2.75,6.65,6.91,11.42,8.47
	c0.77,0.25,1.29,0.98,1.29,1.79c0,0.07,0,0.15-0.01,0.22c-0.09,0.72-0.59,1.34-1.29,1.56c-5.74,1.83-13.81-0.95-19.13-3.35
	c3.24,5.24,8.29,11.75,13.37,12.97c0.78,0.19,1.35,0.85,1.43,1.65c0.01,0.13,0.01,0.27-0.01,0.4c-0.08,0.64-0.48,1.21-1.09,1.49
	c-12.92,5.82-23.9-2.07-29.6-7.71c0.13,2.07,0.13,4.45-0.16,6.87c-0.6,5.02-2.32,8.83-5.11,11.31c-0.58,0.52-1.42,0.62-2.11,0.26
	c-0.69-0.36-1.09-1.11-0.99-1.88c0.42-3.52-2.3-8.33-5.57-12.64c0.96,2.83,1.72,5.91,1.91,8.92c0.01,0.11,0,0.23-0.01,0.34
	c-0.05,0.39-0.21,0.75-0.48,1.04c-0.34,0.38-0.83,0.59-1.34,0.61c-0.76,0.02-1.58-0.2-2.44-0.6c2.33,2.25,5.03,4.53,8.16,6.75
	c0.56,0.4,0.86,1.07,0.78,1.75c-0.01,0.05-0.01,0.1-0.02,0.15c-0.15,0.73-0.71,1.3-1.44,1.46c-12.26,2.65-25.97-8.52-32.34-14.59
	c0.07,2.53,0.04,5.71-0.34,8.86c-0.71,5.95-2.46,10-5.19,12.03c-0.68,0.51-1.63,0.49-2.29-0.04c-0.51-0.41-0.76-1.06-0.69-1.69
	c0.02-0.18,0.07-0.37,0.15-0.54c0.4-0.89,0.67-1.92,0.81-3.06c1.6-13.33-14.81-36.99-14.98-37.23
	C470.71,391.62,470.59,391.16,470.65,390.7z"/>
<path class="st1" d="M524.96,417.41c-16.67-11.8-20.2-25.46-20.2-25.46"/>
<linearGradient id="SVGID_00000026883110423593202190000000641570328905914777_" gradientUnits="userSpaceOnUse" x1="1503.0687" y1="-1602.7688" x2="1645.6505" y2="-1617.3796" gradientTransform="matrix(0.5732 0.8194 0.8194 -0.5732 824.5582 -2024.8864)">
	<stop  offset="2.700000e-07" style="stop-color:#95D543"/>
	<stop  offset="0.2613" style="stop-color:#72B74E"/>
	<stop  offset="0.5762" style="stop-color:#4F9959"/>
	<stop  offset="0.8338" style="stop-color:#398760"/>
	<stop  offset="1" style="stop-color:#318063"/>
</linearGradient>
<path style="fill:url(#SVGID_00000026883110423593202190000000641570328905914777_);" d="M373.89,260.03
	c0.06,0.01,0.12,0.01,0.18,0.01c0.52,0,1.03-0.21,1.38-0.6l102.31-109.9c0.32-0.34,0.5-0.79,0.5-1.26c0-0.18,0.04-4.56-0.49-9.07
	c-0.82-7.09-2.56-10.53-5.48-10.83c-0.07-0.01-0.15-0.01-0.23-0.02c-0.51-0.02-1.01,0.17-1.38,0.53s-0.57,0.85-0.57,1.37
	c0.04,3.6-1.45,7.88-2.95,11.26c0.06-4.16,0.68-10.16,2.96-17.43c0.26-0.82-0.08-1.71-0.81-2.16c-0.24-0.15-0.51-0.24-0.78-0.26
	c-0.54-0.06-1.1,0.13-1.51,0.53c-4.28,4.24-6.07,9.55-7.81,14.7c-0.64,1.9-1.29,3.83-2.07,5.74c-1.11-4.77-3.8-8.68-3.98-8.94
	c-0.32-0.46-0.82-0.74-1.35-0.79c-0.27-0.03-0.54,0-0.81,0.09c-0.79,0.28-1.31,1.05-1.25,1.89c0,0.03,0.06,1.81-0.83,5.08
	c-0.08-2.84-0.35-4.89-0.38-5.1c-0.12-0.86-0.81-1.52-1.66-1.61c-0.05-0.01-0.1-0.01-0.14-0.01c-0.92-0.02-1.72,0.62-1.89,1.52
	c-1.16,6.06-5.29,11.07-7.95,13.76c-1.68-5.86-5.41-11.66-5.6-11.95c-0.32-0.49-0.84-0.79-1.38-0.84c-0.41-0.04-0.83,0.05-1.2,0.29
	c-0.87,0.56-1.12,1.71-0.57,2.58c0.1,0.17,2.44,4.22-1.15,10.36c-0.9-4.34,0.62-12.39,2.36-17.84c0.3-0.93-0.16-1.92-1.06-2.3
	c-0.17-0.07-0.35-0.12-0.53-0.14c-0.74-0.08-1.49,0.3-1.85,0.99c-0.14,0.27-3.38,6.48-10.7,23.52c-1.83-3.4-0.08-8.77-0.06-8.83
	c0.32-0.97-0.19-2.02-1.15-2.36c-0.15-0.05-0.29-0.08-0.44-0.1c-0.82-0.09-1.63,0.39-1.94,1.19c-0.09,0.24-1.97,5.28-2.2,14.92
	c-3.59-3.14-9.05-6.09-13.66-6.57c-2.52-0.26-4.63,0.22-6.26,1.42c-0.57,0.42-0.86,1.13-0.74,1.83c0.12,0.7,0.63,1.27,1.31,1.48
	c3.5,1.06,5.85,2.93,7.17,5.74c2.07,4.41,1.09,10.09,0.13,13.56c-2.15-2.96-5.27-8.01-5.75-13.01c-0.08-0.81-0.67-1.48-1.46-1.65
	c-0.07-0.02-0.14-0.03-0.21-0.03c-0.72-0.07-1.43,0.28-1.81,0.92c-3.05,5.2-2.12,13.68-0.95,19.4c-4.4-4.31-9.63-10.68-9.7-15.9
	c-0.01-0.8-0.53-1.51-1.29-1.76c-0.13-0.04-0.26-0.07-0.39-0.08c-0.64-0.07-1.29,0.2-1.69,0.74c-8.53,11.32-3.25,23.77,1,30.57
	c-1.99-0.58-4.32-1.11-6.73-1.36c-5.03-0.52-9.12,0.32-12.16,2.49c-0.63,0.45-0.92,1.25-0.72,2c0.2,0.75,0.84,1.3,1.62,1.38
	c3.53,0.36,7.62,4.07,11.11,8.22c-2.55-1.57-5.39-2.98-8.28-3.82c-0.11-0.03-0.22-0.05-0.33-0.06c-0.39-0.04-0.78,0.04-1.12,0.24
	c-0.44,0.25-0.76,0.68-0.89,1.17c-0.18,0.73-0.16,1.58,0.05,2.51c-1.68-2.77-3.31-5.91-4.78-9.45c-0.27-0.64-0.86-1.08-1.54-1.15
	c-0.05-0.01-0.1-0.01-0.15-0.01c-0.74-0.02-1.42,0.41-1.74,1.08c-5.29,11.37,2.59,27.21,7.1,34.76c-2.45-0.63-5.56-1.3-8.71-1.62
	c-5.96-0.62-10.29,0.2-12.88,2.41c-0.65,0.56-0.84,1.48-0.47,2.25c0.29,0.59,0.86,0.98,1.49,1.04c0.18,0.02,0.37,0.01,0.56-0.03
	c0.96-0.19,2.02-0.23,3.17-0.11c13.36,1.38,32.81,22.6,33.01,22.82C373.01,259.76,373.43,259.98,373.89,260.03z"/>
<path class="st1" d="M380.37,254.39c0,0-21.29-23.4-33.95-20.84"/>
<linearGradient id="SVGID_00000052069808777642414850000006219019975458031275_" gradientUnits="userSpaceOnUse" x1="4012.4211" y1="-706.2632" x2="4154.9883" y2="-720.8726" gradientTransform="matrix(-0.6729 0.7398 0.7398 0.6729 3824.1365 -2353.7708)">
	<stop  offset="2.700000e-07" style="stop-color:#95D543"/>
	<stop  offset="0.2613" style="stop-color:#72B74E"/>
	<stop  offset="0.5762" style="stop-color:#4F9959"/>
	<stop  offset="0.8338" style="stop-color:#398760"/>
	<stop  offset="1" style="stop-color:#318063"/>
</linearGradient>
<path style="fill:url(#SVGID_00000052069808777642414850000006219019975458031275_);" d="M470.65,170.1
	c0.01,0.06,0.02,0.12,0.03,0.18c0.11,0.51,0.43,0.95,0.89,1.22l129.75,75.56c0.4,0.24,0.88,0.31,1.34,0.21
	c0.18-0.04,4.45-0.97,8.74-2.48c6.73-2.36,9.7-4.82,9.36-7.74c-0.01-0.07-0.02-0.15-0.03-0.22c-0.09-0.51-0.39-0.95-0.82-1.23
	c-0.43-0.28-0.96-0.37-1.46-0.25c-3.5,0.83-8.01,0.32-11.63-0.4c4.07-0.86,10.06-1.58,17.66-0.96c0.86,0.07,1.65-0.45,1.93-1.27
	c0.09-0.27,0.12-0.55,0.09-0.82c-0.07-0.54-0.37-1.05-0.85-1.36c-5.08-3.24-10.66-3.82-16.06-4.38c-1.99-0.21-4.02-0.42-6.05-0.76
	c4.41-2.13,7.63-5.62,7.84-5.85c0.38-0.41,0.54-0.96,0.48-1.49c-0.03-0.27-0.12-0.53-0.27-0.77c-0.45-0.71-1.31-1.04-2.12-0.81
	c-0.03,0.01-1.75,0.46-5.14,0.31c2.75-0.7,4.69-1.42,4.89-1.49c0.81-0.31,1.31-1.13,1.2-1.98c-0.01-0.05-0.01-0.1-0.02-0.14
	c-0.18-0.9-0.98-1.54-1.9-1.51c-6.17,0.21-11.97-2.72-15.18-4.72c5.34-2.93,10.18-7.85,10.42-8.1c0.41-0.42,0.58-0.99,0.52-1.53
	c-0.05-0.41-0.23-0.8-0.54-1.11c-0.73-0.72-1.92-0.72-2.64,0.01c-0.15,0.14-3.58,3.31-10.36,1.16c4.04-1.84,12.23-2.13,17.92-1.63
	c0.97,0.08,1.84-0.58,2.01-1.54c0.03-0.19,0.04-0.37,0.02-0.55c-0.09-0.74-0.62-1.38-1.38-1.59c-0.29-0.08-7.07-1.87-25.3-5.25
	c2.91-2.53,8.53-2.01,8.6-2.01c1.01,0.1,1.92-0.63,2.05-1.64c0.02-0.15,0.02-0.3,0-0.45c-0.1-0.82-0.74-1.51-1.59-1.63
	c-0.26-0.04-5.58-0.76-15.04,1.15c2.27-4.19,3.95-10.17,3.4-14.78c-0.3-2.51-1.23-4.47-2.76-5.8c-0.54-0.47-1.29-0.59-1.95-0.32
	c-0.66,0.27-1.1,0.89-1.15,1.6c-0.26,3.65-1.57,6.35-4.02,8.26c-3.84,2.99-9.6,3.29-13.2,3.12c2.41-2.75,6.65-6.91,11.42-8.47
	c0.77-0.25,1.29-0.97,1.29-1.79c0-0.07,0-0.15-0.01-0.22c-0.09-0.72-0.59-1.34-1.29-1.56c-5.74-1.83-13.81,0.95-19.13,3.35
	c3.24-5.24,8.29-11.75,13.37-12.97c0.78-0.19,1.35-0.85,1.43-1.65c0.01-0.13,0.01-0.27-0.01-0.4c-0.08-0.64-0.48-1.21-1.09-1.49
	c-12.92-5.82-23.9,2.07-29.6,7.71c0.13-2.07,0.13-4.45-0.16-6.87c-0.6-5.02-2.32-8.83-5.11-11.31c-0.58-0.52-1.42-0.62-2.11-0.26
	c-0.69,0.36-1.09,1.11-0.99,1.88c0.42,3.52-2.3,8.33-5.57,12.64c0.96-2.83,1.72-5.91,1.91-8.92c0.01-0.11,0-0.23-0.01-0.34
	c-0.05-0.39-0.21-0.75-0.48-1.04c-0.34-0.38-0.83-0.59-1.34-0.61c-0.76-0.02-1.58,0.2-2.44,0.6c2.33-2.25,5.03-4.53,8.16-6.75
	c0.56-0.4,0.86-1.07,0.78-1.75c-0.01-0.05-0.01-0.1-0.02-0.15c-0.15-0.73-0.71-1.3-1.44-1.46c-12.26-2.65-25.97,8.52-32.34,14.59
	c0.07-2.53,0.04-5.71-0.34-8.86c-0.71-5.95-2.46-10-5.19-12.03c-0.68-0.51-1.63-0.49-2.29,0.04c-0.51,0.41-0.76,1.06-0.69,1.69
	c0.02,0.18,0.07,0.37,0.15,0.54c0.4,0.89,0.67,1.92,0.81,3.06c1.6,13.33-14.81,36.99-14.98,37.23
	C470.71,169.18,470.59,169.64,470.65,170.1z"/>
<path class="st1" d="M571.45,169.12c4.9,4.27-0.37,17.89-3.75,19.88"/>
<linearGradient id="SVGID_00000078752258822308263790000001913253078855723189_" gradientUnits="userSpaceOnUse" x1="453.9995" y1="212.3643" x2="540.6136" y2="409.1456">
	<stop  offset="0" style="stop-color:#F8A45B"/>
	<stop  offset="0.2171" style="stop-color:#C97F40"/>
	<stop  offset="0.4733" style="stop-color:#985825"/>
	<stop  offset="0.6987" style="stop-color:#743C11"/>
	<stop  offset="0.8819" style="stop-color:#5E2B04"/>
	<stop  offset="1" style="stop-color:#562500"/>
</linearGradient>
<path style="fill:url(#SVGID_00000078752258822308263790000001913253078855723189_);" d="M620.37,274.51
	c0,11.93-12.97,21.99-15.91,32.99c-3.04,11.38,3.07,26.56-2.7,36.53c-5.85,10.11-22.11,12.37-30.31,20.58
	c-8.2,8.2-10.47,24.46-20.58,30.31c-9.97,5.77-25.15-0.34-36.53,2.7c-11,2.94-21.06,15.91-32.99,15.91
	c-11.93,0-21.99-12.97-32.99-15.91c-11.38-3.04-26.56,3.07-36.53-2.7c-10.11-5.85-12.37-22.11-20.58-30.31
	c-8.2-8.2-24.46-10.47-30.31-20.58c-5.77-9.97,0.34-25.15-2.7-36.53c-2.94-11-15.91-21.06-15.91-32.99
	c0-11.93,12.97-21.99,15.91-32.99c3.04-11.38-3.07-26.56,2.7-36.53c5.85-10.11,22.11-12.37,30.31-20.58
	c8.2-8.2,10.47-24.46,20.58-30.31c9.97-5.77,25.15,0.34,36.53-2.7c11-2.94,21.06-15.91,32.99-15.91c11.93,0,21.99,12.97,32.99,15.91
	c11.38,3.04,26.56-3.07,36.53,2.7c10.11,5.85,12.37,22.11,20.58,30.31c8.2,8.2,24.46,10.47,30.31,20.58
	c5.77,9.96-0.34,25.15,2.7,36.53C607.4,252.52,620.37,262.58,620.37,274.51z"/>
<linearGradient id="SVGID_00000155145840226474321550000008457230967004059294_" gradientUnits="userSpaceOnUse" x1="692.3251" y1="428.4845" x2="425.6447" y2="225.0554">
	<stop  offset="0" style="stop-color:#F8A45B"/>
	<stop  offset="0.3936" style="stop-color:#CC7937"/>
	<stop  offset="0.7917" style="stop-color:#A55318"/>
	<stop  offset="1" style="stop-color:#96440C"/>
</linearGradient>
<path style="fill:url(#SVGID_00000155145840226474321550000008457230967004059294_);" d="M613.41,267.55c0,2.53-0.61,4.98-1.61,7.36
	c-1.25,3.03-3.1,5.96-5.05,8.86c-3.39,5.04-7.07,9.96-8.45,15.11c-1.88,7.04-0.08,15.61-0.1,23.34c-0.02,4.14-0.55,8.06-2.47,11.37
	c-0.57,0.99-1.25,1.9-2.02,2.74c-6.63,7.36-19.78,9.82-26.77,16.8c-7.79,7.79-9.94,23.24-19.54,28.79
	c-9.47,5.48-23.89-0.32-34.71,2.57c-10.45,2.79-20,15.11-31.34,15.11s-20.89-12.32-31.35-15.11c-10.81-2.89-25.23,2.92-34.7-2.57
	c-9.6-5.55-11.75-21-19.55-28.79c-7.79-7.79-23.24-9.94-28.79-19.54c-0.22-0.38-0.42-0.76-0.6-1.16c-1.38-2.96-1.82-6.34-1.85-9.9
	c-0.07-7.82,1.8-16.52-0.11-23.65c-2.79-10.45-15.11-20.01-15.11-31.34s12.32-20.89,15.11-31.35c2.89-10.81-2.92-25.23,2.56-34.7
	c5.56-9.6,21.01-11.75,28.79-19.55c7.79-7.79,9.95-23.24,19.55-28.79c9.47-5.48,23.89,0.33,34.7-2.56
	c10.45-2.79,20.01-15.11,31.35-15.11s20.89,12.32,31.34,15.11c10.82,2.89,25.24-2.92,34.71,2.56c9.34,5.4,11.63,20.15,18.9,28.12
	c0.21,0.23,0.42,0.46,0.64,0.67c5.6,5.6,15.13,8.28,22.13,12.91c2.75,1.81,5.1,3.93,6.67,6.64c5.48,9.47-0.32,23.89,2.57,34.7
	C601.09,246.66,613.41,256.22,613.41,267.55z"/>
<linearGradient id="SVGID_00000067229850605978570500000003078959794133877127_" gradientUnits="userSpaceOnUse" x1="384.5255" y1="235.2572" x2="386.045" y2="255.3912">
	<stop  offset="0.3844" style="stop-color:#96440C"/>
	<stop  offset="0.3989" style="stop-color:#9A4810"/>
	<stop  offset="0.5039" style="stop-color:#B76427"/>
</linearGradient>
<path style="fill:url(#SVGID_00000067229850605978570500000003078959794133877127_);" d="M412.45,244.67
	c-18.4,2.94-41.33,4.37-56.33,5.03c2.4-3.55,4.92-7.07,6.63-10.64c13.1,0.83,31.01,1.5,49.19,0.69
	C415.07,239.61,415.54,244.18,412.45,244.67z"/>
<linearGradient id="SVGID_00000163769913951146032740000015135407663378170246_" gradientUnits="userSpaceOnUse" x1="485.6319" y1="280.8881" x2="489.4308" y2="309.3797">
	<stop  offset="0.3844" style="stop-color:#96440C"/>
	<stop  offset="0.3989" style="stop-color:#9A4810"/>
	<stop  offset="0.5039" style="stop-color:#B76427"/>
</linearGradient>
<path style="fill:url(#SVGID_00000163769913951146032740000015135407663378170246_);" d="M611.8,274.92
	c-1.25,3.03-3.1,5.96-5.05,8.86c-140.62,4-209.04,29.99-240.39,48.66c-1.38-2.96-1.82-6.34-1.85-9.9c2.29-2.69,4.8-5.62,7.57-8.83
	C449.78,283.47,570.62,276.47,611.8,274.92z"/>
<linearGradient id="SVGID_00000170973724262064828040000005027410618875519374_" gradientUnits="userSpaceOnUse" x1="529.7078" y1="186.6482" x2="535.4061" y2="214">
	<stop  offset="0.3844" style="stop-color:#96440C"/>
	<stop  offset="0.3989" style="stop-color:#9A4810"/>
	<stop  offset="0.5039" style="stop-color:#B76427"/>
</linearGradient>
<path style="fill:url(#SVGID_00000170973724262064828040000005027410618875519374_);" d="M589.06,194.87
	c-17.39,4.62-67.14,16.8-109.95,16.98c-2.66,0.01-3.04-3.84-0.42-4.34c34.14-6.41,68.88-18.9,87.61-26.23
	c0.21,0.23,0.42,0.46,0.64,0.67C572.54,187.56,582.07,190.24,589.06,194.87z"/>
<polyline class="st10" points="411.13,258.98 403.22,266.27 413.98,266.27 "/>
<line class="st10" x1="190.92" y1="320.1" x2="228.75" y2="320.1"/>
<linearGradient id="SVGID_00000114043193872625283020000016198898515846215843_" gradientUnits="userSpaceOnUse" x1="404.6123" y1="241.181" x2="555.1485" y2="293.0148">
	<stop  offset="0.2989" style="stop-color:#5EBE43"/>
	<stop  offset="0.4769" style="stop-color:#60B33E"/>
	<stop  offset="0.7887" style="stop-color:#649631"/>
	<stop  offset="0.9246" style="stop-color:#66872A"/>
	<stop  offset="0.933" style="stop-color:#66872A"/>
</linearGradient>
<path style="fill:url(#SVGID_00000114043193872625283020000016198898515846215843_);stroke:#42210B;stroke-width:3;stroke-miterlimit:10;" d="
	M468.71,180.26c-5.89,0-10.74,4.85-10.74,10.74v7.16h-35.81c-0.11-0.01-0.22-0.01-0.34,0c-1.98,0.09-3.51,1.77-3.41,3.75
	s1.77,3.51,3.75,3.41h3.58v128.92c0,5.92,4.82,10.74,10.74,10.74h93.11c5.92,0,10.74-4.82,10.74-10.74V205.33h3.58
	c1.98,0.03,3.6-1.55,3.63-3.53s-1.55-3.6-3.53-3.63c-0.03,0-0.07,0-0.1,0H508.1v-7.16c0-5.89-4.85-10.74-10.74-10.74H468.71z
	 M468.71,187.43h28.65c1.99,0,3.58,1.6,3.58,3.58v7.16h-35.81v-7.16C465.12,189.02,466.72,187.43,468.71,187.43z M461.54,223.24
	c1.98,0,3.58,1.6,3.58,3.58v89.53c0,1.98-1.6,3.58-3.58,3.58s-3.58-1.6-3.58-3.58v-89.53C457.96,224.84,459.57,223.24,461.54,223.24
	z M483.03,223.24c1.98,0,3.58,1.6,3.58,3.58v89.53c0,1.98-1.6,3.58-3.58,3.58s-3.58-1.6-3.58-3.58v-89.53
	C479.45,224.84,481.05,223.24,483.03,223.24z M504.52,223.24c1.98,0,3.58,1.6,3.58,3.58v89.53c0,1.98-1.6,3.58-3.58,3.58
	c-1.98,0-3.58-1.6-3.58-3.58v-89.53C500.94,224.84,502.54,223.24,504.52,223.24z"/>
</svg>
